<svg width="90" height="91" viewBox="0 0 90 91" fill="none" xmlns="http://www.w3.org/2000/svg">
<g id="&#240;&#159;&#166;&#134; illustration &#34;Team success&#34;">
<path id="Vector" d="M4.76626 45.2722L13.7208 50.485L9.24355 58.3381L0.184937 53.0859L4.76626 45.2722Z" fill="white"/>
<path id="Vector_2" d="M9.24349 58.5211C9.21064 58.5218 9.17828 58.5131 9.15022 58.496L0.0916046 53.2438C0.0704708 53.2319 0.0519587 53.2159 0.0371856 53.1967C0.0224125 53.1775 0.0116865 53.1555 0.00565147 53.132C-0.000383514 53.1085 -0.00160025 53.0841 0.00207409 53.0601C0.00574842 53.0362 0.0142359 53.0132 0.0270282 52.9926L4.60477 45.1789C4.61698 45.1581 4.63317 45.14 4.65242 45.1255C4.67167 45.111 4.69358 45.1005 4.71692 45.0945C4.74025 45.0885 4.76454 45.0871 4.78839 45.0905C4.81224 45.0939 4.83518 45.102 4.8559 45.1143L13.8248 50.3235C13.8667 50.3482 13.8972 50.3883 13.9099 50.4352C13.9226 50.4821 13.9166 50.5321 13.893 50.5746L9.40493 58.4278C9.37898 58.4708 9.33811 58.5027 9.29013 58.5175L9.24349 58.5211ZM0.439599 53.0177L9.17533 58.0834L13.4804 50.5495L4.84872 45.5269L0.439599 53.0177Z" fill="#231F20"/>
<path id="Vector_3" d="M13.6777 83.5049C13.2225 84.3121 12.8499 85.163 12.5655 86.0449C12.1888 87.2934 12.9458 89.0872 13.4768 89.5679C13.7588 89.7851 14.1057 89.9011 14.4617 89.8972C14.8177 89.8933 15.162 89.7698 15.4392 89.5464C16.0239 89.0334 15.4392 84.1112 15.4392 84.1112L13.6777 83.5049Z" fill="#231F20"/>
<path id="Vector_4" d="M14.4132 90.0809C14.0195 90.0936 13.6354 89.9578 13.3369 89.7007C12.7629 89.1805 11.9808 87.3006 12.3791 85.9947C12.664 85.0947 13.0441 84.2276 13.5127 83.4081C13.5345 83.3747 13.5668 83.3495 13.6045 83.3365C13.6422 83.3235 13.6831 83.3235 13.7208 83.3363L15.4608 83.9426C15.4925 83.9533 15.5204 83.9729 15.5414 83.9989C15.5624 84.025 15.5755 84.0565 15.5792 84.0897C15.7263 85.2664 16.1496 89.1482 15.5397 89.6827C15.2208 89.9403 14.8232 90.0808 14.4132 90.0809ZM13.7603 83.7238C13.3446 84.4806 13.0034 85.276 12.7414 86.0987C12.3827 87.2575 13.1002 88.9688 13.5988 89.4352C13.8485 89.6227 14.1531 89.7222 14.4653 89.7183C14.7775 89.7144 15.0796 89.6073 15.3245 89.4137C15.6438 89.1374 15.5433 86.5866 15.2599 84.244L13.7603 83.7238Z" fill="#231F20"/>
<path id="Vector_5" d="M19.4106 65.5419C17.7104 67.7495 16.4531 70.2652 15.7082 72.9503C14.5638 77.2553 13.9575 83.1856 13.8893 83.3865C13.8212 83.5874 12.7449 85.4745 13.5019 85.8296C14.2589 86.1848 15.0158 86.3857 15.4212 84.1112C15.4212 84.1112 23.2493 68.5053 23.5507 66.6361C23.852 64.767 19.4106 65.5419 19.4106 65.5419Z" fill="white"/>
<path id="Vector_6" d="M14.241 86.2314C13.9548 86.2131 13.6758 86.1336 13.423 85.9983C13.3476 85.9636 13.2801 85.9139 13.2246 85.8522C13.169 85.7905 13.1267 85.7181 13.1001 85.6395C12.9136 85.1193 13.2651 84.269 13.6311 83.5085C13.6741 83.4224 13.7028 83.3614 13.7136 83.3327C13.7243 83.304 13.7674 82.9488 13.8176 82.5578C14.058 80.6922 14.6212 76.3262 15.5289 72.9072C16.2851 70.1977 17.5541 67.6585 19.2671 65.4271C19.296 65.3938 19.3351 65.3711 19.3784 65.3626C19.5075 65.341 22.5211 64.828 23.461 65.7572C23.5793 65.874 23.6663 66.0187 23.7139 66.1779C23.7616 66.3372 23.7684 66.5059 23.7337 66.6684C23.4323 68.5268 16.0599 83.2573 15.5971 84.1758C15.3997 85.2807 15.0984 85.905 14.6571 86.1346C14.5285 86.2006 14.3855 86.2339 14.241 86.2314ZM19.5111 65.7141C17.8531 67.8909 16.6224 70.3621 15.8841 72.9969C14.9836 76.3943 14.4239 80.7425 14.1836 82.6008C14.101 83.2573 14.0831 83.3937 14.0652 83.4475C14.0472 83.5013 14.0149 83.5587 13.9647 83.6663C13.7782 84.0502 13.2903 85.0655 13.4481 85.5103C13.4583 85.5434 13.4754 85.574 13.4983 85.6C13.5211 85.626 13.5493 85.6468 13.5808 85.661C13.9647 85.8404 14.2481 85.9265 14.4849 85.8045C14.8114 85.6323 15.0661 85.0547 15.2383 84.0789C15.241 84.0612 15.2471 84.0441 15.2562 84.0287C15.3352 83.8744 23.0736 68.4263 23.3677 66.6074C23.3928 66.5026 23.3905 66.3931 23.3609 66.2894C23.3314 66.1857 23.2757 66.0914 23.1991 66.0155C22.5498 65.3769 20.3829 65.5706 19.5111 65.7141Z" fill="#231F20"/>
<path id="Vector_7" d="M44.5129 83.5049C44.9677 84.3118 45.3391 85.1628 45.6214 86.0449C46.0017 87.2934 45.2447 89.0872 44.7138 89.5679C44.4317 89.7851 44.0848 89.9011 43.7288 89.8972C43.3729 89.8933 43.0286 89.7698 42.7514 89.5464C42.163 89.0334 42.7514 84.1112 42.7514 84.1112L44.5129 83.5049Z" fill="#231F20"/>
<path id="Vector_8" d="M43.7775 90.0738C43.3619 90.0816 42.9569 89.9432 42.633 89.6827C42.0231 89.1482 42.4465 85.2664 42.5936 84.0897C42.5973 84.0565 42.6104 84.025 42.6313 83.9989C42.6523 83.9728 42.6803 83.9533 42.712 83.9426L44.4519 83.3363C44.4897 83.3241 44.5304 83.3244 44.568 83.3374C44.6055 83.3503 44.6378 83.3751 44.66 83.408C45.1247 84.2295 45.5046 85.0962 45.7937 85.9947C46.1919 87.3006 45.4062 89.1805 44.8322 89.7006C44.5383 89.9502 44.1629 90.083 43.7775 90.0738ZM42.9344 84.244C42.651 86.5866 42.5505 89.1374 42.8698 89.4136C43.1144 89.6079 43.4166 89.7154 43.7289 89.7193C44.0413 89.7232 44.346 89.6232 44.5954 89.4352C45.0977 88.9796 45.8044 87.2575 45.4529 86.0987C45.1881 85.2765 44.8457 84.4812 44.4304 83.7238L42.9344 84.244Z" fill="#231F20"/>
<path id="Vector_9" d="M38.78 65.5419C40.4802 67.7495 41.7374 70.2652 42.4823 72.9503C43.6268 77.2553 44.2331 83.1856 44.3012 83.3865C44.3694 83.5874 45.4457 85.4745 44.6887 85.8296C43.9317 86.1848 43.1747 86.3857 42.7693 84.1112C42.7693 84.1112 34.9413 68.5053 34.6363 66.6361C34.3314 64.767 38.78 65.5419 38.78 65.5419Z" fill="white"/>
<path id="Vector_10" d="M43.9533 86.2314C43.8084 86.2328 43.6654 86.1982 43.5371 86.131C43.0959 85.9014 42.7945 85.2771 42.5936 84.1722C42.1344 83.2537 34.7583 68.5232 34.457 66.6648C34.4237 66.5019 34.4316 66.3333 34.4798 66.1743C34.528 66.0152 34.6151 65.8706 34.7332 65.7536C35.6732 64.8244 38.6796 65.3374 38.8159 65.359C38.8591 65.3675 38.8983 65.3902 38.9271 65.4235C40.6401 67.6549 41.9091 70.1941 42.6654 72.9036C43.573 76.3226 44.1363 80.6886 44.3766 82.5542C44.4268 82.9452 44.4699 83.2717 44.4807 83.3363L44.5632 83.5049C44.9219 84.2654 45.2807 85.1157 45.0941 85.6359C45.067 85.7142 45.0245 85.7863 44.969 85.848C44.9135 85.9096 44.8463 85.9594 44.7713 85.9946C44.5185 86.1308 44.2397 86.2115 43.9533 86.2314ZM36.9109 65.5706C36.1252 65.5706 35.3431 65.6747 34.9951 66.0155C34.9188 66.0916 34.863 66.1858 34.8329 66.2893C34.8028 66.3928 34.7993 66.5022 34.8229 66.6074C35.1207 68.4263 42.8591 83.8744 42.938 84.0287C42.9456 84.0448 42.9516 84.0616 42.9559 84.0789C43.1281 85.0547 43.3829 85.6323 43.7093 85.8045C43.9461 85.9265 44.2295 85.8404 44.6134 85.661C44.645 85.6467 44.6731 85.6259 44.696 85.6C44.7189 85.574 44.736 85.5434 44.7461 85.5103C44.904 85.0655 44.4125 84.0502 44.2295 83.6663C44.1923 83.5951 44.1588 83.5221 44.1291 83.4475C44.1291 83.3937 44.0932 83.2573 44.0071 82.6008C43.7703 80.7424 43.2107 76.3943 42.3066 72.9969C41.5689 70.3625 40.3394 67.8915 38.6831 65.7141C38.0958 65.6205 37.5021 65.5725 36.9073 65.5706H36.9109Z" fill="#231F20"/>
<path id="Vector_11" d="M22.0368 44.8022C22.0368 45.0031 19.2098 59.4826 18.6716 65.9474C18.6716 65.9474 29.7142 71.7377 39.8168 65.542C39.8168 65.542 37.5243 56.2502 37.4597 54.0941C37.3952 51.9379 36.3117 46.2839 34.7655 43.9269L22.0368 44.8022Z" fill="#231F20"/>
<path id="Vector_12" d="M29.4487 68.5663C25.6927 68.5376 21.9871 67.6981 18.5855 66.1052C18.5546 66.089 18.5293 66.064 18.5127 66.0333C18.4961 66.0026 18.489 65.9677 18.4922 65.933C18.9263 60.7023 20.8564 50.2517 21.5847 46.3162C21.739 45.4695 21.8538 44.8596 21.8574 44.7914C21.862 44.7483 21.8813 44.7081 21.912 44.6774C21.9426 44.6468 21.9829 44.6275 22.026 44.6228L34.7511 43.7475C34.7827 43.7445 34.8144 43.7503 34.8429 43.7642C34.8714 43.7781 34.8955 43.7997 34.9125 43.8264C36.4767 46.2085 37.5673 51.8231 37.6355 54.0904C37.7037 56.1999 39.9638 65.4056 39.989 65.4989C39.9974 65.5359 39.9944 65.5746 39.9803 65.6099C39.9662 65.6452 39.9417 65.6753 39.91 65.6962C36.7589 67.6099 33.1352 68.604 29.4487 68.5663ZM18.8582 65.8397C20.0062 66.3994 30.2631 71.1027 39.6123 65.4594C39.3253 64.2899 37.3449 56.1318 37.2803 54.1012C37.2122 51.9487 36.1467 46.4561 34.6722 44.1098L22.191 44.9708C22.1587 45.1538 22.0906 45.5413 21.9327 46.3807C21.2152 50.2804 19.3102 60.5911 18.8582 65.8397Z" fill="#231F20"/>
<path id="Vector_13" d="M41.8007 13.5114L42.6509 11.2082C42.6509 11.2082 42.2563 10.3006 42.6976 9.62251C43.1388 8.94446 43.4151 8.36686 43.7738 8.57494C44.1326 8.78302 45.9264 9.71937 45.6358 10.8423C45.3452 11.9652 44.5595 12.1195 44.5595 12.1195C44.184 13.1775 43.7133 14.1994 43.1532 15.1725L41.8007 13.5114Z" fill="white"/>
<path id="Vector_14" d="M43.1461 15.3554C43.1186 15.3551 43.0916 15.3488 43.0668 15.337C43.0421 15.3253 43.0201 15.3083 43.0026 15.2873L41.65 13.6298C41.6297 13.6044 41.6164 13.5742 41.6114 13.5421C41.6064 13.51 41.6098 13.4772 41.6213 13.4468L42.4465 11.2118C42.3362 10.9409 42.287 10.649 42.3025 10.3569C42.318 10.0648 42.3978 9.77974 42.5362 9.52204L42.712 9.24579C43.0707 8.65384 43.4295 8.14441 43.8564 8.41706L43.964 8.48164C44.4914 8.78658 46.0986 9.71935 45.8009 10.8889C45.7512 11.1943 45.6233 11.4817 45.4297 11.7231C45.236 11.9645 44.9833 12.1517 44.6959 12.2665C44.3206 13.3085 43.8573 14.3167 43.3111 15.2801C43.296 15.3064 43.2747 15.3287 43.2491 15.3449C43.2235 15.3612 43.1943 15.371 43.164 15.3734L43.1461 15.3554ZM42.0052 13.4863L43.1174 14.8532C43.6142 13.9638 44.0343 13.0336 44.373 12.0728C44.3831 12.0407 44.4018 12.012 44.4271 11.9898C44.4524 11.9677 44.4834 11.9529 44.5165 11.9472C44.5416 11.9472 45.191 11.7966 45.4421 10.81C45.6717 9.90949 44.2474 9.08435 43.7775 8.8117L43.6627 8.74353C43.5263 8.66102 43.2716 9.06283 43.0277 9.46105C42.9667 9.55074 42.9093 9.6476 42.8447 9.74447C42.4644 10.3257 42.8124 11.1436 42.816 11.1544C42.8322 11.1984 42.8322 11.2467 42.816 11.2907L42.0052 13.4863Z" fill="#231F20"/>
<path id="Vector_15" d="M43.5694 9.04492C44.0901 9.30455 44.5322 9.69836 44.8501 10.1858C44.8926 10.2398 44.9142 10.3073 44.9111 10.3759C44.9111 10.4584 44.8107 10.5051 44.7353 10.5409C44.6341 10.6028 44.5166 10.6328 44.3981 10.627C44.3222 10.6138 44.25 10.5845 44.1864 10.5409C43.9248 10.3837 43.6837 10.1945 43.4689 9.97769C43.5675 10.058 43.6411 10.1648 43.6811 10.2856C43.721 10.4063 43.7256 10.536 43.6943 10.6593C43.663 10.7825 43.5971 10.8943 43.5044 10.9814C43.4118 11.0685 43.2961 11.1273 43.1711 11.1508" fill="white"/>
<path id="Vector_16" d="M43.1855 11.3338C43.1427 11.3336 43.1013 11.3184 43.0686 11.2909C43.0358 11.2634 43.0137 11.2252 43.0062 11.1831C42.9967 11.1346 43.0068 11.0843 43.0344 11.0432C43.062 11.0022 43.1047 10.9738 43.1532 10.9643C43.2398 10.9424 43.3189 10.8975 43.3821 10.8343C43.4452 10.7712 43.4901 10.6921 43.512 10.6055C43.5286 10.5322 43.5284 10.4561 43.5117 10.3828C43.4949 10.3096 43.4619 10.241 43.4151 10.1822C43.3864 10.1571 43.3613 10.1284 43.3326 10.0997C43.3147 10.0834 43.3002 10.0638 43.2899 10.0419C43.2796 10.0201 43.2736 9.99636 43.2725 9.97221C43.2713 9.94806 43.2749 9.92391 43.2831 9.90115C43.2912 9.87839 43.3038 9.85746 43.3201 9.83956C43.3363 9.82166 43.3559 9.80713 43.3778 9.79681C43.3997 9.78649 43.4234 9.78058 43.4475 9.77942C43.4717 9.77825 43.4958 9.78185 43.5186 9.79002C43.5413 9.79818 43.5623 9.81075 43.5802 9.82701C43.6186 9.85892 43.6546 9.8937 43.6878 9.93105C43.8642 10.0991 44.0578 10.2482 44.2654 10.3759C44.308 10.4045 44.3554 10.4251 44.4053 10.4369C44.4868 10.4336 44.566 10.4089 44.6349 10.3651C44.6608 10.3559 44.685 10.3426 44.7067 10.3257C44.6951 10.3114 44.6855 10.2957 44.678 10.279C44.3775 9.81942 43.9603 9.44797 43.4689 9.20277C43.4303 9.17824 43.402 9.14036 43.3895 9.09633C43.377 9.0523 43.381 9.00521 43.401 8.964C43.4209 8.9228 43.4553 8.89036 43.4976 8.87287C43.5399 8.85537 43.5872 8.85404 43.6304 8.86912C44.1825 9.14349 44.6508 9.56102 44.9865 10.0781C45.0224 10.1245 45.0485 10.1776 45.0633 10.2344C45.0781 10.2911 45.0813 10.3502 45.0726 10.4082C45.0521 10.4741 45.017 10.5345 44.9697 10.5849C44.9225 10.6352 44.8644 10.6742 44.7999 10.6988C44.6947 10.7721 44.5695 10.8114 44.4412 10.8114C44.3129 10.8114 44.1877 10.7721 44.0824 10.6988L43.903 10.5804C43.8994 10.6228 43.8922 10.6648 43.8815 10.706C43.8412 10.8595 43.7598 10.9991 43.646 11.1097C43.5322 11.2204 43.3903 11.2978 43.2358 11.3338H43.1855Z" fill="#231F20"/>
<path id="Vector_17" d="M11.1988 42.5887L10.8149 45.6058C10.7898 45.7924 11.1952 46.3807 11.249 46.6103C11.3925 47.2633 11.414 47.988 11.5037 48.6553C11.5037 48.7557 11.5252 48.8813 11.4427 48.9423C11.3602 49.0032 11.1988 48.9423 11.084 48.8526L10.2445 48.1709C9.83015 48.9028 9.47042 49.6642 9.1682 50.449C8.47221 50.6177 7.7834 50.1513 7.28473 49.6347C7.22899 49.5812 7.1818 49.5195 7.14481 49.4517C7.11134 49.3682 7.09194 49.2797 7.08741 49.1898C6.95826 47.988 6.81476 45.6596 8.23543 45.039C8.39344 43.6576 8.67683 42.2935 9.0821 40.9635L11.1988 42.5887Z" fill="white"/>
<path id="Vector_18" d="M8.90263 50.6679C8.56928 50.6397 8.24492 50.5453 7.94858 50.39C7.65225 50.2348 7.38993 50.0219 7.17701 49.7638C7.10705 49.6962 7.04885 49.6174 7.00481 49.5306C6.96066 49.4296 6.93514 49.3214 6.92947 49.2113C6.83619 48.3324 6.57071 45.6991 8.08825 44.9063C8.25482 43.5516 8.53565 42.2134 8.92775 40.9061C8.93566 40.8765 8.95102 40.8494 8.97238 40.8274C8.99373 40.8055 9.02036 40.7893 9.04972 40.7805C9.07808 40.7715 9.10818 40.7694 9.13751 40.7744C9.16685 40.7794 9.19456 40.7914 9.21834 40.8092L11.3135 42.4344C11.3387 42.455 11.3585 42.4815 11.371 42.5115C11.3835 42.5416 11.3884 42.5742 11.3852 42.6066C11.3852 42.6066 10.9978 45.6094 10.9978 45.6238C11.0524 45.7837 11.1233 45.9376 11.2094 46.083C11.3008 46.2342 11.3742 46.3955 11.4283 46.5637C11.5139 46.9963 11.5738 47.4335 11.6077 47.8732C11.6292 48.1279 11.6543 48.379 11.6866 48.623C11.7083 48.7044 11.7075 48.7901 11.6841 48.871C11.6607 48.952 11.6157 49.025 11.5538 49.0822C11.4642 49.1503 11.2704 49.2257 10.9834 48.9889L10.3125 48.4472C9.95266 49.1124 9.63629 49.8003 9.36543 50.5065C9.35475 50.5346 9.33744 50.5597 9.31495 50.5797C9.29246 50.5997 9.26547 50.6139 9.23628 50.6213C9.12714 50.6492 9.01524 50.6648 8.90263 50.6679ZM9.20758 41.2792C8.84173 42.5138 8.58365 43.7778 8.43625 45.0569C8.43254 45.09 8.42036 45.1216 8.40087 45.1487C8.38139 45.1757 8.35527 45.1972 8.32503 45.2112C7.38509 45.6202 7.04427 46.9189 7.28464 49.1755C7.28765 49.2432 7.30221 49.3099 7.32769 49.3728C7.35434 49.4248 7.3909 49.4711 7.43532 49.5091C7.76178 49.8499 8.3932 50.3845 9.04613 50.2912C9.34243 49.5318 9.69003 48.7935 10.0865 48.0812C10.0997 48.0581 10.1177 48.038 10.1394 48.0225C10.1611 48.007 10.1859 47.9965 10.2121 47.9916C10.2391 47.9863 10.267 47.9872 10.2936 47.994C10.3203 48.0008 10.3452 48.0135 10.3664 48.031L11.2059 48.7163C11.2418 48.7456 11.2816 48.7697 11.3242 48.788C11.3242 48.788 11.3242 48.7414 11.3242 48.684C11.292 48.4364 11.2668 48.1781 11.2417 47.9198C11.211 47.4957 11.1534 47.0739 11.0695 46.657C11.0218 46.5208 10.9605 46.3898 10.8866 46.2659C10.7445 46.0644 10.6568 45.8296 10.6318 45.5843C10.6318 45.5592 10.9404 43.2022 10.9906 42.6748L9.20758 41.2792Z" fill="#231F20"/>
<path id="Vector_19" d="M26.0799 26.1361C26.0032 26.0996 25.9226 26.0719 25.8396 26.0536C25.2261 25.9208 24.2754 26.6599 23.7588 27.0258C23.2212 27.4421 22.8304 28.0189 22.6431 28.6725C22.3914 29.5324 22.2209 30.414 22.1336 31.3058C21.5632 35.9696 21.5632 40.777 21.2798 45.4767C21.2798 45.4767 25.1902 48.3037 28.4549 47.8481C31.7196 47.3924 35.813 45.5269 35.813 45.5269C35.813 45.5269 34.6686 32.5004 34.6255 30.5237C34.6255 30.5237 36.692 27.7469 39.1674 24.3136C41.6428 20.8803 43.9317 14.2038 43.9317 14.2038L41.7792 12.7401C41.7792 12.7401 34.4211 24.4248 33.1403 25.519C31.9169 26.563 30.1088 26.868 28.5482 26.7819C27.9886 26.7528 27.4333 26.6675 26.8907 26.5271C26.6103 26.419 26.3392 26.2882 26.0799 26.1361Z" fill="#68E1FD"/>
<path id="Vector_20" d="M24.1857 24.7513C23.9284 24.5997 23.7279 24.3678 23.6152 24.0912C23.5964 23.8765 23.6322 23.6605 23.7193 23.4634C24.4368 21.3108 24.2933 18.8497 25.5131 16.934C25.6599 16.6686 25.8708 16.4441 26.1265 16.281C26.2552 16.2009 26.4037 16.1584 26.5553 16.1584C26.7068 16.1584 26.8553 16.2009 26.984 16.281C28.0602 14.455 30.7043 15.7608 31.4541 17.2318C32.2469 18.7888 32.7133 20.5754 33.3017 22.2185C33.5237 22.7129 33.6293 23.2517 33.6102 23.7934C33.5949 24.0636 33.4905 24.321 33.3133 24.5255C33.1361 24.73 32.8961 24.87 32.6308 24.9235L32.3438 24.4248C32.3762 24.4636 32.4006 24.5085 32.4156 24.5568C32.4306 24.605 32.4359 24.6558 32.4312 24.7061C32.4266 24.7565 32.412 24.8054 32.3884 24.8501C32.3648 24.8948 32.3325 24.9343 32.2936 24.9666C32.141 25.093 31.9579 25.1771 31.7626 25.2105C29.8648 25.6877 27.8163 26.0715 25.9795 25.4186C25.696 25.3181 25.3624 25.0598 25.4736 24.7872C25.2978 25.2823 24.67 25.0885 24.1857 24.7513Z" fill="white"/>
<path id="Vector_21" d="M28.168 25.9424C27.4079 25.9511 26.652 25.8298 25.9329 25.5836C25.7134 25.5121 25.5208 25.3758 25.3804 25.1925C25.3495 25.2099 25.3171 25.2243 25.2836 25.2356C24.8351 25.3863 24.2611 25.0168 24.0925 24.902C23.9598 24.8087 23.5113 24.4714 23.4467 24.1235C23.4205 23.889 23.4551 23.6518 23.5472 23.4346C23.8068 22.5888 24 21.7239 24.1248 20.848C24.358 19.4704 24.6019 18.0425 25.3625 16.8335C25.5273 16.542 25.7614 16.2955 26.0441 16.116C26.1767 16.0395 26.3245 15.9931 26.477 15.9801C26.6295 15.9671 26.783 15.9878 26.9267 16.0407C27.1118 15.7663 27.3655 15.5452 27.6626 15.3992C27.9596 15.2531 28.2897 15.1874 28.62 15.2083C29.2403 15.2661 29.8375 15.4726 30.3609 15.8105C30.8843 16.1484 31.3184 16.6077 31.6264 17.1492C32.1605 18.2845 32.6079 19.4586 32.9646 20.6614C33.1296 21.1637 33.2946 21.6624 33.4704 22.1503C33.702 22.6723 33.81 23.2407 33.7861 23.8113C33.7658 24.1237 33.6418 24.4203 33.4339 24.6542C33.2259 24.8882 32.9459 25.046 32.6381 25.1029C32.6059 25.106 32.5734 25.1007 32.5438 25.0875C32.5142 25.0743 32.4886 25.0536 32.4695 25.0275L32.4228 25.0813C32.2481 25.2315 32.0362 25.3318 31.8094 25.3719C30.623 25.7081 29.4003 25.8996 28.168 25.9424ZM25.6567 24.8661C25.6465 24.8926 25.6465 24.922 25.6567 24.9486C25.7498 25.0868 25.888 25.1882 26.0477 25.2356C27.82 25.8598 29.8218 25.5011 31.7268 25.0239C31.8882 24.9985 32.0402 24.9318 32.1681 24.8302C32.2166 24.7814 32.2448 24.716 32.247 24.6472L32.1896 24.5432C32.1629 24.5049 32.1519 24.4579 32.1587 24.4117C32.1656 24.3655 32.1898 24.3237 32.2265 24.2948C32.2632 24.2659 32.3095 24.2521 32.356 24.2563C32.4025 24.2605 32.4457 24.2822 32.4766 24.3172C32.53 24.3708 32.5705 24.4358 32.595 24.5073L32.7278 24.7441C32.9249 24.6706 33.0971 24.5425 33.2241 24.3748C33.3512 24.2071 33.4279 24.0067 33.4453 23.797C33.4563 23.2837 33.3547 22.7743 33.1475 22.3046C32.9717 21.8131 32.8067 21.3108 32.6381 20.805C32.282 19.618 31.8371 18.4595 31.3071 17.3394C31.0319 16.8549 30.644 16.4438 30.1762 16.1409C29.7085 15.838 29.1747 15.6523 28.62 15.5994C28.3257 15.5825 28.0326 15.649 27.7743 15.7911C27.516 15.9332 27.3031 16.1453 27.1599 16.403C27.1464 16.4248 27.1286 16.4437 27.1077 16.4585C27.0867 16.4733 27.063 16.4837 27.0379 16.4891C27.0125 16.4945 26.9862 16.4944 26.9609 16.4888C26.9355 16.4832 26.9116 16.4723 26.8908 16.4568C26.7924 16.3969 26.6795 16.3653 26.5643 16.3653C26.4492 16.3653 26.3362 16.3969 26.2379 16.4568C25.9997 16.5973 25.8001 16.7945 25.6567 17.0308C24.9392 18.1789 24.706 19.5063 24.4692 20.909C24.3445 21.7964 24.1526 22.6731 23.8952 23.5315C23.8221 23.6999 23.7878 23.8826 23.7947 24.0661C23.9031 24.2924 24.0768 24.4811 24.2934 24.6078C24.5307 24.8115 24.8388 24.9133 25.1508 24.8912C25.1835 24.8805 25.2132 24.8623 25.2375 24.838C25.2618 24.8136 25.28 24.784 25.2907 24.7513C25.2899 24.7393 25.2899 24.7273 25.2907 24.7154C25.3079 24.6678 25.3432 24.629 25.3889 24.6075C25.4347 24.5859 25.4871 24.5835 25.5347 24.6006C25.5823 24.6177 25.6211 24.6531 25.6426 24.6988C25.6642 24.7446 25.6666 24.797 25.6495 24.8446C25.6528 24.8514 25.6552 24.8586 25.6567 24.8661Z" fill="#231F20"/>
<path id="Vector_22" d="M29.2119 29.9425L29.1402 30.0035C29.0492 30.0775 28.9387 30.1233 28.8221 30.1354C28.7055 30.1475 28.5879 30.1254 28.4837 30.0716C28.3876 30.0015 28.307 29.9123 28.2469 29.8097C27.4791 28.7084 26.9625 27.5639 27.1921 26.1935C27.193 26.1803 27.193 26.1672 27.1921 26.154L27.1563 25.6912L27.063 24.414V24.2275V23.9584L27.1778 22.5449L30.1447 22.5772L30.2488 24.3064V24.414L30.3169 25.5226L30.3528 26.1289V26.154C30.3539 27.304 30.0678 28.436 29.5205 29.4474C29.4453 29.6282 29.3411 29.7954 29.2119 29.9425Z" fill="white"/>
<path id="Vector_23" d="M28.7383 30.3264C28.6115 30.3285 28.4869 30.2936 28.3796 30.2259C28.2632 30.1434 28.1644 30.0385 28.089 29.9174C27.4468 28.9918 26.7436 27.7326 27.0127 26.1648L26.8835 24.4284L26.9158 23.9441L27.0306 22.5306C27.0343 22.484 27.0557 22.4405 27.0904 22.4092C27.125 22.3778 27.1704 22.3609 27.2172 22.362L30.1841 22.3907C30.2309 22.3923 30.2754 22.4112 30.3092 22.4436C30.343 22.476 30.3636 22.5198 30.3671 22.5665L30.4675 24.2957C30.4675 24.2957 30.4675 24.3316 30.4675 24.3351L30.5716 26.1289C30.5816 27.3198 30.2891 28.4938 29.7213 29.5407C29.6265 29.7448 29.4966 29.9306 29.3374 30.0896L29.2513 30.1649C29.1009 30.27 28.9218 30.3263 28.7383 30.3264ZM27.3822 22.7315L27.2495 24.4248L27.3822 26.1397C27.3848 26.1683 27.3848 26.1972 27.3822 26.2258C27.1921 27.3595 27.497 28.3999 28.4047 29.7057C28.4534 29.7861 28.5167 29.8566 28.5912 29.9138C28.6633 29.9469 28.7432 29.959 28.8219 29.9489C28.9005 29.9387 28.9748 29.9067 29.0361 29.8564C29.0568 29.8416 29.0761 29.8248 29.0935 29.8062C29.2223 29.6785 29.3258 29.5276 29.3984 29.3613C29.9336 28.3811 30.2125 27.2816 30.2092 26.1648L30.1016 24.3423V24.3065L30.0119 22.7602L27.3822 22.7315Z" fill="#231F20"/>
<path id="Vector_24" d="M27.063 24.4141C27.297 24.8195 27.6288 25.1599 28.028 25.4042C28.6595 25.8168 29.5563 26.1827 30.3313 26.0572L30.2775 24.3064C29.7108 24.3835 29.1364 24.3835 28.5698 24.3064C28.0621 24.2747 27.5641 24.1532 27.0989 23.9477L27.063 24.4141Z" fill="#231F20"/>
<path id="Vector_25" d="M30.0012 26.2617C29.2591 26.2136 28.5438 25.9657 27.9311 25.5442C27.5038 25.2777 27.1508 24.9075 26.9051 24.4679C26.8962 24.4362 26.8962 24.4027 26.9051 24.371L26.9374 23.9154C26.94 23.8861 26.9494 23.8578 26.965 23.8329C26.9806 23.808 27.0019 23.7871 27.0271 23.7719C27.0529 23.7578 27.0819 23.7504 27.1114 23.7504C27.1408 23.7504 27.1698 23.7578 27.1957 23.7719C27.6434 23.9611 28.1203 24.0716 28.6056 24.0984C29.158 24.172 29.7178 24.172 30.2702 24.0984C30.295 24.0933 30.3207 24.0942 30.345 24.101C30.3694 24.1079 30.3917 24.1205 30.4102 24.1378C30.4298 24.1532 30.4458 24.1728 30.457 24.1951C30.4681 24.2175 30.4742 24.242 30.4747 24.267L30.5285 26.0177C30.53 26.0613 30.5155 26.104 30.4877 26.1376C30.46 26.1713 30.4209 26.1937 30.3779 26.2007C30.2541 26.2309 30.1281 26.2513 30.0012 26.2617ZM27.2459 24.3746C27.4643 24.7337 27.7658 25.0351 28.1249 25.2536C28.7157 25.6738 29.4233 25.8984 30.1483 25.8957L30.1052 24.5074C29.5868 24.5559 29.0645 24.5463 28.5482 24.4787C28.1088 24.445 27.6752 24.3583 27.2567 24.2203L27.2459 24.3746Z" fill="#231F20"/>
<path id="Vector_26" d="M28.5733 24.7226H28.8854C29.2279 24.7263 29.5678 24.6626 29.8857 24.5351C30.2036 24.4075 30.4933 24.2185 30.7381 23.979C30.983 23.7395 31.1783 23.454 31.3128 23.139C31.4474 22.824 31.5185 22.4856 31.5223 22.1431C31.492 21.343 31.4165 20.5453 31.2963 19.7538C31.2963 19.7538 30.0944 19.3233 29.1437 18.9645C27.5616 18.3654 27.1347 17.5295 27.1347 17.5295C27.0894 18.0978 26.9687 18.6576 26.7759 19.1941C26.5679 19.5727 26.3278 19.9327 26.0584 20.2704C26.0584 20.2704 26.0118 21.5547 26.0046 22.0893C25.9988 22.7783 26.2656 23.4417 26.7467 23.9349C27.2278 24.4281 27.8844 24.7112 28.5733 24.7226Z" fill="white"/>
<path id="Vector_27" d="M28.9069 24.9127H28.5697C27.831 24.9033 27.1261 24.6017 26.6091 24.074C26.0921 23.5462 25.8051 22.8352 25.8109 22.0965C25.8109 21.5584 25.8611 20.2704 25.8611 20.2704C25.8633 20.2314 25.877 20.194 25.9006 20.1628C26.157 19.8328 26.3862 19.4824 26.5858 19.1152C26.7752 18.5987 26.8958 18.0595 26.9445 17.5116C26.9477 17.4709 26.9642 17.4323 26.9914 17.4018C27.0187 17.3714 27.0551 17.3507 27.0952 17.343C27.1351 17.335 27.1765 17.3405 27.2129 17.3587C27.2493 17.3769 27.2786 17.4067 27.2961 17.4434C27.2961 17.4434 27.7231 18.247 29.2083 18.8067C30.1482 19.1655 31.3608 19.596 31.3608 19.596C31.3928 19.6069 31.421 19.6264 31.4426 19.6523C31.4641 19.6783 31.478 19.7097 31.4828 19.743C31.607 20.5437 31.6825 21.3512 31.7088 22.1611C31.6984 22.8963 31.3983 23.5978 30.8737 24.113C30.349 24.6283 29.6423 24.9156 28.9069 24.9127ZM28.5733 24.554H28.8854C29.2036 24.5615 29.5199 24.5043 29.8153 24.3859C30.1107 24.2675 30.379 24.0904 30.6039 23.8652C30.83 23.6425 31.0099 23.3774 31.133 23.0849C31.2562 22.7924 31.3202 22.4784 31.3214 22.1611C31.2967 21.4066 31.2272 20.6543 31.1133 19.9081C30.8012 19.7969 29.8469 19.4489 29.0684 19.1547C28.3809 18.919 27.7581 18.5258 27.2495 18.0067C27.1857 18.4372 27.075 18.8594 26.9194 19.2659C26.7219 19.645 26.4902 20.0053 26.227 20.3422C26.227 20.6005 26.1804 21.6337 26.1768 22.1001C26.173 22.4179 26.2319 22.7334 26.3502 23.0284C26.4684 23.3235 26.6437 23.5923 26.866 23.8196C27.0882 24.0468 27.3531 24.228 27.6454 24.3528C27.9378 24.4776 28.2519 24.5435 28.5697 24.5468L28.5733 24.554Z" fill="#231F20"/>
<path id="Vector_28" d="M28.8387 21.9638C28.6865 21.9632 28.5344 21.9548 28.3831 21.9386C28.3348 21.9315 28.2912 21.9057 28.2617 21.8668C28.2322 21.8279 28.2191 21.779 28.2252 21.7306C28.2283 21.7064 28.2362 21.6832 28.2484 21.6621C28.2605 21.6411 28.2768 21.6227 28.2962 21.608C28.3155 21.5933 28.3376 21.5826 28.3612 21.5765C28.3847 21.5705 28.4093 21.5692 28.4333 21.5727C28.654 21.5945 28.8763 21.5945 29.097 21.5727C29.0527 21.0643 28.923 20.567 28.7132 20.1018C28.6956 20.0542 28.6976 20.0016 28.7188 19.9555C28.74 19.9094 28.7786 19.8737 28.8262 19.8561C28.8737 19.8385 28.9264 19.8405 28.9724 19.8617C29.0185 19.8829 29.0543 19.9215 29.0719 19.9691C29.2405 20.4032 29.6172 21.4579 29.4307 21.7916C29.4077 21.8307 29.376 21.8641 29.3381 21.889C29.3001 21.9139 29.2569 21.9296 29.2118 21.9351C29.0882 21.9524 28.9636 21.962 28.8387 21.9638Z" fill="#231F20"/>
<path id="Vector_29" d="M27.7388 20.4953C27.7415 20.2516 27.6634 20.0531 27.5643 20.052C27.4653 20.051 27.3828 20.2476 27.3801 20.4913C27.3774 20.735 27.4555 20.9334 27.5546 20.9345C27.6537 20.9356 27.7362 20.739 27.7388 20.4953Z" fill="#231F20"/>
<path id="Vector_30" d="M30.1113 20.4374C30.1139 20.1937 30.0358 19.9953 29.9368 19.9942C29.8377 19.9931 29.7552 20.1898 29.7525 20.4335C29.7499 20.6771 29.828 20.8756 29.927 20.8767C30.0261 20.8778 30.1086 20.6811 30.1113 20.4374Z" fill="#231F20"/>
<path id="Vector_31" d="M31.8775 26.8823C31.8775 27.5998 31.9313 29.06 30.3851 31.7722L28.8855 30.1255C29.2694 29.408 30.2595 28.9165 30.3385 26.3442C30.3385 26.2796 30.3385 26.2186 30.3385 26.154C30.3574 26.1426 30.378 26.1342 30.3995 26.1289C30.9627 25.885 31.7986 26.3155 31.8775 26.6168C31.8856 26.7052 31.8856 26.794 31.8775 26.8823Z" fill="white"/>
<path id="Vector_32" d="M30.3851 31.9551C30.3596 31.9556 30.3343 31.9507 30.3109 31.9408C30.2874 31.9309 30.2662 31.9162 30.2488 31.8977L28.7312 30.251C28.7053 30.2229 28.6887 30.1876 28.6836 30.1497C28.6784 30.1118 28.6851 30.0733 28.7025 30.0394C28.8051 29.8492 28.9252 29.6691 29.0613 29.5012C29.5061 28.938 30.0586 28.2384 30.116 26.337C30.1193 26.276 30.1193 26.215 30.116 26.154C30.1156 26.1221 30.1237 26.0907 30.1394 26.0629C30.1552 26.0352 30.1781 26.0121 30.2057 25.9962C30.2359 25.9776 30.2685 25.9631 30.3026 25.9531C30.4937 25.8877 30.6962 25.8625 30.8975 25.8792C31.0988 25.8959 31.2944 25.954 31.4721 26.05C31.612 26.1181 31.9493 26.3047 32.0174 26.5702C32.0343 26.6745 32.0403 26.7803 32.0354 26.8859V26.9863C32.0354 27.7684 32.0354 29.2322 30.5142 31.8618C30.5006 31.8878 30.4806 31.91 30.4562 31.9263C30.4317 31.9426 30.4036 31.9525 30.3743 31.9551H30.3851ZM29.0936 30.1003L30.3456 31.46C31.6802 29.0492 31.6874 27.711 31.6946 26.9827V26.8823C31.7009 26.8083 31.7009 26.7339 31.6946 26.6599C31.6053 26.5348 31.4802 26.4398 31.3358 26.3872C31.0816 26.2519 30.7862 26.2161 30.5071 26.2868C30.5053 26.3082 30.5053 26.3298 30.5071 26.3513C30.4425 28.3747 29.8218 29.1604 29.3698 29.7344C29.2658 29.8636 29.1725 29.9891 29.0936 30.1003Z" fill="#231F20"/>
<path id="Vector_33" d="M28.7312 30.1398L27.0666 31.7829C25.2369 30.5201 25.6028 26.8464 25.6602 26.6276C25.7321 26.4683 25.8597 26.3408 26.019 26.2688C26.1922 26.1583 26.3893 26.0905 26.5939 26.0712C26.7986 26.0518 27.0048 26.0815 27.1957 26.1576V26.1971C27.2675 28.8663 28.3366 29.4008 28.7312 30.1398Z" fill="white"/>
<path id="Vector_34" d="M27.0665 31.9551C27.0282 31.9554 26.9907 31.9442 26.9589 31.9228C24.9427 30.5309 25.4737 26.6061 25.4844 26.5702C25.567 26.3676 25.7216 26.2028 25.9185 26.1074C26.1184 25.9816 26.3455 25.9055 26.5808 25.8855C26.8161 25.8656 27.0528 25.9023 27.271 25.9926C27.301 26.0086 27.3261 26.0324 27.3438 26.0614C27.3614 26.0904 27.371 26.1236 27.3715 26.1576V26.1971C27.4217 28.1666 28.0136 28.9093 28.4908 29.5048C28.6384 29.6761 28.7694 29.8611 28.8818 30.0573C28.9005 30.0925 28.9074 30.1326 28.9016 30.172C28.8958 30.2114 28.8776 30.2479 28.8495 30.2761L27.1849 31.9085C27.1518 31.9369 27.1101 31.9534 27.0665 31.9551ZM26.0979 26.4303C25.9914 26.4819 25.9018 26.5628 25.8396 26.6635C25.7571 26.9935 25.5024 30.2869 27.0486 31.5282L28.4836 30.0932C28.4047 29.9712 28.3078 29.8492 28.2002 29.7129C27.7195 29.1174 27.0701 28.303 26.9984 26.2581C26.6889 26.1896 26.3649 26.2436 26.0943 26.4087L26.0979 26.4303Z" fill="#231F20"/>
<path id="Vector_35" d="M29.2836 22.4301H28.4155C28.4155 22.4301 28.315 23.9835 28.8495 23.8185C29.2836 23.6822 29.3949 23.0005 29.2836 22.4301Z" fill="#231F20"/>
<path id="Vector_36" d="M24.7812 26.3441C24.6305 25.8778 14.0723 31.6717 12.1781 32.9489C10.2838 34.226 7.79407 43.7116 7.79407 43.7116L11.7834 43.9053C11.7834 43.9053 14.8939 36.4467 16.2858 35.2377C17.6778 34.0287 23.6045 31.7721 23.6045 31.7721L24.7812 26.3441Z" fill="#68E1FD"/>
<path id="Vector_37" d="M80.0154 10.9105C80.1462 10.5506 80.213 10.1705 80.2127 9.78756C80.1446 9.4288 79.8827 8.76151 80.0154 8.35253C80.1481 7.94355 80.6073 6.66637 81.1383 6.69866C81.6693 6.73095 83.2514 7.16146 83.4164 7.95431C83.5814 8.74716 81.9814 12.7939 81.9814 12.7939L80.0154 10.9105Z" fill="white"/>
<path id="Vector_38" d="M81.9815 12.9733C81.9348 12.9728 81.89 12.9549 81.8559 12.923L79.9079 11.0396C79.8836 11.0159 79.8663 10.9859 79.8581 10.9529C79.8499 10.92 79.8509 10.8854 79.8613 10.853C79.9877 10.5231 80.0534 10.1731 80.055 9.81979C80.037 9.72651 80.0083 9.61889 79.9761 9.49691C79.8306 9.10888 79.7909 8.68912 79.8613 8.28072C79.9904 7.8538 80.4676 6.45465 81.1671 6.48694C81.6263 6.51564 83.413 6.93897 83.6103 7.88609C83.7825 8.70764 82.3151 12.4244 82.1465 12.8441C82.1362 12.8721 82.1189 12.897 82.0963 12.9164C82.0737 12.9359 82.0466 12.9493 82.0174 12.9553L81.9815 12.9733ZM80.238 10.8602L81.9133 12.4782C82.5448 10.8602 83.3663 8.4888 83.2587 7.97219C83.1259 7.32643 81.6981 6.89592 81.1456 6.86005C80.855 6.86005 80.4281 7.62061 80.2021 8.38476C80.1589 8.72896 80.1995 9.07851 80.3205 9.40363C80.3563 9.53637 80.3886 9.65476 80.4066 9.76239C80.4156 10.1369 80.3523 10.5097 80.22 10.8602H80.238Z" fill="#231F20"/>
<path id="Vector_39" d="M77.5759 6.19637L86.5915 10.7992L89.8239 4.53174L80.733 0.187195L77.5759 6.19637Z" fill="white"/>
<path id="Vector_40" d="M86.5915 10.975C86.5626 10.9752 86.5341 10.9678 86.509 10.9535L77.4934 6.3614C77.4715 6.35061 77.4519 6.33552 77.4359 6.31704C77.4199 6.29855 77.4077 6.27704 77.4002 6.25377C77.3905 6.23109 77.3855 6.20668 77.3855 6.18202C77.3855 6.15736 77.3905 6.13296 77.4002 6.11027L80.5536 0.101092C80.5752 0.0579628 80.6129 0.0250982 80.6586 0.00964602C80.7043 -0.00580613 80.7543 -0.00259656 80.7976 0.0185772L89.8885 4.36312C89.9112 4.37335 89.9316 4.3882 89.9483 4.40673C89.9649 4.42526 89.9776 4.44706 89.9853 4.47075C89.995 4.49344 90 4.51784 90 4.5425C90 4.56716 89.995 4.59157 89.9853 4.61425L86.7565 10.8817C86.7402 10.9109 86.7161 10.935 86.687 10.9514C86.658 10.9679 86.6249 10.976 86.5915 10.975ZM77.8271 6.11745L86.5126 10.5481L89.5728 4.61425L80.8155 0.431148L77.8271 6.11745Z" fill="#231F20"/>
<path id="Vector_41" d="M53.5679 10.9105C53.4353 10.551 53.3684 10.1707 53.3705 9.78756C53.4351 9.4288 53.7006 8.76151 53.5679 8.35253C53.4351 7.94355 52.9723 6.66637 52.4449 6.69866C51.9176 6.73095 50.3319 7.16146 50.1668 7.95431C50.0018 8.74716 51.6198 12.8119 51.6198 12.8119L53.5679 10.9105Z" fill="white"/>
<g id="Group">
<path id="Vector_42" d="M51.6198 12.9733H51.5804C51.5517 12.9661 51.5251 12.9523 51.5026 12.933C51.4802 12.9137 51.4626 12.8894 51.4512 12.8621C51.2862 12.4423 49.8189 8.72562 49.9911 7.90407C50.1884 6.95695 51.9714 6.53362 52.4342 6.50492C53.1266 6.45469 53.6073 7.85743 53.7401 8.2987C53.8067 8.70723 53.7672 9.12603 53.6253 9.51489C53.593 9.63686 53.5643 9.74449 53.5464 9.83777C53.5476 10.1908 53.612 10.5407 53.7365 10.871C53.7486 10.9029 53.751 10.9376 53.7433 10.9708C53.7356 11.004 53.7183 11.0342 53.6934 11.0575L51.7454 12.941C51.7087 12.9664 51.6642 12.9779 51.6198 12.9733ZM52.4665 6.87444C51.914 6.91031 50.4862 7.34082 50.3534 7.98658C50.2458 8.50319 51.0709 10.8566 51.6988 12.4926L53.3742 10.8746C53.2453 10.521 53.188 10.1455 53.2055 9.7696C53.2235 9.66915 53.2558 9.55076 53.2881 9.41085C53.409 9.08573 53.4497 8.73618 53.4064 8.39198C53.1661 7.63141 52.7571 6.86008 52.4665 6.86008V6.87444Z" fill="#231F20"/>
<path id="Vector_43" d="M76.3957 85.8009C76.428 85.9014 76.0979 88.9401 76.3957 89.4352C76.6935 89.9302 79.5994 91.3509 80.8551 90.4253C82.1107 89.4997 81.1528 88.7176 80.8551 88.2728C80.5573 87.8279 79.3016 85.1157 79.3016 85.1157L76.3957 85.8009Z" fill="#231F20"/>
<path id="Vector_44" d="M79.7429 90.9097C79.4669 90.9074 79.1918 90.8785 78.9213 90.8236C77.7589 90.5904 76.4746 89.9159 76.2414 89.5284C76.0082 89.141 76.0656 88.0575 76.1876 86.357C76.1876 86.1167 76.2199 85.8691 76.2199 85.8261C76.21 85.806 76.2049 85.7839 76.2049 85.7615C76.2049 85.7391 76.21 85.717 76.2199 85.6969C76.2487 85.6587 76.2911 85.633 76.3383 85.6252L79.2478 84.9328C79.2882 84.9232 79.3307 84.928 79.368 84.9464C79.4053 84.9647 79.4351 84.9954 79.4523 85.0332C79.4523 85.0583 80.7043 87.7347 80.9913 88.1688C81.0393 88.2395 81.0908 88.3077 81.1456 88.3732C81.3061 88.5319 81.4327 88.7215 81.5178 88.9306C81.6029 89.1396 81.6447 89.3638 81.6407 89.5894C81.5989 89.7915 81.5158 89.9828 81.3967 90.1514C81.2775 90.3199 81.1249 90.462 80.9483 90.5688C80.5924 90.8066 80.1706 90.9259 79.7429 90.9097ZM76.575 85.9552C76.575 86.0449 76.575 86.1777 76.5463 86.3929C76.4925 87.1104 76.3598 89.0334 76.5463 89.3526C76.6934 89.6038 77.8307 90.2495 78.9895 90.4827C79.5276 90.5904 80.2666 90.6442 80.7438 90.2926C80.8821 90.2113 81.0026 90.1031 81.0981 89.9743C81.1936 89.8454 81.2623 89.6987 81.2999 89.5428C81.287 89.1852 81.1351 88.8466 80.8765 88.5993C80.812 88.5167 80.751 88.4378 80.7043 88.3697C80.4389 87.9643 79.463 85.8584 79.2011 85.3202L76.575 85.9552Z" fill="#231F20"/>
<path id="Vector_45" d="M54.411 84.4628C54.411 84.4628 51.932 88.5778 52.3302 89.6648C52.7284 90.7518 56.3447 89.8155 57.0371 89.0226C57.7295 88.2298 57.7797 83.4224 57.7797 83.4224L54.411 84.4628Z" fill="#231F20"/>
<path id="Vector_46" d="M53.532 90.3393C53.348 90.3412 53.1642 90.3256 52.9831 90.2926C52.8076 90.2816 52.6385 90.223 52.4937 90.1232C52.349 90.0233 52.2342 89.8859 52.1616 89.7258C51.749 88.5885 53.9984 84.8001 54.2567 84.3695C54.2799 84.3322 54.3154 84.3043 54.3572 84.2906L57.7259 83.2502C57.7531 83.2416 57.7821 83.2397 57.8102 83.2445C57.8384 83.2494 57.8649 83.2609 57.8878 83.2781C57.9106 83.2953 57.9289 83.3177 57.9414 83.3434C57.9538 83.3691 57.9598 83.3975 57.9591 83.426C57.9591 83.9247 57.8873 88.3195 57.1734 89.141C56.6712 89.7114 54.8343 90.3393 53.532 90.3393ZM54.5294 84.5991C53.5536 86.2279 52.2333 88.8576 52.4988 89.5895C52.5598 89.7581 52.7428 89.8693 53.0477 89.9267C54.167 90.1384 56.3985 89.4639 56.9008 88.8899C57.403 88.3159 57.568 85.1193 57.5967 83.652L54.5294 84.5991Z" fill="#231F20"/>
<path id="Vector_47" d="M61.0516 44.4758C61.0516 44.4758 57.6326 63.8989 56.542 68.656C55.4514 73.4131 53.4711 85.1086 53.4711 85.1086C53.4711 85.1086 55.0568 86.1848 57.6327 85.5032L67.1828 55.8699L76.1517 86.2961L80.0155 85.4063L73.687 45.8283L61.0516 44.4758Z" fill="#231F20"/>
<path id="Vector_48" d="M76.166 86.4754C76.127 86.476 76.089 86.4636 76.0578 86.4402C76.0266 86.4169 76.0041 86.3838 75.9938 86.3462L67.1755 56.4797L57.8012 85.5605C57.7923 85.5885 57.7765 85.6137 57.7551 85.6338C57.7338 85.6539 57.7077 85.6682 57.6792 85.6753C55.0531 86.3929 53.4351 85.3166 53.3741 85.2556C53.346 85.2358 53.324 85.2085 53.3107 85.1768C53.2973 85.145 53.2932 85.1102 53.2988 85.0762C53.3203 84.9614 55.2935 73.3233 56.3734 68.6165C57.4532 63.9096 60.8471 44.6371 60.8829 44.4434C60.89 44.3986 60.9142 44.3584 60.9502 44.331C60.9863 44.3035 61.0316 44.2911 61.0767 44.2963L73.7121 45.6488C73.7513 45.6531 73.788 45.6702 73.8166 45.6974C73.8451 45.7246 73.8639 45.7605 73.8699 45.7995L80.2128 85.3776C80.2202 85.4222 80.2102 85.4679 80.1849 85.5053C80.1595 85.5428 80.1206 85.569 80.0764 85.5785L76.2126 86.4718L76.166 86.4754ZM67.1971 55.6904C67.2353 55.6912 67.2722 55.7041 67.3025 55.7274C67.3329 55.7506 67.355 55.7829 67.3657 55.8196L76.2987 86.0843L79.8361 85.2664L73.5327 45.9932L61.1986 44.6694C60.8614 46.5744 57.7402 64.2217 56.7178 68.7061C55.6953 73.1906 53.88 83.7739 53.6683 85.026C54.0271 85.2341 55.4334 85.8906 57.4927 85.3668L67.0141 55.8196C67.0243 55.7826 67.0462 55.75 67.0767 55.7267C67.1071 55.7034 67.1444 55.6906 67.1827 55.6904H67.1971Z" fill="#231F20"/>
</g>
<path id="Vector_49" d="M82.7385 11.2728C81.8129 14.7743 75.8001 30.1577 75.3373 31.2161C74.8745 32.2744 75.2727 46.4238 75.2727 46.4238C71.4376 48.8705 60.4704 47.8086 60.2731 47.3494C60.0758 46.8902 60.3413 37.1714 60.0112 35.3239C59.6812 33.4763 50.7697 11.6028 50.7697 11.6028L53.9411 10.5481L57.2273 17.6335C57.2273 17.6335 61.1234 24.2239 62.049 24.884C62.3774 25.0848 62.7439 25.2155 63.1252 25.2679C64.0439 25.4191 64.9749 25.4828 65.9056 25.458C67.7496 25.9854 70.0134 25.2679 71.2511 24.6652C71.4784 24.5618 71.6978 24.4419 71.9076 24.3064C72.7615 23.7073 79.829 10.5481 79.829 10.5481L82.7385 11.2728Z" fill="#68E1FD"/>
<path id="Vector_50" d="M71.2474 24.6652L67.2724 40.1455L63.1216 25.2679C64.0403 25.4191 64.9712 25.4828 65.9019 25.458C67.746 25.9854 70.0097 25.2679 71.2474 24.6652Z" fill="#231F20"/>
<path id="Vector_51" d="M67.2724 40.3249C67.2336 40.3249 67.1959 40.3123 67.1648 40.289C67.1338 40.2658 67.1111 40.233 67.1002 40.1958L62.9674 25.3253C62.9592 25.2956 62.9585 25.2643 62.9654 25.2342C62.9723 25.2042 62.9865 25.1763 63.0068 25.1531C63.0274 25.1297 63.054 25.1123 63.0837 25.1029C63.1134 25.0934 63.1451 25.0921 63.1754 25.0993C64.0812 25.247 64.9989 25.3095 65.9163 25.2858H65.9701C67.6455 25.7666 69.7658 25.1961 71.1865 24.5037C71.2175 24.4903 71.2515 24.4858 71.285 24.4905C71.3184 24.4953 71.3498 24.5092 71.3758 24.5308C71.4018 24.5523 71.4214 24.5806 71.4323 24.6126C71.4432 24.6445 71.445 24.6789 71.4376 24.7118L67.4626 40.1922C67.4535 40.2307 67.4314 40.265 67.4001 40.2892C67.3687 40.3133 67.33 40.326 67.2904 40.3249H67.2724ZM63.3727 25.4939L67.2724 39.4531L70.9856 24.9881C69.529 25.6266 67.5236 26.0966 65.8876 25.6374C65.0468 25.6594 64.2056 25.6114 63.3727 25.4939Z" fill="#231F20"/>
<path id="Vector_52" d="M70.3864 20.0839C70.4311 19.9665 70.4694 19.8467 70.5012 19.7251C71.1326 17.404 70.2034 14.4191 67.4697 14.2325C66.8438 14.2065 66.2233 14.3585 65.6804 14.6709C65.1375 14.9834 64.6943 15.4434 64.4023 15.9976C63.6166 17.3645 63.8355 19.1116 63.979 20.6148C63.9795 20.7146 64.0094 20.8119 64.0651 20.8947C64.2229 21.0776 64.5279 20.9556 64.7288 20.9521C65.0194 20.9521 65.3243 20.9951 65.6149 21.013C66.1243 21.0382 66.6302 21.0561 67.136 21.0453C67.8684 21.0771 68.6021 21.0567 69.3316 20.9843C69.6401 20.9341 69.8518 20.9341 70.0491 20.683C70.1965 20.5051 70.3107 20.3021 70.3864 20.0839Z" fill="white"/>
<path id="Vector_53" d="M68.2411 21.2211H67.7891H67.1505C66.7057 21.2211 66.2178 21.2211 65.6186 21.1888L65.2599 21.1601C65.0841 21.1601 64.9011 21.1243 64.7289 21.1279H64.5746C64.4898 21.1673 64.3963 21.1843 64.3031 21.1772C64.2098 21.1701 64.1199 21.1391 64.0421 21.0872C63.9643 21.0353 63.9011 20.9643 63.8587 20.8809C63.8162 20.7976 63.7959 20.7047 63.7997 20.6112V20.4032C63.6526 18.9215 63.4876 17.2389 64.2625 15.8864C64.5728 15.3067 65.0404 14.8264 65.6116 14.5008C66.1829 14.1752 66.8344 14.0175 67.4913 14.046C68 14.0737 68.4956 14.2175 68.9402 14.4662C69.3848 14.7149 69.7666 15.062 70.0565 15.481C70.4602 16.1131 70.725 16.8238 70.8333 17.5661C70.9415 18.3083 70.8907 19.065 70.6843 19.7861C70.6508 19.9076 70.6113 20.0273 70.5659 20.1449C70.4833 20.3754 70.362 20.5901 70.2071 20.7799C70.1195 20.8868 70.0103 20.9739 69.8866 21.0358C69.763 21.0976 69.6277 21.1326 69.4896 21.1386H69.382C69.0046 21.1969 68.623 21.2245 68.2411 21.2211ZM67.3407 20.8624H67.7963C68.303 20.8838 68.8107 20.8622 69.3138 20.7978H69.425C69.5202 20.8002 69.6147 20.7818 69.702 20.744C69.7894 20.7062 69.8675 20.6499 69.9309 20.579C70.0557 20.4188 70.1538 20.2395 70.2215 20.048C70.2609 19.9332 70.2968 19.8148 70.3291 19.6892C70.5211 19.0201 70.5689 18.3179 70.4694 17.629C70.3698 16.94 70.1251 16.28 69.7515 15.6927C69.4914 15.3195 69.1492 15.011 68.7511 14.7908C68.3531 14.5706 67.9098 14.4447 67.4555 14.4227C66.8693 14.4019 66.2892 14.5468 65.7816 14.8405C65.274 15.1343 64.8594 15.5652 64.5854 16.0837C63.8679 17.3394 64.0257 18.9538 64.1657 20.3888L64.1872 20.5969C64.1883 20.6591 64.203 20.7203 64.2302 20.7763C64.2769 20.8301 64.3917 20.8193 64.5531 20.7763L64.754 20.7548C64.9442 20.7548 65.1343 20.7548 65.3209 20.787L65.6545 20.8157C66.2465 20.8444 66.7308 20.8552 67.1649 20.848L67.3407 20.8624Z" fill="#231F20"/>
<path id="Vector_54" d="M65.0303 20.3673C64.8868 19.2121 62.9925 18.8641 63.0392 20.2202C63.0398 20.6901 63.2033 21.1453 63.502 21.5081C63.6544 21.6868 63.8565 21.8163 64.0825 21.8802C64.3086 21.944 64.5485 21.9394 64.772 21.8669" fill="white"/>
<path id="Vector_55" d="M64.4024 22.0965C64.2061 22.0935 64.0125 22.0503 63.8335 21.9695C63.6545 21.8886 63.4941 21.7719 63.3621 21.6266C63.0331 21.2331 62.8528 20.7366 62.8526 20.2238C62.8312 20.095 62.8373 19.9631 62.8705 19.8367C62.9037 19.7104 62.9633 19.5926 63.0453 19.4909C63.1273 19.3893 63.2299 19.3061 63.3463 19.2469C63.4627 19.1877 63.5904 19.1539 63.7208 19.1475C64.0703 19.1226 64.4164 19.2296 64.6907 19.4475C64.965 19.6654 65.1477 19.9782 65.2025 20.3243C65.2055 20.3478 65.2039 20.3718 65.1977 20.3947C65.1916 20.4176 65.1809 20.4391 65.1664 20.4579C65.1519 20.4768 65.1339 20.4925 65.1133 20.5044C65.0927 20.5162 65.07 20.5239 65.0464 20.527C65.0229 20.53 64.9989 20.5284 64.976 20.5222C64.9531 20.516 64.9316 20.5054 64.9127 20.4909C64.8939 20.4764 64.8781 20.4584 64.8663 20.4378C64.8545 20.4172 64.8468 20.3945 64.8437 20.3709C64.7992 20.117 64.6626 19.8883 64.46 19.7288C64.2575 19.5693 64.0032 19.4901 63.7459 19.5063C63.5378 19.5063 63.1898 19.6355 63.2078 20.1951C63.205 20.6279 63.3563 21.0476 63.6347 21.379C63.7648 21.5292 63.9364 21.6376 64.1278 21.6905C64.3193 21.7435 64.5222 21.7387 64.711 21.6768C64.7548 21.6599 64.8035 21.6605 64.847 21.6785C64.8904 21.6966 64.9252 21.7306 64.9442 21.7736C64.9612 21.818 64.9607 21.8672 64.9427 21.9113C64.9247 21.9553 64.8906 21.9907 64.8473 22.0104C64.706 22.0678 64.5549 22.097 64.4024 22.0965Z" fill="#231F20"/>
<path id="Vector_56" d="M69.1595 20.3673C69.303 19.2121 71.2009 18.8641 71.1542 20.2202C71.1541 20.6908 70.9891 21.1466 70.6878 21.5081C70.5362 21.6869 70.3348 21.8165 70.1093 21.8804C69.8838 21.9443 69.6443 21.9396 69.4214 21.8669" fill="white"/>
<path id="Vector_57" d="M69.7837 22.0965C69.6365 22.0974 69.4905 22.0706 69.3532 22.0175C69.3093 21.9986 69.2746 21.9631 69.2565 21.9189C69.2384 21.8746 69.2383 21.8251 69.2563 21.7808C69.2746 21.7371 69.3093 21.7025 69.353 21.6844C69.3967 21.6662 69.4457 21.666 69.4895 21.6839C69.6783 21.7454 69.8811 21.7499 70.0725 21.697C70.2639 21.644 70.4354 21.5359 70.5658 21.3861C70.8363 21.0551 70.9834 20.6405 70.982 20.213C70.9999 19.6533 70.6519 19.5421 70.4438 19.5242C70.1867 19.5087 69.9328 19.5883 69.7305 19.7477C69.5281 19.907 69.3913 20.1352 69.346 20.3888C69.3398 20.4359 69.3151 20.4785 69.2775 20.5074C69.2398 20.5364 69.1922 20.5492 69.1451 20.5431C69.1216 20.5404 69.0989 20.5331 69.0783 20.5215C69.0577 20.5098 69.0397 20.4942 69.0253 20.4754C69.0109 20.4567 69.0004 20.4352 68.9945 20.4123C68.9886 20.3894 68.9873 20.3655 68.9909 20.3421C69.0457 19.9961 69.2283 19.6832 69.5026 19.4654C69.777 19.2475 70.1231 19.1405 70.4725 19.1654C70.603 19.1718 70.7306 19.2056 70.847 19.2648C70.9635 19.324 71.0661 19.4071 71.1481 19.5088C71.2301 19.6104 71.2896 19.7283 71.3228 19.8546C71.356 19.9809 71.3621 20.1129 71.3407 20.2417C71.3407 20.7552 71.159 21.2521 70.8277 21.6444C70.6937 21.787 70.5319 21.9006 70.3524 21.9783C70.1729 22.0561 69.9793 22.0963 69.7837 22.0965Z" fill="#231F20"/>
<path id="Vector_58" d="M64.8867 26.1074C65.6403 26.4324 66.4518 26.6021 67.2725 26.6061C68.7721 26.6599 69.0268 26.2473 69.0268 26.2473L68.9909 25.4437L68.9084 23.571L68.8295 21.8238L65.3962 21.7054L65.2311 23.1405L65.1809 23.5997L64.8867 26.1074Z" fill="white"/>
<path id="Vector_59" d="M67.5236 26.789H67.2724C66.4276 26.7847 65.5925 26.6077 64.8185 26.2688C64.7858 26.2527 64.7588 26.2267 64.7414 26.1946C64.7241 26.1624 64.7172 26.1257 64.7217 26.0894L65.2239 21.6911C65.2285 21.6463 65.25 21.6051 65.284 21.5757C65.318 21.5464 65.362 21.5311 65.4069 21.5332L68.8402 21.6516C68.8854 21.6541 68.9282 21.6729 68.9605 21.7046C68.9929 21.7363 69.0126 21.7787 69.016 21.8238L69.2133 26.2473C69.2149 26.283 69.2048 26.3182 69.1846 26.3477C69.1236 26.4231 68.8259 26.789 67.5236 26.789ZM65.0768 25.9961C65.7779 26.2668 66.521 26.4125 67.2724 26.4267C68.3487 26.4625 68.729 26.258 68.8366 26.1791L68.6501 21.9996L65.5468 21.892L65.0768 25.9961Z" fill="#231F20"/>
<path id="Vector_60" d="M65.1737 23.5889C65.4418 24.0158 65.8116 24.3695 66.25 24.6185C66.9675 25.0526 68.0617 25.5513 68.9658 25.4472L68.8833 23.5745C68.2273 23.6359 67.5664 23.6215 66.9137 23.5315C66.3315 23.4879 65.7593 23.356 65.2168 23.1404L65.1737 23.5889Z" fill="#231F20"/>
<path id="Vector_61" d="M68.729 25.641C67.7711 25.641 66.7379 25.11 66.1746 24.7728C65.7048 24.5174 65.3074 24.1471 65.0194 23.6965C64.9987 23.6647 64.9898 23.6266 64.9943 23.5889L65.0446 23.1261C65.0482 23.0981 65.0582 23.0712 65.0737 23.0476C65.0892 23.024 65.1099 23.0042 65.1342 22.9898C65.1597 22.9766 65.188 22.9697 65.2168 22.9697C65.2455 22.9697 65.2738 22.9766 65.2993 22.9898C65.8255 23.1923 66.3796 23.3133 66.9424 23.3485C67.5836 23.4447 68.2341 23.4627 68.8797 23.4023C68.9041 23.4 68.9288 23.4026 68.9522 23.41C68.9756 23.4174 68.9973 23.4294 69.016 23.4454C69.0351 23.4613 69.0507 23.481 69.0619 23.5032C69.073 23.5254 69.0793 23.5497 69.0806 23.5745L69.1631 25.4437C69.1652 25.489 69.1501 25.5334 69.1208 25.568C69.0916 25.6026 69.0502 25.6248 69.0052 25.6302C68.9134 25.6392 68.8212 25.6427 68.729 25.641ZM65.3567 23.5494C65.6143 23.9296 65.9586 24.2432 66.3612 24.4643C66.7989 24.7262 67.8716 25.3109 68.7972 25.2786L68.729 23.7719C68.1169 23.8097 67.5026 23.7844 66.8957 23.6965C66.3785 23.6526 65.8681 23.5491 65.3746 23.388L65.3567 23.5494Z" fill="#231F20"/>
<path id="Vector_62" d="M70.1031 17.2533L69.956 21.4185C69.9525 21.5964 69.9284 21.7734 69.8842 21.9458C69.7418 22.5347 69.4007 23.0564 68.9184 23.423C68.4361 23.7896 67.8421 23.9787 67.2366 23.9585H66.9281C66.36 23.9384 65.8136 23.735 65.3707 23.3787C64.9277 23.0224 64.612 22.5323 64.4706 21.9817C64.4086 21.738 64.3808 21.4869 64.3881 21.2355L64.5352 17.0739C64.5352 17.0739 65.1845 17.9313 67.0465 17.9134C68.1013 17.9188 69.1445 17.6935 70.1031 17.2533Z" fill="white"/>
<path id="Vector_63" d="M67.3264 24.1378H67.2295H66.921C66.3144 24.1142 65.7315 23.896 65.2586 23.5154C64.7856 23.1349 64.4477 22.6122 64.2949 22.0247C64.2299 21.7644 64.2009 21.4964 64.2088 21.2283L64.3559 17.0631C64.3563 17.0263 64.3684 16.9905 64.3903 16.9609C64.4122 16.9313 64.4428 16.9093 64.4778 16.8981C64.5134 16.887 64.5514 16.8873 64.5868 16.8989C64.6221 16.9105 64.653 16.9328 64.6752 16.9626C64.6752 16.9626 65.3209 17.7591 67.0465 17.7304C68.0702 17.7391 69.0835 17.5262 70.017 17.1061C70.0443 17.0904 70.0752 17.0821 70.1067 17.0821C70.1382 17.0821 70.1692 17.0904 70.1964 17.1061C70.2227 17.123 70.2442 17.1464 70.2587 17.1741C70.2731 17.2018 70.2801 17.2328 70.2789 17.264L70.1426 21.4256C70.1387 21.6156 70.1135 21.8045 70.0673 21.9888C69.9165 22.6019 69.5645 23.1467 69.0677 23.5363C68.5708 23.9258 67.9577 24.1376 67.3264 24.1378ZM64.7003 17.4506L64.5675 21.2319C64.5453 21.8822 64.7822 22.5147 65.2262 22.9903C65.6703 23.466 66.285 23.7458 66.9353 23.7683H67.2439C67.8073 23.7849 68.3594 23.6081 68.8084 23.2674C69.2574 22.9267 69.5763 22.4426 69.7121 21.8956C69.7512 21.7333 69.7729 21.5673 69.7767 21.4005L69.913 17.5259C68.999 17.8856 68.0252 18.0694 67.0429 18.0676C66.216 18.1192 65.3945 17.9028 64.7003 17.4506Z" fill="#231F20"/>
<path id="Vector_64" d="M67.3012 19.2264C67.3012 19.2264 68.1658 21.135 67.7819 21.1709C67.4586 21.1567 67.1425 21.0709 66.8563 20.9198" fill="white"/>
<path id="Vector_65" d="M67.7173 21.3467C67.3872 21.3203 67.066 21.2263 66.7738 21.0704C66.7513 21.0604 66.7312 21.0458 66.7146 21.0276C66.6981 21.0094 66.6854 20.9881 66.6775 20.9648C66.6695 20.9415 66.6664 20.9169 66.6684 20.8923C66.6704 20.8678 66.6774 20.844 66.689 20.8223C66.7006 20.8006 66.7165 20.7815 66.7358 20.7662C66.755 20.751 66.7773 20.7398 66.801 20.7335C66.8248 20.7271 66.8496 20.7258 66.8739 20.7294C66.8982 20.7331 66.9215 20.7417 66.9424 20.7547C67.1796 20.8782 67.4373 20.9572 67.7029 20.9879C67.6 20.3987 67.4101 19.8281 67.1397 19.2946C67.1295 19.2735 67.1236 19.2505 67.1224 19.227C67.1212 19.2036 67.1247 19.1801 67.1328 19.158C67.1408 19.136 67.1532 19.1157 67.1691 19.0985C67.1851 19.0813 67.2044 19.0675 67.2258 19.0578C67.2696 19.0383 67.3194 19.0367 67.3643 19.0535C67.4093 19.0703 67.4459 19.104 67.4662 19.1475C67.7496 19.7753 68.1837 20.8803 68.0115 21.2068C67.9895 21.2446 67.9589 21.2767 67.9221 21.3005C67.8853 21.3242 67.8434 21.3388 67.7998 21.3431L67.7173 21.3467Z" fill="#231F20"/>
<path id="Vector_66" d="M66.0814 19.3412C66.1804 19.3412 66.2607 19.1581 66.2607 18.9322C66.2607 18.7064 66.1804 18.5233 66.0814 18.5233C65.9823 18.5233 65.902 18.7064 65.902 18.9322C65.902 19.1581 65.9823 19.3412 66.0814 19.3412Z" fill="#231F20"/>
<path id="Vector_67" d="M68.6644 19.3412C68.7634 19.3412 68.8437 19.1581 68.8437 18.9322C68.8437 18.7064 68.7634 18.5233 68.6644 18.5233C68.5653 18.5233 68.485 18.7064 68.485 18.9322C68.485 19.1581 68.5653 19.3412 68.6644 19.3412Z" fill="#231F20"/>
<path id="Vector_68" d="M52.1472 7.05377C51.8125 7.11737 51.4991 7.26418 51.236 7.48069C50.9669 7.67801 50.6835 7.93631 50.6907 8.26637C50.6895 8.30211 50.7024 8.3369 50.7266 8.36324C50.7577 8.38222 50.7949 8.38863 50.8306 8.38117C51.3203 8.34812 51.7934 8.19002 52.2046 7.92196C51.9945 8.12107 51.8495 8.37905 51.7887 8.66205C51.7279 8.94505 51.7541 9.23982 51.8638 9.50767L51.932 9.5292" fill="white"/>
<path id="Vector_69" d="M51.914 9.71219H51.8602L51.792 9.69066C51.7671 9.68338 51.7442 9.67056 51.7249 9.65317C51.7057 9.63577 51.6906 9.61425 51.6808 9.59021C51.5266 9.20692 51.5266 8.77883 51.6808 8.39555C51.4176 8.49171 51.1423 8.55088 50.8629 8.57134C50.779 8.58284 50.694 8.56093 50.6261 8.51035C50.5949 8.4816 50.5702 8.44662 50.5535 8.40767C50.5368 8.36873 50.5286 8.3267 50.5292 8.28433C50.5461 8.09007 50.6093 7.90269 50.7136 7.73789C50.8178 7.5731 50.96 7.4357 51.1283 7.33722C51.4138 7.09994 51.7564 6.94161 52.1221 6.87801C52.1455 6.87502 52.1692 6.87676 52.1919 6.88313C52.2146 6.88951 52.2358 6.90038 52.2542 6.91511C52.2726 6.92983 52.2879 6.94811 52.2991 6.96886C52.3103 6.9896 52.3172 7.01239 52.3194 7.03586C52.3245 7.08292 52.3107 7.13007 52.2811 7.16703C52.2516 7.20399 52.2086 7.22777 52.1616 7.23318C51.859 7.29391 51.5765 7.42959 51.34 7.62781C51.0422 7.84306 50.8951 8.01885 50.87 8.19823C51.3039 8.15614 51.7212 8.00966 52.0862 7.77131C52.1243 7.74681 52.1703 7.73764 52.2149 7.74562C52.2594 7.75361 52.2994 7.77816 52.3266 7.81436C52.3535 7.84993 52.3663 7.89426 52.3623 7.93871C52.3583 7.98315 52.3379 8.02452 52.3051 8.05473C52.1313 8.21902 52.0082 8.42966 51.9503 8.66171C51.8924 8.89377 51.9023 9.13754 51.9786 9.36419C52.0204 9.38177 52.0542 9.41426 52.0735 9.45536C52.0927 9.49647 52.096 9.54325 52.0826 9.58662C52.0708 9.62235 52.0483 9.65357 52.0182 9.67604C51.988 9.69851 51.9516 9.71113 51.914 9.71219Z" fill="#231F20"/>
<path id="Vector_70" d="M67.6312 22.0391L66.6518 21.709C66.6518 21.709 66.2356 22.6346 66.7738 22.9575C67.3119 23.2804 67.6312 22.0391 67.6312 22.0391Z" fill="#231F20"/>
<path id="Vector_71" d="M80.5249 7.88254C80.5674 7.82561 80.6212 7.77807 80.683 7.74288C80.7447 7.7077 80.813 7.68563 80.8837 7.67804C81.1558 7.61144 81.4371 7.59082 81.716 7.61705C81.9961 7.6473 82.2602 7.76247 82.4729 7.94711C82.5196 7.9835 82.5535 8.03374 82.5698 8.09061C82.5741 8.1393 82.5619 8.18801 82.5352 8.22897C82.5086 8.26993 82.469 8.30079 82.4227 8.31663C82.3297 8.34432 82.2321 8.35286 82.1357 8.34174L81.4182 8.29152C81.6281 8.44192 81.8051 8.63358 81.9384 8.85477C82.0029 8.96452 82.0346 9.09052 82.0295 9.21774C82.0244 9.34496 81.9828 9.46803 81.9097 9.57228" fill="white"/>
<path id="Vector_72" d="M81.9169 9.75883C81.8754 9.75831 81.8352 9.74448 81.8021 9.71936C81.766 9.68812 81.7435 9.64398 81.7395 9.59639C81.7355 9.54879 81.7502 9.50151 81.7806 9.46465C81.8299 9.38553 81.856 9.29418 81.856 9.20096C81.856 9.10774 81.8299 9.01639 81.7806 8.93727C81.6565 8.73786 81.4943 8.56477 81.3035 8.42784C81.2749 8.40353 81.2547 8.37089 81.2457 8.3345C81.2366 8.29812 81.2392 8.25982 81.2531 8.22498C81.2669 8.19014 81.2914 8.16052 81.3229 8.14028C81.3545 8.12004 81.3916 8.1102 81.429 8.11213L82.1465 8.16236C82.2153 8.17563 82.2859 8.17563 82.3546 8.16236C82.3697 8.15561 82.3822 8.14432 82.3905 8.13007C82.3786 8.11572 82.3654 8.10251 82.351 8.09061C82.1663 7.93132 81.9372 7.83241 81.6945 7.80719C81.436 7.78208 81.1751 7.80149 80.9232 7.86459C80.8335 7.88253 80.7151 7.9184 80.6792 7.98298C80.6677 8.00371 80.6522 8.02196 80.6336 8.0367C80.615 8.05143 80.5937 8.06236 80.5708 8.06886C80.548 8.07535 80.5241 8.07729 80.5006 8.07456C80.477 8.07183 80.4542 8.06448 80.4335 8.05294C80.4127 8.0414 80.3945 8.02588 80.3798 8.00729C80.365 7.98869 80.3541 7.96737 80.3476 7.94455C80.3411 7.92173 80.3392 7.89786 80.3419 7.87429C80.3446 7.85072 80.352 7.82792 80.3635 7.80719C80.418 7.72671 80.4891 7.65883 80.5721 7.60809C80.655 7.55735 80.7478 7.52493 80.8442 7.51301C81.1363 7.44148 81.4385 7.42085 81.7376 7.45202C82.0522 7.48133 82.3503 7.60656 82.5914 7.81078C82.6689 7.87231 82.7233 7.95831 82.7457 8.05473C82.7577 8.14375 82.7391 8.23422 82.6928 8.31119C82.6464 8.38816 82.5753 8.44703 82.491 8.47807C82.3761 8.51903 82.2529 8.53134 82.1322 8.51394H81.9277C81.9979 8.59649 82.0604 8.68537 82.1142 8.77942C82.1954 8.9225 82.2335 9.08596 82.2239 9.25016C82.2144 9.41436 82.1576 9.57231 82.0604 9.70501C82.0423 9.72445 82.0199 9.73943 81.995 9.74876C81.9701 9.7581 81.9434 9.76155 81.9169 9.75883Z" fill="#231F20"/>
<path id="Vector_73" d="M67.2724 48.8884C67.2248 48.8884 67.1792 48.8695 67.1456 48.8359C67.1119 48.8022 67.093 48.7566 67.093 48.709V40.1455C67.093 40.0979 67.1119 40.0523 67.1456 40.0187C67.1792 39.985 67.2248 39.9661 67.2724 39.9661C67.3197 39.967 67.3648 39.9862 67.3982 40.0197C67.4317 40.0531 67.4509 40.0982 67.4518 40.1455V48.709C67.4509 48.7563 67.4317 48.8014 67.3982 48.8349C67.3648 48.8683 67.3197 48.8875 67.2724 48.8884Z" fill="#231F20"/>
</g>
</svg>
