<svg width="63" height="77" viewBox="0 0 63 77" fill="none" xmlns="http://www.w3.org/2000/svg">
<g id="&#240;&#159;&#166;&#134; illustration &#34;Marketing&#34;">
<path id="Vector" d="M44.3424 14.2084H14.4073C12.1142 14.2084 10.2554 16.0672 10.2554 18.3603V72.4366C10.2554 74.7296 12.1142 76.5885 14.4073 76.5885H44.3424C46.6354 76.5885 48.4942 74.7296 48.4942 72.4366V18.3603C48.4942 16.0672 46.6354 14.2084 44.3424 14.2084Z" fill="#68E1FD"/>
<path id="Vector_2" d="M44.3424 77H14.4073C13.2006 76.9957 12.0447 76.5136 11.1925 75.6591C10.3403 74.8047 9.8613 73.6475 9.86023 72.4407V18.3603C9.86131 17.1514 10.342 15.9924 11.1968 15.1376C12.0516 14.2827 13.2107 13.802 14.4196 13.801H44.3547C45.5639 13.802 46.7234 14.2826 47.5789 15.1373C48.4343 15.992 48.9159 17.151 48.9181 18.3603V72.4407C48.917 73.0405 48.7978 73.6342 48.5673 74.188C48.3367 74.7417 47.9994 75.2446 47.5745 75.668C47.1496 76.0914 46.6455 76.4269 46.091 76.6555C45.5364 76.884 44.9423 77.0011 44.3424 77ZM14.4073 14.6159C13.417 14.6212 12.469 15.0178 11.7699 15.7193C11.0708 16.4207 10.6773 17.37 10.6751 18.3603V72.4407C10.6773 73.4331 11.0725 74.3843 11.7742 75.086C12.476 75.7878 13.4271 76.183 14.4196 76.1851H44.3547C45.3478 76.1841 46.3 75.7893 47.0026 75.0875C47.7053 74.3856 48.101 73.4338 48.1032 72.4407V18.3603C48.101 17.3672 47.7053 16.4154 47.0026 15.7135C46.3 15.0117 45.3478 14.6169 44.3547 14.6159H14.4073Z" fill="#093F68"/>
<path id="Vector_3" d="M10.2554 19.4115H48.4942V67.1602H10.2554V19.4115Z" fill="white"/>
<path id="Vector_4" d="M48.4984 67.5676H10.2677C10.1596 67.5676 10.056 67.5247 9.97957 67.4483C9.90316 67.3718 9.86023 67.2682 9.86023 67.1601V19.4115C9.86023 19.3034 9.90316 19.1998 9.97957 19.1234C10.056 19.047 10.1596 19.004 10.2677 19.004H48.5106C48.6187 19.004 48.7223 19.047 48.7987 19.1234C48.8751 19.1998 48.9181 19.3034 48.9181 19.4115V67.1601C48.9181 67.2147 48.9072 67.2687 48.8859 67.3189C48.8647 67.3692 48.8336 67.4147 48.7944 67.4527C48.7553 67.4907 48.7089 67.5204 48.6581 67.5402C48.6072 67.5599 48.5529 67.5692 48.4984 67.5676ZM10.6629 66.7527H48.091V19.8189H10.6751L10.6629 66.7527Z" fill="#093F68"/>
<path id="Vector_5" d="M33.3944 17.3131H27.2501C27.142 17.3131 27.0384 17.2702 26.962 17.1938C26.8856 17.1174 26.8427 17.0137 26.8427 16.9057C26.8427 16.7976 26.8856 16.694 26.962 16.6176C27.0384 16.5412 27.142 16.4982 27.2501 16.4982H33.3944C33.5025 16.4982 33.6061 16.5412 33.6825 16.6176C33.7589 16.694 33.8018 16.7976 33.8018 16.9057C33.8018 17.0137 33.7589 17.1174 33.6825 17.1938C33.6061 17.2702 33.5025 17.3131 33.3944 17.3131Z" fill="#093F68"/>
<path id="Vector_6" d="M25.3432 17.3131C25.2896 17.3134 25.2364 17.3032 25.1868 17.2829C25.1371 17.2626 25.092 17.2327 25.0539 17.195C24.9967 17.1381 24.9576 17.0656 24.9416 16.9865C24.9257 16.9075 24.9336 16.8254 24.9643 16.7509C24.9849 16.7005 25.0153 16.6548 25.0539 16.6164C25.0914 16.5797 25.1357 16.5507 25.1843 16.5308C25.2589 16.4994 25.3411 16.4909 25.4206 16.5064C25.4476 16.5102 25.4737 16.5184 25.498 16.5308C25.523 16.539 25.5465 16.5514 25.5673 16.5675C25.591 16.5791 25.6119 16.5958 25.6284 16.6164C25.6687 16.6533 25.6995 16.6995 25.718 16.7509C25.7434 16.8126 25.7532 16.8796 25.7466 16.946C25.74 17.0124 25.7172 17.0762 25.6802 17.1317C25.6431 17.1872 25.5931 17.2328 25.5343 17.2644C25.4755 17.2961 25.4099 17.3128 25.3432 17.3131Z" fill="#093F68"/>
<path id="Vector_7" d="M29.3769 73.6589C30.4615 73.6589 31.3407 72.7797 31.3407 71.695C31.3407 70.6104 30.4615 69.7311 29.3769 69.7311C28.2922 69.7311 27.413 70.6104 27.413 71.695C27.413 72.7797 28.2922 73.6589 29.3769 73.6589Z" fill="#093F68"/>
<path id="Vector_8" d="M15.7723 48.8047H1.76427C1.01493 48.8047 0.407471 49.4121 0.407471 50.1615V60.1399C0.407471 60.8892 1.01493 61.4967 1.76427 61.4967H15.7723C16.5216 61.4967 17.1291 60.8892 17.1291 60.1399V50.1615C17.1291 49.4121 16.5216 48.8047 15.7723 48.8047Z" fill="#F56132"/>
<path id="Vector_9" d="M15.7723 61.9041H1.76424C1.29667 61.903 0.848549 61.7168 0.517922 61.3862C0.187295 61.0555 0.00107613 60.6074 0 60.1398V50.1615C0.00107613 49.6939 0.187295 49.2458 0.517922 48.9151C0.848549 48.5845 1.29667 48.3983 1.76424 48.3972H15.7723C16.2398 48.3983 16.688 48.5845 17.0186 48.9151C17.3492 49.2458 17.5354 49.6939 17.5365 50.1615V60.1398C17.5365 60.6077 17.3506 61.0565 17.0198 61.3873C16.6889 61.7182 16.2402 61.9041 15.7723 61.9041ZM1.76424 49.2121C1.51279 49.2132 1.27194 49.3135 1.09414 49.4914C0.91633 49.6692 0.815966 49.91 0.814893 50.1615V60.1398C0.814893 60.2645 0.839449 60.388 0.887158 60.5031C0.934868 60.6183 1.0048 60.723 1.09295 60.8111C1.18111 60.8993 1.28576 60.9692 1.40094 61.0169C1.51612 61.0646 1.63957 61.0892 1.76424 61.0892H15.7723C15.8969 61.0892 16.0204 61.0646 16.1356 61.0169C16.2507 60.9692 16.3554 60.8993 16.4436 60.8111C16.5317 60.723 16.6016 60.6183 16.6493 60.5031C16.6971 60.388 16.7216 60.2645 16.7216 60.1398V50.1615C16.7216 50.0368 16.6971 49.9133 16.6493 49.7982C16.6016 49.683 16.5317 49.5783 16.4436 49.4902C16.3554 49.402 16.2507 49.3321 16.1356 49.2844C16.0204 49.2367 15.8969 49.2121 15.7723 49.2121H1.76424Z" fill="#093F68"/>
<path id="Vector_10" d="M12.3293 55.1527L6.37244 58.8116V51.4897L12.3293 55.1527Z" fill="white"/>
<path id="Vector_11" d="M6.37251 59.219C6.26445 59.219 6.16081 59.1761 6.0844 59.0997C6.00799 59.0233 5.96506 58.9197 5.96506 58.8116V51.4776C5.96344 51.4028 5.9824 51.3291 6.01986 51.2645C6.05732 51.1998 6.11184 51.1467 6.17746 51.1109C6.24308 51.0752 6.31728 51.0582 6.39192 51.0617C6.46656 51.0653 6.53878 51.0894 6.60068 51.1312L12.5575 54.7982C12.6163 54.8349 12.6647 54.886 12.6982 54.9466C12.7317 55.0072 12.7492 55.0753 12.749 55.1446C12.7492 55.2138 12.7317 55.282 12.6982 55.3425C12.6647 55.4031 12.6163 55.4542 12.5575 55.4909L6.60068 59.1579C6.53145 59.1983 6.45266 59.2194 6.37251 59.219ZM6.77995 52.2191V58.0863L11.5512 55.1527L6.77995 52.2191Z" fill="#093F68"/>
<path id="Vector_12" d="M54.3656 54.3908H44.8069C44.5465 54.3908 44.2967 54.4943 44.1126 54.6784C43.9284 54.8626 43.825 55.1123 43.825 55.3728V61.8593C43.825 62.1197 43.9284 62.3695 44.1126 62.5536C44.2967 62.7378 44.5465 62.8413 44.8069 62.8413H46.0781V65.0129L47.7894 62.8413H54.3656C54.4946 62.8413 54.6222 62.8159 54.7414 62.7665C54.8605 62.7172 54.9687 62.6448 55.0599 62.5536C55.1511 62.4625 55.2234 62.3542 55.2728 62.2351C55.3221 62.1159 55.3475 61.9883 55.3475 61.8593V55.3891C55.3497 55.2587 55.3259 55.1293 55.2775 55.0083C55.2292 54.8872 55.1572 54.7771 55.0658 54.6842C54.9744 54.5912 54.8654 54.5174 54.7452 54.4671C54.625 54.4167 54.4959 54.3908 54.3656 54.3908Z" fill="white"/>
<path id="Vector_13" d="M46.0781 65.4366C46.0322 65.4361 45.9868 65.4278 45.9436 65.4122C45.8641 65.3844 45.7952 65.3326 45.7463 65.264C45.6974 65.1954 45.671 65.1134 45.6707 65.0292V63.2649H44.8069C44.4384 63.2649 44.085 63.1185 43.8244 62.858C43.5639 62.5974 43.4175 62.244 43.4175 61.8755V55.389C43.4175 55.0205 43.5639 54.6671 43.8244 54.4065C44.085 54.146 44.4384 53.9996 44.8069 53.9996H54.3656C54.548 53.9996 54.7287 54.0355 54.8973 54.1053C55.0658 54.1752 55.219 54.2775 55.348 54.4065C55.477 54.5355 55.5794 54.6887 55.6492 54.8573C55.719 55.0258 55.755 55.2065 55.755 55.389V61.8755C55.755 62.058 55.719 62.2387 55.6492 62.4072C55.5794 62.5758 55.477 62.729 55.348 62.858C55.219 62.987 55.0658 63.0893 54.8973 63.1592C54.7287 63.229 54.548 63.2649 54.3656 63.2649H47.989L46.4 65.2818C46.3616 65.3303 46.3127 65.3695 46.2569 65.3963C46.2011 65.4232 46.14 65.4369 46.0781 65.4366ZM44.8069 54.7982C44.6545 54.7982 44.5084 54.8587 44.4006 54.9664C44.2929 55.0742 44.2324 55.2203 44.2324 55.3727V61.8592C44.2324 62.0116 44.2929 62.1577 44.4006 62.2655C44.5084 62.3732 44.6545 62.4337 44.8069 62.4337H46.0781C46.1862 62.4337 46.2898 62.4767 46.3662 62.5531C46.4426 62.6295 46.4856 62.7331 46.4856 62.8412V63.8353L47.4716 62.5885C47.5095 62.5405 47.5578 62.5017 47.6128 62.4749C47.6678 62.4481 47.7282 62.434 47.7894 62.4337H54.3656C54.441 62.4337 54.5157 62.4189 54.5854 62.39C54.6551 62.3611 54.7185 62.3188 54.7718 62.2655C54.8252 62.2121 54.8675 62.1488 54.8963 62.0791C54.9252 62.0094 54.9401 61.9347 54.9401 61.8592V55.389C54.9401 55.3135 54.9252 55.2388 54.8963 55.1691C54.8675 55.0994 54.8252 55.0361 54.7718 54.9827C54.7185 54.9294 54.6551 54.8871 54.5854 54.8582C54.5157 54.8293 54.441 54.8145 54.3656 54.8145L44.8069 54.7982Z" fill="#093F68"/>
<path id="Vector_14" d="M52.9354 57.6503H46.2411C46.133 57.6503 46.0294 57.6074 45.953 57.531C45.8765 57.4546 45.8336 57.351 45.8336 57.2429C45.8336 57.1348 45.8765 57.0312 45.953 56.9548C46.0294 56.8784 46.133 56.8354 46.2411 56.8354H52.9354C53.0435 56.8354 53.1471 56.8784 53.2235 56.9548C53.2999 57.0312 53.3429 57.1348 53.3429 57.2429C53.3429 57.351 53.2999 57.4546 53.2235 57.531C53.1471 57.6074 53.0435 57.6503 52.9354 57.6503Z" fill="#DFEAEF"/>
<path id="Vector_15" d="M51.1224 60.0543H46.233C46.1249 60.0543 46.0213 60.0113 45.9449 59.9349C45.8685 59.8585 45.8256 59.7549 45.8256 59.6468C45.8256 59.5388 45.8685 59.4351 45.9449 59.3587C46.0213 59.2823 46.1249 59.2394 46.233 59.2394H51.1224C51.2304 59.2394 51.3341 59.2823 51.4105 59.3587C51.4869 59.4351 51.5298 59.5388 51.5298 59.6468C51.5298 59.7549 51.4869 59.8585 51.4105 59.9349C51.3341 60.0113 51.2304 60.0543 51.1224 60.0543Z" fill="#DFEAEF"/>
<path id="Vector_16" d="M58.7661 37.4044H47.2354C46.4725 37.4044 45.8541 38.0228 45.8541 38.7856V47.1912C45.8541 47.9541 46.4725 48.5725 47.2354 48.5725H58.7661C59.529 48.5725 60.1474 47.9541 60.1474 47.1912V38.7856C60.1474 38.0228 59.529 37.4044 58.7661 37.4044Z" fill="#FFBC0E"/>
<path id="Vector_17" d="M58.7538 48.9799H47.223C46.7493 48.9799 46.295 48.792 45.9597 48.4574C45.6243 48.1229 45.4354 47.669 45.4343 47.1953V38.7856C45.4354 38.3115 45.6242 37.8572 45.9594 37.522C46.2946 37.1868 46.749 36.998 47.223 36.9969H58.7538C59.2278 36.998 59.6822 37.1868 60.0174 37.522C60.3526 37.8572 60.5414 38.3115 60.5425 38.7856V47.1953C60.5414 47.669 60.3524 48.1229 60.0171 48.4574C59.6818 48.792 59.2274 48.9799 58.7538 48.9799ZM47.223 37.8118C46.9647 37.8118 46.7171 37.9144 46.5344 38.097C46.3518 38.2796 46.2492 38.5273 46.2492 38.7856V47.1953C46.2503 47.4528 46.3534 47.6995 46.5359 47.8812C46.7184 48.063 46.9655 48.165 47.223 48.165H58.7538C59.0113 48.165 59.2584 48.063 59.4409 47.8812C59.6234 47.6995 59.7265 47.4528 59.7276 47.1953V38.7856C59.7276 38.5273 59.625 38.2796 59.4423 38.097C59.2597 37.9144 59.012 37.8118 58.7538 37.8118H47.223Z" fill="#093F68"/>
<path id="Vector_18" d="M55.0379 43.7157V41.4666C55.0379 41.2669 54.9401 41.1895 54.7446 41.2466C54.4797 41.324 54.219 41.4055 53.9541 41.491L52.8296 41.8414C52.5321 41.9351 52.2347 42.0207 51.9454 42.1226C51.8608 42.1548 51.7833 42.2033 51.7172 42.2652C51.6787 42.3023 51.6488 42.3475 51.6298 42.3975C51.6108 42.4475 51.6031 42.5011 51.6072 42.5545V45.2232C51.6197 45.4542 51.5681 45.6842 51.458 45.8876C51.348 46.0911 51.1839 46.2602 50.9838 46.3763C50.7791 46.5121 50.5463 46.5999 50.3029 46.633C50.0595 46.6662 49.8117 46.6439 49.5781 46.5678C49.4538 46.5354 49.3385 46.4753 49.2407 46.392C49.1429 46.3087 49.0653 46.2043 49.0135 46.0868C48.9618 45.9692 48.9373 45.8414 48.942 45.713C48.9466 45.5847 48.9802 45.459 49.0403 45.3455C49.2007 45.0184 49.4743 44.7607 49.8104 44.6202C50.0569 44.5075 50.3257 44.4518 50.5968 44.4572C50.7498 44.4565 50.9012 44.4885 51.0409 44.551V44.4695C51.0409 43.4101 51.0409 42.3507 51.0409 41.2914C51.042 41.073 51.1125 40.8606 51.2421 40.6849C51.3717 40.5091 51.5538 40.3791 51.7621 40.3135C52.4303 40.1139 53.0985 39.9061 53.7626 39.7023L54.8505 39.3723C54.9831 39.3302 55.1254 39.3302 55.258 39.3723C55.3477 39.395 55.4286 39.444 55.4903 39.5129C55.552 39.5819 55.5917 39.6677 55.6043 39.7594V39.9224C55.6043 41.4381 55.6043 42.9551 55.6043 44.4735C55.6074 44.645 55.5725 44.8151 55.502 44.9715C55.4316 45.1279 55.3273 45.2668 55.1968 45.3781C55.018 45.5327 54.8092 45.6488 54.5834 45.7189C54.3576 45.789 54.1198 45.8117 53.8848 45.7855C53.6258 45.772 53.3789 45.6715 53.184 45.5003C53.0769 45.4095 52.9959 45.2918 52.9494 45.1593C52.9028 45.0269 52.8924 44.8844 52.9192 44.7465C52.9454 44.5931 53.0017 44.4465 53.085 44.315C53.1682 44.1835 53.2766 44.0698 53.4041 43.9805C53.5803 43.8416 53.7822 43.7388 53.9983 43.6779C54.2143 43.6171 54.4402 43.5995 54.6631 43.6261C54.7802 43.6455 54.8959 43.6727 55.0094 43.7075L55.0379 43.7157Z" fill="white"/>
<path id="Vector_19" d="M36.165 37.1639C32.8158 35.4241 23.1756 44.8484 22.5848 47.7168C22.2466 49.3466 21.3176 59.2597 21.448 67.0868H37.2854L35.9694 55.5764C35.9694 55.5764 42.403 49.8722 43.4542 46.8082C44.5054 43.7442 39.5101 38.9078 36.165 37.1639Z" fill="#FFC9B0"/>
<g id="Group">
<path id="Vector_20" d="M37.2855 67.4942H21.448C21.34 67.4942 21.2363 67.4513 21.1599 67.3749C21.0835 67.2985 21.0406 67.1949 21.0406 67.0868C20.9102 59.2638 21.8351 49.318 22.1855 47.6271C22.7437 44.9054 29.1121 38.9282 32.6895 37.225C34.2459 36.4835 35.4805 36.3368 36.3565 36.7931C39.5183 38.4229 45.027 43.5079 43.8454 46.9345C42.8512 49.8111 37.4281 54.8064 36.4013 55.7313L37.697 67.0338C37.7034 67.091 37.6976 67.1489 37.6801 67.2036C37.6625 67.2584 37.6336 67.3089 37.5951 67.3516C37.5569 67.3964 37.5094 67.4323 37.4559 67.4569C37.4025 67.4815 37.3443 67.4943 37.2855 67.4942ZM21.8473 66.6794H36.8291L35.566 55.6131C35.5582 55.5485 35.566 55.483 35.5887 55.4221C35.6114 55.3611 35.6483 55.3065 35.6964 55.2627C35.7616 55.2057 42.0648 49.5788 43.0712 46.6696C43.9839 44.0253 39.4042 39.2949 35.9776 37.5184C35.3501 37.1924 34.3478 37.3432 33.0399 37.9625C28.8513 39.9508 23.3834 45.8466 22.9841 47.7942C22.6459 49.4403 21.7577 58.9786 21.8473 66.6794Z" fill="#093F68"/>
<path id="Vector_21" d="M43.3645 51.2534L38.3815 54.4152L24.6709 39.5475L29.658 36.3857L43.3645 51.2534Z" fill="#093F68"/>
<path id="Vector_22" d="M38.3815 54.8227C38.325 54.8231 38.269 54.8117 38.2171 54.7892C38.1651 54.7668 38.1185 54.7338 38.08 54.6923L24.3735 39.8205C24.3332 39.7771 24.3029 39.7255 24.2846 39.6692C24.2663 39.6129 24.2605 39.5533 24.2676 39.4945C24.2752 39.4348 24.296 39.3776 24.3284 39.3268C24.3608 39.2761 24.404 39.2332 24.455 39.2012L29.4381 36.0557C29.5183 36.0043 29.6141 35.9827 29.7086 35.9947C29.8031 36.0066 29.8905 36.0512 29.9555 36.1209L43.6783 50.9805C43.7186 51.0238 43.7489 51.0755 43.7672 51.1318C43.7855 51.1881 43.7913 51.2477 43.7843 51.3064C43.7766 51.3661 43.7559 51.4234 43.7235 51.4741C43.6911 51.5249 43.6478 51.5678 43.5968 51.5998L38.6138 54.7575C38.5454 54.8037 38.4639 54.8265 38.3815 54.8227ZM25.3025 39.629L38.4467 53.8896L42.7331 51.172L29.5888 36.9113L25.3025 39.629Z" fill="#093F68"/>
<path id="Vector_23" d="M50.6782 19.004L41.307 26.5947L36.2872 18.6658L47.1498 13.4342C47.8837 13.0829 48.7211 13.0133 49.503 13.2386C50.2849 13.464 50.9568 13.9685 51.3913 14.6566C51.8243 15.3431 51.9909 16.1645 51.8595 16.9656C51.7281 17.7666 51.3079 18.4917 50.6782 19.004Z" fill="#093F68"/>
<path id="Vector_24" d="M41.311 27.0022H41.2458C41.1893 26.9928 41.1354 26.9716 41.0877 26.94C41.04 26.9084 40.9994 26.8671 40.9687 26.8188L35.9367 18.8818C35.9058 18.8333 35.8854 18.7789 35.877 18.722C35.8685 18.6651 35.8722 18.6071 35.8878 18.5517C35.9041 18.4968 35.9317 18.4459 35.9689 18.4024C36.0061 18.3589 36.0521 18.3237 36.1038 18.2991L46.9663 13.0675C47.7892 12.6697 48.7296 12.5885 49.6086 12.8392C50.4875 13.0899 51.2435 13.6551 51.7327 14.4272C52.2219 15.1992 52.4101 16.1242 52.2615 17.026C52.1129 17.9278 51.6378 18.7435 50.9267 19.3177L41.5554 26.9085C41.4865 26.9658 41.4005 26.9987 41.311 27.0022ZM36.8779 18.8532L41.4128 26.008L50.4215 18.7066C50.9839 18.2604 51.3615 17.622 51.4817 16.9141C51.6018 16.2063 51.4559 15.4791 51.0722 14.8723C50.6884 14.2656 50.0938 13.8221 49.4028 13.6274C48.7117 13.4326 47.9731 13.5002 47.3289 13.8172L36.8779 18.8532Z" fill="#093F68"/>
</g>
<path id="Vector_25" d="M55.5513 30.5633L37.3507 34.5481L27.4049 18.8532L38.7727 4.09552L55.5513 30.5633Z" fill="white"/>
<path id="Vector_26" d="M37.3547 34.9556C37.2855 34.9557 37.2173 34.9382 37.1567 34.9047C37.0961 34.8712 37.0451 34.8228 37.0084 34.7641L27.0626 19.0693C27.0182 18.999 26.9964 18.9168 27 18.8338C27.0037 18.7508 27.0326 18.6709 27.083 18.6048L38.4507 3.86742C38.4907 3.8153 38.5428 3.77363 38.6024 3.74596C38.6619 3.71829 38.7273 3.70544 38.793 3.70851C38.8587 3.71172 38.9227 3.73082 38.9795 3.76417C39.0363 3.79752 39.0841 3.84413 39.1189 3.90001L55.9017 30.3515C55.9365 30.4067 55.9576 30.4696 55.9631 30.5348C55.9686 30.5999 55.9583 30.6654 55.9331 30.7257C55.9079 30.7861 55.8686 30.8395 55.8185 30.8814C55.7683 30.9233 55.7088 30.9526 55.645 30.9667L37.4484 34.9475L37.3547 34.9556ZM27.9019 18.8737L37.5666 34.0877L54.9156 30.2903L38.74 4.80455L27.9019 18.8737Z" fill="#093F68"/>
<path id="Vector_27" d="M13.8271 27.3866L27.3722 18.8006L37.3827 34.5928L23.8376 43.1789C21.7439 44.506 19.2087 44.9471 16.7898 44.4051C14.3708 43.8631 12.2663 42.3823 10.9391 40.2886C9.61189 38.1949 9.17079 35.6597 9.71282 33.2407C10.2548 30.8218 11.7356 28.7172 13.8293 27.39L13.8271 27.3866Z" fill="#68E1FD"/>
<path id="Vector_28" d="M18.8485 45.0399C16.7343 45.0437 14.676 44.3605 12.9838 43.0931C11.2915 41.8257 10.0568 40.0428 9.4657 38.0129C8.87456 35.983 8.95895 33.816 9.70618 31.8382C10.4534 29.8604 11.823 28.1789 13.6087 27.047L27.1563 18.4581C27.2015 18.4294 27.2519 18.41 27.3047 18.4008C27.3574 18.3917 27.4114 18.393 27.4636 18.4047C27.5158 18.4165 27.5652 18.4384 27.609 18.4692C27.6527 18.5 27.69 18.5392 27.7186 18.5844L37.7296 34.377C37.7868 34.4679 37.8058 34.5777 37.7825 34.6826C37.7711 34.7351 37.7493 34.7848 37.7185 34.8288C37.6878 34.8729 37.6486 34.9104 37.6033 34.9393L24.0557 43.5242C22.4997 44.515 20.6931 45.0408 18.8485 45.0399ZM27.25 19.3707L14.0447 27.7397C12.0423 29.0094 10.6263 31.0226 10.1083 33.3363C9.5902 35.65 10.0125 38.0748 11.2822 40.0772C12.5519 42.0796 14.5651 43.4955 16.8788 44.0136C19.1925 44.5317 21.6173 44.1094 23.6197 42.8397L36.821 34.4748L27.25 19.3707Z" fill="#093F68"/>
<path id="Vector_29" d="M24.8094 44.335C24.8094 44.335 28.2687 39.2134 31.1004 41.214C33.9322 43.2145 39.4572 48.4462 37.1551 49.1877C33.5451 50.3571 30.2978 45.7774 30.2978 45.7774C30.2978 45.7774 32.7424 50.6667 29.7477 52.8914" fill="#FFC9B0"/>
<path id="Vector_30" d="M29.7477 53.3029C29.6841 53.3024 29.6215 53.2871 29.5649 53.258C29.5083 53.229 29.4592 53.1872 29.4217 53.1358C29.3896 53.093 29.3663 53.0443 29.353 52.9925C29.3397 52.9406 29.3368 52.8867 29.3443 52.8337C29.3519 52.7808 29.3698 52.7298 29.3971 52.6838C29.4243 52.6377 29.4604 52.5975 29.5032 52.5654C32.1761 50.5771 29.9555 46.0055 29.9107 45.9607C29.8732 45.8698 29.8699 45.7684 29.9013 45.6752C29.9327 45.582 29.9968 45.5033 30.0817 45.4537C30.1666 45.4041 30.2665 45.3868 30.3632 45.4051C30.4598 45.4234 30.5465 45.476 30.6074 45.5532C30.64 45.5981 33.7284 49.8722 37.0084 48.8128C37.2447 48.7354 37.261 48.6295 37.2692 48.5684C37.4566 47.346 33.5166 43.4467 30.8478 41.5603C30.6197 41.3942 30.3596 41.2772 30.084 41.2169C29.8083 41.1566 29.5231 41.1542 29.2465 41.2099C27.1685 41.5888 25.1476 44.5428 25.1272 44.5754C25.0973 44.6198 25.0589 44.6579 25.0142 44.6874C24.9695 44.717 24.9194 44.7375 24.8668 44.7477C24.8143 44.7579 24.7602 44.7576 24.7077 44.747C24.6552 44.7363 24.6053 44.7153 24.5609 44.6854C24.5165 44.6554 24.4784 44.617 24.4488 44.5723C24.4193 44.5276 24.3988 44.4776 24.3886 44.425C24.3784 44.3724 24.3786 44.3183 24.3893 44.2658C24.4 44.2133 24.4209 44.1634 24.4509 44.119C24.5405 43.9846 26.6837 40.8595 29.0998 40.4072C29.483 40.3309 29.8779 40.335 30.2594 40.4191C30.6409 40.5033 31.0008 40.6657 31.3164 40.8961C33.1539 42.1959 38.3896 46.6371 38.0759 48.6947C38.042 48.9067 37.9467 49.1042 37.8019 49.2627C37.6571 49.4213 37.4691 49.534 37.261 49.587C34.8856 50.357 32.7098 48.8984 31.3612 47.619C31.7931 49.3466 31.9316 51.775 29.9677 53.2336C29.9026 53.2774 29.8262 53.3015 29.7477 53.3029Z" fill="#093F68"/>
<path id="Vector_31" d="M19.0726 43.0149C18.9844 43.0155 18.8983 42.9875 18.8274 42.9351C18.7565 42.8827 18.7044 42.8086 18.6792 42.7241C18.6539 42.6396 18.6568 42.5492 18.6873 42.4664C18.7178 42.3836 18.7744 42.313 18.8485 42.2652L24.5894 38.5289C24.6339 38.4947 24.685 38.4702 24.7395 38.4567C24.794 38.4432 24.8507 38.4411 24.906 38.4506C24.9613 38.46 25.014 38.4808 25.0609 38.5116C25.1078 38.5424 25.1479 38.5825 25.1786 38.6295C25.2092 38.6765 25.2299 38.7293 25.2392 38.7846C25.2485 38.84 25.2462 38.8966 25.2326 38.9511C25.219 39.0055 25.1943 39.0565 25.16 39.101C25.1258 39.1454 25.0827 39.1823 25.0335 39.2093L19.2926 42.9497C19.227 42.992 19.1507 43.0147 19.0726 43.0149Z" fill="#093F68"/>
<path id="Vector_32" d="M17.2268 40.3583C17.1587 40.3582 17.0916 40.341 17.0318 40.3083C16.972 40.2755 16.9214 40.2283 16.8846 40.1709C16.826 40.0806 16.8055 39.9708 16.8277 39.8654C16.8498 39.76 16.9128 39.6677 17.0027 39.6086L22.7396 35.8683C22.7847 35.8388 22.8352 35.8186 22.8882 35.8088C22.9412 35.799 22.9956 35.7998 23.0483 35.8112C23.1009 35.8225 23.1508 35.8442 23.1951 35.875C23.2393 35.9058 23.277 35.9451 23.3059 35.9905C23.3645 36.0808 23.385 36.1907 23.3628 36.296C23.3407 36.4014 23.2778 36.4937 23.1878 36.5528L17.4469 40.2931C17.3813 40.3355 17.3049 40.3581 17.2268 40.3583Z" fill="#093F68"/>
<path id="Vector_33" d="M16.192 10.8266H4.56758C3.79574 10.8266 3.17004 11.4523 3.17004 12.2241V19.8638C3.17004 20.6356 3.79574 21.2613 4.56758 21.2613H16.192C16.9639 21.2613 17.5896 20.6356 17.5896 19.8638V12.2241C17.5896 11.4523 16.9639 10.8266 16.192 10.8266Z" fill="#70CC40"/>
<path id="Vector_34" d="M16.1919 21.6687H4.56341C4.32637 21.6687 4.09166 21.622 3.87267 21.5313C3.65368 21.4406 3.4547 21.3077 3.28709 21.14C3.11948 20.9724 2.98652 20.7735 2.89582 20.5545C2.80511 20.3355 2.75842 20.1008 2.75842 19.8637V12.2282C2.75842 11.7491 2.94846 11.2896 3.28684 10.9504C3.62523 10.6113 4.08432 10.4202 4.56341 10.4191H16.1879C16.4265 10.4175 16.663 10.4631 16.8839 10.5533C17.1048 10.6435 17.3057 10.7765 17.475 10.9446C17.6443 11.1128 17.7786 11.3128 17.8703 11.533C17.962 11.7533 18.0092 11.9896 18.0091 12.2282V19.8637C18.0092 20.1018 17.9621 20.3375 17.8706 20.5573C17.7791 20.7771 17.6451 20.9766 17.4762 21.1444C17.3073 21.3122 17.1068 21.4449 16.8864 21.5348C16.666 21.6248 16.43 21.6703 16.1919 21.6687ZM4.56341 11.234C4.43304 11.234 4.30396 11.2597 4.18357 11.3098C4.06318 11.3598 3.95385 11.4331 3.86186 11.5254C3.76987 11.6178 3.69702 11.7274 3.64751 11.848C3.59799 11.9686 3.57278 12.0978 3.57332 12.2282V19.8637C3.57332 20.1263 3.67762 20.3781 3.8633 20.5638C4.04898 20.7495 4.30082 20.8538 4.56341 20.8538H16.1879C16.3192 20.856 16.4498 20.832 16.5718 20.7832C16.6938 20.7344 16.8049 20.6618 16.8985 20.5697C16.9922 20.4775 17.0666 20.3676 17.1174 20.2464C17.1681 20.1252 17.1943 19.9951 17.1943 19.8637V12.2282C17.1948 12.0978 17.1696 11.9686 17.1201 11.848C17.0705 11.7274 16.9977 11.6178 16.9057 11.5254C16.8137 11.4331 16.7044 11.3598 16.584 11.3098C16.4636 11.2597 16.3345 11.234 16.2042 11.234H4.56341Z" fill="#093F68"/>
<path id="Vector_35" d="M3.16984 19.2648C3.11199 19.2647 3.05482 19.2523 3.00213 19.2284C2.94944 19.2046 2.90244 19.1697 2.86426 19.1263C2.79303 19.0452 2.75689 18.9391 2.76377 18.8314C2.77064 18.7237 2.81997 18.6231 2.90092 18.5518L8.3933 13.7398C8.46887 13.6688 8.56869 13.6292 8.67241 13.6292C8.77613 13.6292 8.87595 13.6688 8.95151 13.7398L13.7512 18.5518C13.828 18.6285 13.8711 18.7325 13.8711 18.841C13.8711 18.9496 13.828 19.0536 13.7512 19.1303C13.6745 19.2071 13.5704 19.2502 13.4619 19.2502C13.3534 19.2502 13.2494 19.2071 13.1727 19.1303L8.63777 14.6036L3.43876 19.1629C3.36448 19.2284 3.26888 19.2647 3.16984 19.2648Z" fill="#093F68"/>
<path id="Vector_36" d="M17.6017 18.018C17.4948 18.0175 17.3924 17.9751 17.3165 17.8998L14.7903 15.4266L12.4516 17.7205C12.3743 17.7962 12.2702 17.838 12.162 17.8369C12.0539 17.8357 11.9507 17.7917 11.875 17.7144C11.7994 17.6372 11.7575 17.533 11.7587 17.4249C11.7598 17.3168 11.8039 17.2135 11.8812 17.1379L14.4929 14.5791C14.569 14.5045 14.6715 14.4626 14.7781 14.4626C14.8848 14.4626 14.9871 14.5045 15.0633 14.5791L17.8747 17.3375C17.9506 17.4139 17.9932 17.5171 17.9932 17.6248C17.9932 17.7324 17.9506 17.8357 17.8747 17.912C17.8 17.98 17.7027 18.0177 17.6017 18.018Z" fill="#093F68"/>
<path id="Vector_37" d="M12.1664 14.2981C12.7312 14.2981 13.1891 13.8402 13.1891 13.2754C13.1891 12.7106 12.7312 12.2527 12.1664 12.2527C11.6016 12.2527 11.1437 12.7106 11.1437 13.2754C11.1437 13.8402 11.6016 14.2981 12.1664 14.2981Z" fill="#70CC40"/>
<path id="Vector_38" d="M12.1663 14.7055C11.8835 14.7055 11.607 14.6216 11.3718 14.4645C11.1366 14.3073 10.9533 14.084 10.8451 13.8226C10.7368 13.5613 10.7085 13.2738 10.7637 12.9963C10.8189 12.7189 10.9551 12.4641 11.1551 12.2641C11.3551 12.0641 11.6099 11.9279 11.8873 11.8727C12.1648 11.8175 12.4523 11.8458 12.7136 11.9541C12.975 12.0623 13.1983 12.2456 13.3555 12.4808C13.5126 12.716 13.5965 12.9925 13.5965 13.2754C13.5965 13.6546 13.4458 14.0184 13.1776 14.2866C12.9094 14.5548 12.5456 14.7055 12.1663 14.7055ZM12.1663 12.6683C12.0447 12.6683 11.9257 12.7043 11.8245 12.7719C11.7234 12.8396 11.6445 12.9356 11.5979 13.0481C11.5514 13.1605 11.5392 13.2842 11.5629 13.4035C11.5867 13.5229 11.6453 13.6325 11.7313 13.7185C11.8173 13.8046 11.927 13.8632 12.0463 13.8869C12.1657 13.9107 12.2894 13.8985 12.4018 13.8519C12.5142 13.8053 12.6103 13.7265 12.6779 13.6253C12.7455 13.5241 12.7816 13.4052 12.7816 13.2835C12.7821 13.2022 12.7666 13.1215 12.736 13.0462C12.7054 12.9708 12.6602 12.9023 12.6031 12.8444C12.546 12.7865 12.478 12.7404 12.403 12.7088C12.3281 12.6772 12.2477 12.6606 12.1663 12.6601V12.6683Z" fill="#093F68"/>
<path id="Vector_39" d="M47.2557 6.14501C47.1859 6.1455 47.1172 6.12805 47.0561 6.09433C46.995 6.06061 46.9435 6.01175 46.9067 5.95245C46.8699 5.89314 46.849 5.82537 46.8459 5.75564C46.8428 5.68591 46.8576 5.61655 46.8891 5.55422L49.5578 0.224814C49.6064 0.128099 49.6915 0.0546615 49.7943 0.0206586C49.8971 -0.0133444 50.0091 -0.00512737 50.1058 0.0435003C50.2026 0.0921281 50.276 0.177184 50.31 0.279957C50.344 0.38273 50.3358 0.4948 50.2872 0.591515L47.6184 5.90462C47.5868 5.97486 47.536 6.03472 47.4718 6.07727C47.4077 6.11981 47.3327 6.1433 47.2557 6.14501Z" fill="#DFEAEF"/>
<path id="Vector_40" d="M62.5024 23.9504H62.4698L56.5822 23.4859C56.4742 23.4773 56.3739 23.4261 56.3036 23.3435C56.2334 23.261 56.1987 23.154 56.2074 23.0459C56.216 22.9378 56.2672 22.8376 56.3497 22.7673C56.4323 22.697 56.5393 22.6624 56.6474 22.671L62.535 23.1396C62.6425 23.1489 62.7419 23.2005 62.8114 23.283C62.8809 23.3655 62.9148 23.4722 62.9058 23.5796C62.8967 23.6805 62.8503 23.7744 62.7757 23.843C62.7011 23.9115 62.6037 23.9498 62.5024 23.9504Z" fill="#DFEAEF"/>
<path id="Vector_41" d="M54.6508 13.1083C54.5606 13.1089 54.4727 13.0796 54.4009 13.0249C54.3292 12.9702 54.2776 12.8933 54.2543 12.8061C54.231 12.719 54.2373 12.6265 54.2722 12.5433C54.3071 12.4601 54.3686 12.3909 54.447 12.3464L58.1874 10.1951C58.2814 10.141 58.3931 10.1266 58.4977 10.1548C58.6024 10.1831 58.6916 10.2518 58.7456 10.3458C58.7996 10.4398 58.8141 10.5515 58.7858 10.6561C58.7576 10.7608 58.6889 10.85 58.5949 10.904L54.8586 13.0513C54.7957 13.0886 54.7239 13.1083 54.6508 13.1083Z" fill="#DFEAEF"/>
</g>
</svg>
