<svg width="68" height="67" viewBox="0 0 68 67" fill="none" xmlns="http://www.w3.org/2000/svg">
<g id="&#240;&#159;&#166;&#134; illustration &#34;Team building&#34;">
<path id="Vector" d="M23.964 0.369751V34.5871H8.27887V0.369751" fill="#FFBC0E"/>
<path id="Vector_2" d="M23.9788 34.9568H8.27888C8.18081 34.9568 8.08676 34.9179 8.01742 34.8485C7.94807 34.7792 7.90912 34.6852 7.90912 34.5871V0.369757C7.90912 0.271691 7.94807 0.177642 8.01742 0.108299C8.08676 0.0389562 8.18081 0 8.27888 0C8.37694 0 8.47099 0.0389562 8.54033 0.108299C8.60968 0.177642 8.64863 0.271691 8.64863 0.369757V34.2173H23.609V0.369757C23.609 0.271691 23.648 0.177642 23.7173 0.108299C23.7867 0.0389562 23.8807 0 23.9788 0C24.0768 0 24.1709 0.0389562 24.2402 0.108299C24.3096 0.177642 24.3485 0.271691 24.3485 0.369757V34.5871C24.3485 34.6852 24.3096 34.7792 24.2402 34.8485C24.1709 34.9179 24.0768 34.9568 23.9788 34.9568Z" fill="#093F68"/>
<path id="Vector_3" d="M11.8359 31.4516C12.3628 31.4516 12.7899 31.0245 12.7899 30.4976C12.7899 29.9707 12.3628 29.5436 11.8359 29.5436C11.3091 29.5436 10.882 29.9707 10.882 30.4976C10.882 31.0245 11.3091 31.4516 11.8359 31.4516Z" fill="#093F68"/>
<path id="Vector_4" d="M33.4667 21.298C33.4667 21.298 29.4844 21.5975 27.7059 21.8933C25.9274 22.1891 23.2688 26.0457 19.501 26.4413C15.7332 26.8369 12.679 26.9331 11.5919 25.9458C10.5048 24.9586 10.9004 22.9878 10.9004 22.9878H6.41897C3.7826 22.9878 3.58294 20.0963 5.3097 19.2384C5.3097 19.2384 2.35164 18.8317 2.09651 16.7537C1.79701 14.3983 4.64784 14.2504 4.64784 14.2504C4.17003 13.605 3.9368 12.8109 3.98967 12.0097C4.12278 10.7562 6.43007 9.90205 6.43007 9.90205C6.43007 9.90205 5.11003 9.04421 6.03443 7.3951C6.95882 5.74598 7.55043 6.01221 10.9115 6.01221C14.2726 6.01221 17.6337 5.74968 19.4159 6.40785C21.1982 7.06601 26.6669 9.43985 28.1829 9.50641C29.6989 9.57297 33.4815 9.3733 33.4815 9.3733L33.4667 21.298Z" fill="#FFC9B0"/>
<path id="Vector_5" d="M15.1638 27.0958C13.3631 27.0958 12.0467 26.8592 11.3442 26.2195C10.442 25.3986 10.4198 24.049 10.479 23.3539H6.41164C4.84757 23.3539 4.07477 22.4369 3.8751 21.5828C3.78756 21.2031 3.79365 20.8078 3.89285 20.4309C3.99205 20.0541 4.18138 19.7071 4.44453 19.4197C3.46837 19.1276 1.91539 18.4139 1.70833 16.7981C1.65107 16.4732 1.66471 16.1398 1.74832 15.8207C1.83192 15.5016 1.98351 15.2044 2.19271 14.9493C2.67652 14.433 3.31496 14.0878 4.01192 13.9658C3.68176 13.3549 3.53779 12.6608 3.59779 11.9691C3.70871 10.9005 4.98808 10.1203 5.74608 9.77641C5.32825 9.24396 5.04723 8.34915 5.68322 7.21399C6.59282 5.59445 7.36931 5.60185 9.68029 5.63143H10.8857C11.6474 5.63143 12.4091 5.63143 13.156 5.60554C15.6852 5.56117 18.0775 5.5168 19.5158 6.04926C19.9521 6.21195 20.6066 6.47448 21.3646 6.78877C23.6386 7.70207 27.0811 9.08496 28.1645 9.13303C29.6435 9.19589 33.3891 9.00361 33.4261 8.99992C33.477 8.99714 33.5279 9.00491 33.5756 9.02272C33.6233 9.04054 33.6668 9.06802 33.7034 9.10345C33.7395 9.13782 33.7682 9.17911 33.7879 9.22486C33.8076 9.27061 33.8179 9.31987 33.818 9.36967V21.298C33.8183 21.3918 33.7829 21.4821 33.7191 21.5508C33.6552 21.6194 33.5677 21.6612 33.4742 21.6678C33.4335 21.6678 29.4919 21.9673 27.7503 22.2594C27.1365 22.3592 26.3194 23.0174 25.3691 23.7754C23.8235 25.0141 21.8971 26.5597 19.5195 26.8074C18.0733 26.9762 16.6196 27.0724 15.1638 27.0958ZM8.87792 6.36355C7.29536 6.36355 6.94779 6.50036 6.34878 7.57265C5.60927 8.8668 6.52257 9.51758 6.6261 9.58783C6.68616 9.62704 6.73352 9.68288 6.7624 9.74853C6.79129 9.81418 6.80046 9.88682 6.78879 9.95759C6.78096 10.025 6.75473 10.0889 6.713 10.1424C6.67126 10.1959 6.61561 10.2368 6.55215 10.2608C6.00861 10.4642 4.43714 11.2296 4.33361 12.0652C4.28933 12.77 4.49488 13.4678 4.91412 14.036C4.95628 14.0892 4.983 14.1529 4.99137 14.2202C4.99973 14.2875 4.98941 14.3558 4.96154 14.4177C4.93367 14.4795 4.88932 14.5325 4.83335 14.5709C4.77738 14.6092 4.71194 14.6314 4.6442 14.635C4.6442 14.635 3.36484 14.7164 2.75104 15.4522C2.61066 15.6293 2.50995 15.8346 2.45573 16.054C2.4015 16.2735 2.39503 16.502 2.43675 16.7241C2.6623 18.499 5.30607 18.8835 5.33195 18.8872C5.41026 18.8981 5.48304 18.9337 5.53961 18.9889C5.59618 19.0442 5.63355 19.1161 5.64624 19.1941C5.65443 19.2687 5.63971 19.3441 5.60404 19.4101C5.56837 19.4762 5.51345 19.5298 5.44657 19.5639C5.11818 19.7328 4.85529 20.0061 4.69931 20.3408C4.54333 20.6755 4.50313 21.0526 4.58504 21.4127C4.76252 22.1522 5.44288 22.6144 6.40425 22.6144H10.8857C10.9408 22.6134 10.9954 22.6247 11.0455 22.6475C11.0957 22.6703 11.1401 22.704 11.1755 22.7462C11.211 22.7884 11.2365 22.8379 11.2504 22.8912C11.2642 22.9446 11.2659 23.0003 11.2555 23.0544C11.2555 23.0544 10.9153 24.8403 11.8323 25.6723C12.8824 26.6262 16.4579 26.3896 19.453 26.0716C21.6124 25.8461 23.4464 24.3781 24.918 23.1986C25.9496 22.374 26.837 21.6604 27.6394 21.5273C29.1184 21.2796 32.0765 21.0355 33.0896 20.9579V9.75792C32.0802 9.80599 29.3921 9.92431 28.146 9.87254C26.8999 9.82078 23.561 8.46377 21.0984 7.47282C20.3589 7.16962 19.6933 6.91079 19.2496 6.73331C17.9407 6.24892 15.6186 6.2896 13.1597 6.33397C12.4202 6.33397 11.6437 6.35985 10.8783 6.35985H9.66181L8.87792 6.36355Z" fill="#093F68"/>
<path id="Vector_6" d="M16.1731 23.3538H10.9004C10.8023 23.3538 10.7083 23.3149 10.6389 23.2455C10.5696 23.1762 10.5306 23.0821 10.5306 22.9841C10.5306 22.886 10.5696 22.792 10.6389 22.7226C10.7083 22.6533 10.8023 22.6143 10.9004 22.6143H16.1731C16.2712 22.6143 16.3652 22.6533 16.4346 22.7226C16.5039 22.792 16.5429 22.886 16.5429 22.9841C16.5429 23.0821 16.5039 23.1762 16.4346 23.2455C16.3652 23.3149 16.2712 23.3538 16.1731 23.3538Z" fill="#093F68"/>
<path id="Vector_7" d="M13.0747 19.6046H5.30976C5.21169 19.6046 5.11764 19.5656 5.0483 19.4963C4.97896 19.4269 4.94 19.3329 4.94 19.2348C4.94 19.1367 4.97896 19.0427 5.0483 18.9734C5.11764 18.904 5.21169 18.8651 5.30976 18.8651H13.0747C13.1727 18.8651 13.2668 18.904 13.3361 18.9734C13.4055 19.0427 13.4444 19.1367 13.4444 19.2348C13.4444 19.3329 13.4055 19.4269 13.3361 19.4963C13.2668 19.5656 13.1727 19.6046 13.0747 19.6046Z" fill="#093F68"/>
<path id="Vector_8" d="M13.2558 14.6165H4.63679C4.53872 14.6165 4.44467 14.5776 4.37533 14.5082C4.30598 14.4389 4.26703 14.3448 4.26703 14.2468C4.26703 14.1487 4.30598 14.0547 4.37533 13.9853C4.44467 13.916 4.53872 13.877 4.63679 13.877H13.2558C13.3539 13.877 13.4479 13.916 13.5173 13.9853C13.5866 14.0547 13.6256 14.1487 13.6256 14.2468C13.6256 14.3448 13.5866 14.4389 13.5173 14.5082C13.4479 14.5776 13.3539 14.6165 13.2558 14.6165Z" fill="#093F68"/>
<path id="Vector_9" d="M12.6789 10.2682H6.41895C6.32089 10.2682 6.22684 10.2292 6.15749 10.1599C6.08815 10.0906 6.04919 9.99651 6.04919 9.89844C6.04919 9.80038 6.08815 9.70633 6.15749 9.63699C6.22684 9.56764 6.32089 9.52869 6.41895 9.52869H12.6789C12.777 9.52869 12.8711 9.56764 12.9404 9.63699C13.0097 9.70633 13.0487 9.80038 13.0487 9.89844C13.0487 9.99651 13.0097 10.0906 12.9404 10.1599C12.8711 10.2292 12.777 10.2682 12.6789 10.2682Z" fill="#093F68"/>
<path id="Vector_10" d="M33.341 8.22339V22.0634H29.954V8.22339H33.341Z" fill="white"/>
<path id="Vector_11" d="M33.341 22.4294H29.954C29.856 22.4294 29.7619 22.3905 29.6926 22.3211C29.6232 22.2518 29.5843 22.1577 29.5843 22.0597V8.21967C29.5843 8.12161 29.6232 8.02756 29.6926 7.95821C29.7619 7.88887 29.856 7.84991 29.954 7.84991H33.341C33.4391 7.84991 33.5331 7.88887 33.6025 7.95821C33.6718 8.02756 33.7108 8.12161 33.7108 8.21967V22.0597C33.7108 22.1577 33.6718 22.2518 33.6025 22.3211C33.5331 22.3905 33.4391 22.4294 33.341 22.4294ZM30.3238 21.6899H32.9713V8.58943H30.3238V21.6899Z" fill="#093F68"/>
<path id="Vector_12" d="M67.5546 22.9841H33.341V7.29901H67.5546" fill="#68E1FD"/>
<path id="Vector_13" d="M67.5547 23.3539H33.3411C33.243 23.3539 33.149 23.3149 33.0796 23.2456C33.0103 23.1762 32.9713 23.0822 32.9713 22.9841V7.29902C32.9713 7.20095 33.0103 7.1069 33.0796 7.03756C33.149 6.96822 33.243 6.92926 33.3411 6.92926H67.5547C67.6528 6.92926 67.7468 6.96822 67.8162 7.03756C67.8855 7.1069 67.9245 7.20095 67.9245 7.29902C67.9245 7.39708 67.8855 7.49113 67.8162 7.56048C67.7468 7.62982 67.6528 7.66877 67.5547 7.66877H33.7108V22.6144H67.5547C67.6528 22.6144 67.7468 22.6533 67.8162 22.7227C67.8855 22.792 67.9245 22.8861 67.9245 22.9841C67.9245 23.0822 67.8855 23.1762 67.8162 23.2456C67.7468 23.3149 67.6528 23.3539 67.5547 23.3539Z" fill="#093F68"/>
<path id="Vector_14" d="M37.4269 11.8064C37.9537 11.8064 38.3808 11.3793 38.3808 10.8524C38.3808 10.3255 37.9537 9.89844 37.4269 9.89844C36.9 9.89844 36.4729 10.3255 36.4729 10.8524C36.4729 11.3793 36.9 11.8064 37.4269 11.8064Z" fill="#093F68"/>
<path id="Vector_15" d="M58.8949 32.5386C58.8949 32.5386 59.1944 28.5601 59.4902 26.7778C59.786 24.9956 63.6426 22.3407 64.0382 18.5729C64.4339 14.8051 64.53 11.7509 63.5427 10.6638C62.5555 9.57672 60.5847 9.97236 60.5847 9.97236V5.49091C60.5847 2.85454 57.6932 2.65857 56.8353 4.38163C56.8353 4.38163 56.4286 1.42358 54.3506 1.16844C51.9952 0.868942 51.8473 3.72347 51.8473 3.72347C51.2028 3.2439 50.4081 3.01047 49.6066 3.0653C48.3531 3.19471 47.499 5.502 47.499 5.502C47.499 5.502 46.6411 4.18566 44.992 5.10636C43.3429 6.02705 43.6091 6.62236 43.6091 9.98346C43.6091 13.3446 43.3466 16.7056 44.0048 18.4879C44.6629 20.2701 47.0368 25.7351 47.1033 27.2511C47.1699 28.7671 46.9702 32.5497 46.9702 32.5497L58.8949 32.5386Z" fill="#AD7972"/>
<g id="Group">
<path id="Vector_16" d="M58.8948 32.9084H46.9665C46.9167 32.9082 46.8674 32.898 46.8217 32.8783C46.7759 32.8586 46.7346 32.8298 46.7002 32.7938C46.6653 32.7576 46.6381 32.7147 46.6203 32.6676C46.6025 32.6206 46.5945 32.5704 46.5967 32.5202C46.5967 32.4832 46.7927 28.7375 46.7298 27.2585C46.6818 26.1714 45.2989 22.729 44.3819 20.4513C44.0787 19.7118 43.8161 19.0388 43.6424 18.6025C43.1099 17.1641 43.1506 14.7718 43.1986 12.2427C43.1986 11.5032 43.2245 10.7341 43.2245 9.97236C43.2245 9.52495 43.2245 9.12561 43.2245 8.76695C43.1949 6.45597 43.1876 5.67948 44.8034 4.77357C45.9422 4.13389 46.8371 4.40382 47.3695 4.83273C47.7393 4.09322 48.4788 2.79537 49.5622 2.68444C50.2539 2.62445 50.948 2.76842 51.5589 3.09857C51.6824 2.39839 52.0302 1.75733 52.5498 1.27197C52.8057 1.06427 53.1031 0.913883 53.422 0.830959C53.741 0.748036 54.074 0.734507 54.3986 0.791287C56.0107 0.994654 56.7281 2.54763 57.0202 3.52379C57.3075 3.26064 57.6546 3.07131 58.0314 2.97211C58.4083 2.87291 58.8035 2.86682 59.1832 2.95437C60.0374 3.15773 60.9544 3.93053 60.9544 5.4909V9.55823C61.6495 9.50277 62.9991 9.52125 63.82 10.4235C64.8997 11.6104 64.8368 14.5573 64.4079 18.621C64.1602 20.9948 62.6146 22.9213 61.3759 24.4705C60.6142 25.4171 59.9597 26.238 59.8562 26.8481C59.5678 28.5896 59.272 32.5349 59.2683 32.5719C59.2599 32.6647 59.2168 32.751 59.1475 32.8134C59.0783 32.8758 58.988 32.9097 58.8948 32.9084ZM47.3547 32.1689H58.5547C58.6323 31.1594 58.8763 28.2088 59.1241 26.7187C59.2572 25.9163 59.9708 25.0289 60.7954 23.9972C61.9749 22.5182 63.4429 20.6953 63.6684 18.5359C63.9864 15.5372 64.223 11.9653 63.2691 10.9152C62.4334 9.99454 60.6808 10.331 60.6512 10.3347C60.5971 10.3452 60.5414 10.3435 60.488 10.3296C60.4347 10.3158 60.3852 10.2902 60.343 10.2548C60.3008 10.2193 60.2671 10.1749 60.2443 10.1248C60.2215 10.0746 60.2102 10.02 60.2112 9.96496V5.4909C60.2112 4.52953 59.7601 3.85287 59.0095 3.67539C58.6494 3.59283 58.272 3.63273 57.9372 3.78877C57.6023 3.94482 57.3291 4.20809 57.1607 4.53693C57.1255 4.60711 57.069 4.66428 56.9992 4.70018C56.9294 4.73608 56.85 4.74883 56.7724 4.7366C56.6944 4.7239 56.6225 4.68653 56.5673 4.62996C56.512 4.5734 56.4764 4.50062 56.4655 4.4223C56.4655 4.39642 56.0699 1.74896 54.2988 1.52341C54.0772 1.482 53.8493 1.48862 53.6305 1.54284C53.4117 1.59707 53.2071 1.69762 53.0305 1.8377C52.291 2.4515 52.2133 3.71976 52.2133 3.73086C52.2097 3.7988 52.1875 3.86444 52.149 3.92054C52.1105 3.97665 52.0573 4.02105 51.9952 4.04885C51.9348 4.07431 51.8688 4.08328 51.8038 4.07483C51.7388 4.06639 51.6773 4.04083 51.6254 4.00078C51.0561 3.58381 50.3591 3.37851 49.6546 3.42026C48.819 3.509 48.0536 5.07677 47.8502 5.62032C47.8262 5.6841 47.7851 5.74002 47.7313 5.78189C47.6776 5.82377 47.6133 5.84999 47.5456 5.85764C47.4779 5.86529 47.4094 5.85408 47.3476 5.82525C47.2859 5.79642 47.2333 5.75109 47.1957 5.69427C47.1255 5.59074 46.4562 4.69592 45.1805 5.41695C43.9456 6.1084 43.9493 6.46336 43.9788 8.74476V9.95757C43.9788 10.7267 43.9788 11.4921 43.953 12.2427C43.9086 14.7016 43.8679 17.0236 44.3523 18.3326C44.5076 18.7578 44.7701 19.4086 45.0733 20.1592C46.0643 22.6254 47.4176 25.9976 47.473 27.2104C47.5285 28.4232 47.4028 31.1594 47.3547 32.1689Z" fill="#093F68"/>
<path id="Vector_17" d="M60.5847 15.6148C60.4866 15.6148 60.3926 15.5759 60.3232 15.5066C60.2539 15.4372 60.2149 15.3432 60.2149 15.2451V9.97236C60.2149 9.87429 60.2539 9.78024 60.3232 9.7109C60.3926 9.64156 60.4866 9.6026 60.5847 9.6026C60.6827 9.6026 60.7768 9.64156 60.8461 9.7109C60.9155 9.78024 60.9544 9.87429 60.9544 9.97236V15.2451C60.9544 15.3432 60.9155 15.4372 60.8461 15.5066C60.7768 15.5759 60.6827 15.6148 60.5847 15.6148Z" fill="#093F68"/>
<path id="Vector_18" d="M56.8316 12.5163C56.7335 12.5163 56.6395 12.4773 56.5701 12.408C56.5008 12.3386 56.4619 12.2446 56.4619 12.1465V4.3816C56.4619 4.28353 56.5008 4.18948 56.5701 4.12014C56.6395 4.0508 56.7335 4.01184 56.8316 4.01184C56.9297 4.01184 57.0237 4.0508 57.0931 4.12014C57.1624 4.18948 57.2014 4.28353 57.2014 4.3816V12.1465C57.2014 12.2446 57.1624 12.3386 57.0931 12.408C57.0237 12.4773 56.9297 12.5163 56.8316 12.5163Z" fill="#093F68"/>
<path id="Vector_19" d="M51.8436 12.7159C51.7455 12.7159 51.6515 12.677 51.5821 12.6076C51.5128 12.5383 51.4738 12.4442 51.4738 12.3462V3.71235C51.4738 3.61428 51.5128 3.52023 51.5821 3.45089C51.6515 3.38155 51.7455 3.34259 51.8436 3.34259C51.9416 3.34259 52.0357 3.38155 52.105 3.45089C52.1744 3.52023 52.2133 3.61428 52.2133 3.71235V12.3462C52.2133 12.4442 52.1744 12.5383 52.105 12.6076C52.0357 12.677 51.9416 12.7159 51.8436 12.7159Z" fill="#093F68"/>
<path id="Vector_20" d="M47.4952 12.1207C47.3972 12.1207 47.3031 12.0817 47.2338 12.0124C47.1644 11.943 47.1255 11.849 47.1255 11.7509V5.49091C47.1255 5.39285 47.1644 5.2988 47.2338 5.22945C47.3031 5.16011 47.3972 5.12115 47.4952 5.12115C47.5933 5.12115 47.6874 5.16011 47.7567 5.22945C47.826 5.2988 47.865 5.39285 47.865 5.49091V11.7509C47.865 11.849 47.826 11.943 47.7567 12.0124C47.6874 12.0817 47.5933 12.1207 47.4952 12.1207Z" fill="#093F68"/>
<path id="Vector_21" d="M45.8165 29.0297H59.6565V32.4166H45.8165V29.0297Z" fill="#093F68"/>
<path id="Vector_22" d="M59.6566 32.7827H45.8166C45.7185 32.7827 45.6245 32.7437 45.5551 32.6744C45.4858 32.6051 45.4468 32.511 45.4468 32.4129V29.0297C45.4468 28.9316 45.4858 28.8376 45.5551 28.7682C45.6245 28.6989 45.7185 28.6599 45.8166 28.6599H59.6566C59.7547 28.6599 59.8487 28.6989 59.9181 28.7682C59.9874 28.8376 60.0264 28.9316 60.0264 29.0297V32.4129C60.0264 32.511 59.9874 32.6051 59.9181 32.6744C59.8487 32.7437 59.7547 32.7827 59.6566 32.7827ZM46.1864 32.0432H59.2868V29.3994H46.1864V32.0432Z" fill="#093F68"/>
</g>
<path id="Vector_23" d="M60.581 66.6302V32.4129H44.8959V66.6302" fill="#F56132"/>
<path id="Vector_24" d="M60.5848 67C60.4867 67 60.3927 66.961 60.3233 66.8917C60.254 66.8224 60.215 66.7283 60.215 66.6302V32.7827H45.2658V66.6302C45.2658 66.7283 45.2268 66.8224 45.1575 66.8917C45.0881 66.961 44.9941 67 44.896 67C44.7979 67 44.7039 66.961 44.6345 66.8917C44.5652 66.8224 44.5262 66.7283 44.5262 66.6302V32.4129C44.5262 32.3148 44.5652 32.2208 44.6345 32.1515C44.7039 32.0821 44.7979 32.0432 44.896 32.0432H60.5848C60.6829 32.0432 60.7769 32.0821 60.8462 32.1515C60.9156 32.2208 60.9546 32.3148 60.9546 32.4129V66.6302C60.9546 66.7283 60.9156 66.8224 60.8462 66.8917C60.7769 66.961 60.6829 67 60.5848 67Z" fill="#093F68"/>
<path id="Vector_25" d="M48.4492 37.4564C48.9761 37.4564 49.4032 37.0293 49.4032 36.5024C49.4032 35.9756 48.9761 35.5485 48.4492 35.5485C47.9223 35.5485 47.4952 35.9756 47.4952 36.5024C47.4952 37.0293 47.9223 37.4564 48.4492 37.4564Z" fill="#093F68"/>
<path id="Vector_26" d="M34.4577 57.9594C34.4577 57.9594 38.44 58.2552 40.2185 58.5547C41.9971 58.8542 44.6556 62.7071 48.4235 63.1027C52.1913 63.4984 55.2455 63.5945 56.3326 62.6073C57.4196 61.62 57.024 59.6492 57.024 59.6492H61.5055C64.1418 59.6492 64.3415 56.754 62.6147 55.8999C62.6147 55.8999 65.5728 55.4931 65.8279 53.4151C66.1274 51.0597 63.2766 50.9118 63.2766 50.9118C63.7544 50.2664 63.9876 49.4724 63.9348 48.6711C63.8016 47.4176 61.4944 46.5598 61.4944 46.5598C61.4944 46.5598 62.8144 45.7057 61.89 44.0565C60.9656 42.4074 60.374 42.6736 57.0129 42.6736C53.6518 42.6736 50.2907 42.4111 48.5085 43.0693C46.7263 43.7275 41.2576 46.1013 39.7416 46.1678C38.2255 46.2344 34.4429 46.0347 34.4429 46.0347L34.4577 57.9594Z" fill="#FFC9B0"/>
<path id="Vector_27" d="M52.7606 63.7572C51.2986 63.7343 49.8387 63.6381 48.3863 63.4688C46.0088 63.2174 44.0824 61.6755 42.5368 60.4368C41.5865 59.6751 40.7694 59.0206 40.1556 58.9171C38.414 58.6287 34.4724 58.3329 34.4317 58.3292C34.3382 58.3226 34.2507 58.2808 34.1868 58.2122C34.123 58.1435 34.0876 58.0532 34.0878 57.9594V46.0311C34.0875 45.9806 34.0975 45.9307 34.1172 45.8843C34.137 45.8378 34.166 45.7959 34.2025 45.7611C34.2389 45.7268 34.282 45.7003 34.329 45.6832C34.3761 45.666 34.4261 45.6586 34.4761 45.6613C34.5168 45.6613 38.2587 45.8573 39.7414 45.7944C40.8248 45.7464 44.2673 44.3635 46.5413 43.4502C47.303 43.1433 47.9574 42.8807 48.39 42.7107C49.8321 42.1782 52.2207 42.2189 54.7499 42.2669C55.4894 42.2669 56.2585 42.2928 57.0202 42.2928H58.2256C60.5366 42.2669 61.3131 42.2595 62.219 43.8754C62.8587 45.0142 62.5887 45.909 62.1598 46.4415C62.9178 46.8113 64.1972 47.5508 64.3081 48.6305C64.369 49.3222 64.2249 50.0166 63.894 50.6272C64.5943 50.7533 65.2358 51.1006 65.7243 51.6181C65.9328 51.8735 66.084 52.1708 66.1676 52.4898C66.2512 52.8088 66.2652 53.142 66.2086 53.4669C66.0016 55.079 64.4523 55.7927 63.4724 56.0885C63.7356 56.3758 63.9249 56.7229 64.0241 57.0997C64.1233 57.4766 64.1294 57.8718 64.0419 58.2515C63.8422 59.1057 63.0694 60.0227 61.5053 60.0227H57.438C57.4972 60.7178 57.475 62.0674 56.5728 62.8883C55.8776 63.5169 54.5613 63.7572 52.7606 63.7572ZM34.8274 57.6193C35.8368 57.6969 38.7875 57.9409 40.2776 58.1887C41.0799 58.3218 41.9674 59.0354 42.999 59.86C44.478 61.0395 46.3046 62.5074 48.464 62.733C51.459 63.0473 55.0346 63.2876 56.0847 62.3337C57.0017 61.498 56.6652 59.7454 56.6615 59.7158C56.651 59.6617 56.6528 59.606 56.6666 59.5526C56.6804 59.4993 56.706 59.4498 56.7414 59.4076C56.7769 59.3654 56.8213 59.3317 56.8715 59.3089C56.9216 59.2861 56.9762 59.2748 57.0313 59.2758H61.5127C62.4741 59.2758 63.1544 58.8247 63.3319 58.0741C63.4138 57.714 63.3736 57.3369 63.2177 57.0022C63.0617 56.6675 62.7988 56.3942 62.4704 56.2253C62.4006 56.1896 62.3439 56.1326 62.3085 56.0626C62.2732 55.9926 62.261 55.9132 62.2738 55.8358C62.2865 55.7585 62.3236 55.6871 62.3795 55.6322C62.4355 55.5772 62.5074 55.5415 62.585 55.5301C62.6109 55.5301 65.2547 55.1345 65.4802 53.3634C65.5219 53.1418 65.5154 52.9138 65.4611 52.695C65.4069 52.4762 65.3062 52.2716 65.1659 52.0951C64.5521 51.3556 63.2876 51.2779 63.2728 51.2779C63.2047 51.2741 63.139 51.2516 63.0829 51.2128C63.0268 51.174 62.9826 51.1205 62.955 51.0581C62.9275 50.9958 62.9177 50.927 62.9268 50.8594C62.9359 50.7918 62.9635 50.7281 63.0065 50.6752C63.4214 50.105 63.6252 49.4083 63.5834 48.7044C63.4983 47.8725 61.9269 47.1071 61.3833 46.9037C61.3193 46.8794 61.2633 46.8379 61.2216 46.7837C61.1798 46.7296 61.1539 46.6648 61.1467 46.5968C61.1398 46.5292 61.1516 46.4609 61.181 46.3996C61.2104 46.3383 61.2561 46.2863 61.3131 46.2492C61.4129 46.179 62.3114 45.5097 61.5867 44.234C60.8952 42.9991 60.544 43.0028 58.2589 43.0286C57.8891 43.0286 57.4935 43.0286 57.0424 43.0286C56.277 43.0286 55.5079 43.0286 54.761 43.0028C52.3021 42.9584 49.98 42.914 48.6711 43.4021C48.2421 43.5574 47.5914 43.8199 46.8223 44.1231C44.3597 45.1141 40.9875 46.4674 39.7747 46.5192C38.5619 46.5709 35.8442 46.4563 34.8311 46.4082L34.8274 57.6193Z" fill="#093F68"/>
<path id="Vector_28" d="M57.0239 60.0153H51.7512C51.6531 60.0153 51.5591 59.9764 51.4897 59.907C51.4204 59.8377 51.3814 59.7436 51.3814 59.6456C51.3814 59.5475 51.4204 59.4535 51.4897 59.3841C51.5591 59.3148 51.6531 59.2758 51.7512 59.2758H57.0239C57.122 59.2758 57.216 59.3148 57.2854 59.3841C57.3547 59.4535 57.3937 59.5475 57.3937 59.6456C57.3937 59.7436 57.3547 59.8377 57.2854 59.907C57.216 59.9764 57.122 60.0153 57.0239 60.0153Z" fill="#093F68"/>
<path id="Vector_29" d="M62.6257 56.2659H54.8608C54.7628 56.2659 54.6687 56.227 54.5994 56.1576C54.53 56.0883 54.4911 55.9943 54.4911 55.8962C54.4911 55.7981 54.53 55.7041 54.5994 55.6347C54.6687 55.5654 54.7628 55.5264 54.8608 55.5264H62.6257C62.7238 55.5264 62.8179 55.5654 62.8872 55.6347C62.9565 55.7041 62.9955 55.7981 62.9955 55.8962C62.9955 55.9943 62.9565 56.0883 62.8872 56.1576C62.8179 56.227 62.7238 56.2659 62.6257 56.2659Z" fill="#093F68"/>
<path id="Vector_30" d="M63.2876 51.2779H54.6686C54.5705 51.2779 54.4765 51.2389 54.4071 51.1696C54.3378 51.1003 54.2988 51.0062 54.2988 50.9081C54.2988 50.8101 54.3378 50.716 54.4071 50.6467C54.4765 50.5773 54.5705 50.5384 54.6686 50.5384H63.3024C63.4005 50.5384 63.4945 50.5773 63.5639 50.6467C63.6332 50.716 63.6722 50.8101 63.6722 50.9081C63.6722 51.0062 63.6332 51.1003 63.5639 51.1696C63.4945 51.2389 63.4005 51.2779 63.3024 51.2779H63.2876Z" fill="#093F68"/>
<path id="Vector_31" d="M61.5054 46.9259H55.2454C55.1474 46.9259 55.0533 46.887 54.984 46.8176C54.9146 46.7483 54.8757 46.6542 54.8757 46.5562C54.8757 46.4581 54.9146 46.364 54.984 46.2947C55.0533 46.2254 55.1474 46.1864 55.2454 46.1864H61.5054C61.6035 46.1864 61.6975 46.2254 61.7669 46.2947C61.8362 46.364 61.8752 46.4581 61.8752 46.5562C61.8752 46.6542 61.8362 46.7483 61.7669 46.8176C61.6975 46.887 61.6035 46.9259 61.5054 46.9259Z" fill="#093F68"/>
<path id="Vector_32" d="M37.9703 44.8811V58.7211H34.5834V44.8811H37.9703Z" fill="white"/>
<path id="Vector_33" d="M37.9704 59.0909H34.5834C34.4853 59.0909 34.3913 59.0519 34.3219 58.9826C34.2526 58.9132 34.2136 58.8192 34.2136 58.7211V44.8811C34.2136 44.783 34.2526 44.689 34.3219 44.6197C34.3913 44.5503 34.4853 44.5114 34.5834 44.5114H37.9704C38.0684 44.5114 38.1625 44.5503 38.2318 44.6197C38.3012 44.689 38.3401 44.783 38.3401 44.8811V58.7211C38.3401 58.8192 38.3012 58.9132 38.2318 58.9826C38.1625 59.0519 38.0684 59.0909 37.9704 59.0909ZM34.9531 58.3514H37.6006V45.2509H34.9531V58.3514Z" fill="#093F68"/>
<path id="Vector_34" d="M0.369812 59.6455H34.5834V43.9604H0.369812" fill="#68E1FD"/>
<path id="Vector_35" d="M34.5834 60.0153H0.369757C0.271692 60.0153 0.177642 59.9763 0.108299 59.907C0.0389562 59.8376 0 59.7436 0 59.6455C0 59.5474 0.0389562 59.4534 0.108299 59.384C0.177642 59.3147 0.271692 59.2757 0.369757 59.2757H34.2136V44.3302H0.369757C0.271692 44.3302 0.177642 44.2912 0.108299 44.2219C0.0389562 44.1525 0 44.0585 0 43.9604C0 43.8623 0.0389562 43.7683 0.108299 43.6989C0.177642 43.6296 0.271692 43.5906 0.369757 43.5906H34.5834C34.6815 43.5906 34.7755 43.6296 34.8448 43.6989C34.9142 43.7683 34.9531 43.8623 34.9531 43.9604V59.6455C34.9531 59.7436 34.9142 59.8376 34.8448 59.907C34.7755 59.9763 34.6815 60.0153 34.5834 60.0153Z" fill="#093F68"/>
<path id="Vector_36" d="M30.4976 48.4678C31.0245 48.4678 31.4516 48.0406 31.4516 47.5138C31.4516 46.9869 31.0245 46.5598 30.4976 46.5598C29.9707 46.5598 29.5436 46.9869 29.5436 47.5138C29.5436 48.0406 29.9707 48.4678 30.4976 48.4678Z" fill="#093F68"/>
<path id="Vector_37" d="M22.2815 35.5152C22.2815 35.5152 22.5773 38.44 22.8731 40.2222C23.169 42.0044 27.0255 44.6593 27.4212 48.4271C27.8168 52.1949 27.9166 55.2491 26.9294 56.3362C25.9421 57.4233 23.9713 57.0277 23.9713 57.0277V61.5091C23.9713 64.1455 21.0798 64.3415 20.222 62.6184C20.222 62.6184 19.8153 65.5764 17.7409 65.8316C15.3856 66.1311 15.2377 63.2766 15.2377 63.2766C14.5927 63.7552 13.7983 63.9886 12.9969 63.9347C11.7435 63.8053 10.8856 61.498 10.8856 61.498C10.8856 61.498 10.0278 62.8144 8.38237 61.8937C6.73695 60.973 6.99947 60.3777 6.99947 57.0166C6.99947 53.6555 6.73325 50.2944 7.39141 48.5121C8.04958 46.7299 10.4234 41.2649 10.49 39.7489C10.5565 38.2329 10.3606 35.5041 10.3606 35.5041L22.2815 35.5152Z" fill="#E28362"/>
<path id="Vector_38" d="M17.3934 66.2346C16.8641 66.2445 16.3486 66.0649 15.9402 65.728C15.422 65.2411 15.0735 64.6009 14.9456 63.9014C14.3341 64.2298 13.6405 64.3736 12.9489 64.3156C11.8803 64.2046 11.1186 62.9253 10.7599 62.1673C10.2238 62.5814 9.33266 62.8661 8.1938 62.2264C6.57427 61.3205 6.58536 60.544 6.61124 58.2331C6.61124 57.8633 6.61124 57.4935 6.61124 57.0277C6.61124 56.266 6.61124 55.5006 6.58166 54.7573C6.53729 52.2282 6.49292 49.8359 7.02907 48.3975C7.19176 47.9575 7.45429 47.2882 7.76859 46.5487C8.68558 44.271 10.0685 40.8323 10.1128 39.7452C10.1794 38.2662 9.98343 35.5706 9.98343 35.5448C9.97967 35.4944 9.98627 35.4438 10.0028 35.3961C10.0193 35.3485 10.0455 35.3047 10.0796 35.2674C10.1145 35.2298 10.1568 35.1998 10.2039 35.1795C10.251 35.1591 10.3019 35.1488 10.3532 35.1491H22.2816C22.3735 35.1487 22.4624 35.1825 22.5308 35.244C22.5991 35.3056 22.6421 35.3904 22.6513 35.4819C22.6513 35.5115 22.9508 38.4178 23.2429 40.163C23.3428 40.7731 24.0009 41.594 24.7589 42.5406C26.0013 44.0898 27.5432 46.0163 27.7946 48.3901C28.2199 52.4575 28.2827 55.4155 27.203 56.5876C26.3859 57.4898 25.0362 57.512 24.3374 57.4529V61.5202C24.3374 63.0806 23.4241 63.8534 22.5663 64.0567C22.1865 64.144 21.7913 64.1377 21.4146 64.0385C21.0378 63.9393 20.6907 63.7502 20.4032 63.4873C20.1111 64.4635 19.3975 66.0164 17.7816 66.2198C17.6527 66.234 17.523 66.2389 17.3934 66.2346ZM15.2266 62.9068C15.2801 62.9072 15.3329 62.9185 15.3819 62.9401C15.4433 62.9684 15.4958 63.013 15.5336 63.0691C15.5714 63.1251 15.5931 63.1905 15.5963 63.2581C15.5963 63.2581 15.6777 64.5374 16.4172 65.1512C16.5936 65.2917 16.7982 65.3925 17.017 65.4468C17.2359 65.501 17.4639 65.5074 17.6855 65.4655C19.4566 65.24 19.8449 62.5925 19.8486 62.5666C19.8588 62.4878 19.8942 62.4144 19.9495 62.3573C20.0047 62.3002 20.0769 62.2624 20.1554 62.2495C20.2338 62.2366 20.3143 62.2494 20.3849 62.2859C20.4555 62.3223 20.5125 62.3806 20.5474 62.452C20.7158 62.7808 20.989 63.0441 21.3239 63.2001C21.6587 63.3562 22.0361 63.3961 22.3962 63.3135C23.1357 63.136 23.5942 62.4594 23.5942 61.498V57.0277C23.5946 56.973 23.607 56.9192 23.6307 56.8699C23.6543 56.8207 23.6886 56.7773 23.731 56.7429C23.7732 56.7081 23.8226 56.683 23.8757 56.6696C23.9288 56.6562 23.9842 56.6547 24.0379 56.6653C24.0379 56.6653 25.8201 57.0018 26.6558 56.0848C27.6098 55.0347 27.3694 51.4628 27.0551 48.4641C26.8259 46.3047 25.3579 44.4744 24.1784 42.9991C23.3538 41.9711 22.6439 41.0837 22.5108 40.2813C22.2742 38.8652 22.0338 36.7058 21.9488 35.8849H10.7488C10.8006 36.7021 10.9041 38.5842 10.8524 39.7748C10.8006 40.9654 9.44358 44.3598 8.44894 46.8113C8.14574 47.5508 7.88321 48.2163 7.70942 48.66C7.22504 49.969 7.26571 52.2911 7.31008 54.7499C7.31008 55.4895 7.33967 56.2659 7.33967 57.035V58.2478C7.31378 60.544 7.31008 60.899 8.54507 61.5757C9.83553 62.3152 10.49 61.4019 10.5603 61.2983C10.5981 61.2414 10.6509 61.1961 10.7129 61.1674C10.7749 61.1386 10.8437 61.1277 10.9115 61.1357C10.9789 61.1435 11.0428 61.1697 11.0963 61.2114C11.1498 61.2532 11.1908 61.3088 11.2147 61.3723C11.4181 61.9158 12.1835 63.4836 13.0154 63.5724C13.7202 63.6166 14.418 63.4111 14.9862 62.9918C15.0553 62.9399 15.1403 62.9137 15.2266 62.9179V62.9068Z" fill="#093F68"/>
<path id="Vector_39" d="M23.9788 57.3974C23.8807 57.3974 23.7867 57.3585 23.7173 57.2891C23.648 57.2198 23.609 57.1258 23.609 57.0277V51.755C23.609 51.6569 23.648 51.5628 23.7173 51.4935C23.7867 51.4241 23.8807 51.3852 23.9788 51.3852C24.0768 51.3852 24.1709 51.4241 24.2402 51.4935C24.3096 51.5628 24.3485 51.6569 24.3485 51.755V57.0277C24.3485 57.1258 24.3096 57.2198 24.2402 57.2891C24.1709 57.3585 24.0768 57.3974 23.9788 57.3974Z" fill="#093F68"/>
<path id="Vector_40" d="M20.2146 62.9992C20.1165 62.9992 20.0225 62.9603 19.9531 62.8909C19.8838 62.8216 19.8448 62.7275 19.8448 62.6295V54.8646C19.8448 54.7665 19.8838 54.6725 19.9531 54.6031C20.0225 54.5338 20.1165 54.4948 20.2146 54.4948C20.3127 54.4948 20.4067 54.5338 20.4761 54.6031C20.5454 54.6725 20.5844 54.7665 20.5844 54.8646V62.6295C20.5844 62.7275 20.5454 62.8216 20.4761 62.8909C20.4067 62.9603 20.3127 62.9992 20.2146 62.9992Z" fill="#093F68"/>
<path id="Vector_41" d="M15.2302 63.6574C15.1322 63.6574 15.0381 63.6184 14.9688 63.5491C14.8994 63.4798 14.8605 63.3857 14.8605 63.2876V54.6538C14.8605 54.5557 14.8994 54.4617 14.9688 54.3924C15.0381 54.323 15.1322 54.2841 15.2302 54.2841C15.3283 54.2841 15.4223 54.323 15.4917 54.3924C15.561 54.4617 15.6 54.5557 15.6 54.6538V63.2876C15.6 63.3857 15.561 63.4798 15.4917 63.5491C15.4223 63.6184 15.3283 63.6574 15.2302 63.6574Z" fill="#093F68"/>
<path id="Vector_42" d="M10.8782 61.8789C10.7802 61.8789 10.6861 61.8399 10.6168 61.7706C10.5474 61.7013 10.5085 61.6072 10.5085 61.5091V55.2492C10.5085 55.1511 10.5474 55.057 10.6168 54.9877C10.6861 54.9184 10.7802 54.8794 10.8782 54.8794C10.9763 54.8794 11.0704 54.9184 11.1397 54.9877C11.209 55.057 11.248 55.1511 11.248 55.2492V61.5091C11.248 61.6072 11.209 61.7013 11.1397 61.7706C11.0704 61.8399 10.9763 61.8789 10.8782 61.8789Z" fill="#093F68"/>
<path id="Vector_43" d="M9.20325 34.5871H23.0433V37.9741H9.20325V34.5871Z" fill="#093F68"/>
<path id="Vector_44" d="M23.0433 38.3401H9.18848C9.09042 38.3401 8.99637 38.3012 8.92702 38.2318C8.85768 38.1625 8.81873 38.0684 8.81873 37.9704V34.5871C8.81873 34.489 8.85768 34.395 8.92702 34.3256C8.99637 34.2563 9.09042 34.2173 9.18848 34.2173H23.0285C23.1266 34.2173 23.2206 34.2563 23.29 34.3256C23.3593 34.395 23.3982 34.489 23.3982 34.5871V37.9704C23.3983 38.0659 23.3614 38.1578 23.2952 38.2267C23.2291 38.2957 23.1388 38.3363 23.0433 38.3401ZM9.57303 37.6006H22.6735V34.9569H9.55824L9.57303 37.6006Z" fill="#093F68"/>
</g>
</svg>
