<svg width="74" height="70" viewBox="0 0 74 70" fill="none" xmlns="http://www.w3.org/2000/svg">
<path d="M3.35583 48.3393V56.6022C3.35583 59.8352 10.1674 62.4615 18.5685 62.4615C26.9697 62.4615 33.7851 59.8352 33.7851 56.6022V48.3393H3.35583Z" fill="#68E1FD"/>
<path d="M18.5724 62.8493C9.82565 62.8493 2.97571 60.1078 2.97571 56.6099V48.3393C2.97571 48.2375 3.01616 48.1398 3.08817 48.0678C3.16018 47.9958 3.25784 47.9553 3.35967 47.9553H33.7889C33.8908 47.9553 33.9884 47.9958 34.0604 48.0678C34.1324 48.1398 34.1729 48.2375 34.1729 48.3393V56.6022C34.1691 60.1078 27.3153 62.8493 18.5724 62.8493ZM3.7398 48.7233V56.6022C3.7398 59.5703 10.5322 62.0737 18.5685 62.0737C26.6049 62.0737 33.4011 59.5703 33.4011 56.6022V48.7233H3.7398Z" fill="#093F68"/>
<path d="M18.5685 54.2063C26.9703 54.2063 33.7812 51.583 33.7812 48.347C33.7812 45.111 26.9703 42.4877 18.5685 42.4877C10.1668 42.4877 3.35583 45.111 3.35583 48.347C3.35583 51.583 10.1668 54.2063 18.5685 54.2063Z" fill="#68E1FD"/>
<path d="M18.5724 54.5903C9.82565 54.5903 2.97571 51.8487 2.97571 48.347C2.97571 44.8452 9.82565 42.1037 18.5724 42.1037C27.3191 42.1037 34.1729 44.8452 34.1729 48.347C34.1729 51.8487 27.3153 54.5903 18.5724 54.5903ZM18.5724 42.8716C10.536 42.8716 3.74364 45.3789 3.74364 48.347C3.74364 51.315 10.536 53.8223 18.5724 53.8223C26.6088 53.8223 33.405 51.315 33.405 48.347C33.405 45.3789 26.6088 42.8716 18.5724 42.8716Z" fill="#093F68"/>
<path d="M3.35583 40.1301V48.3931C3.35583 51.6299 10.1674 54.2524 18.5685 54.2524C26.9697 54.2524 33.7851 51.6299 33.7851 48.3931V40.1301H3.35583Z" fill="#68E1FD"/>
<path d="M18.5724 54.6363C9.82565 54.6363 2.97571 51.8948 2.97571 48.393V40.1301C2.97571 40.0282 3.01616 39.9306 3.08817 39.8586C3.16018 39.7865 3.25784 39.7461 3.35967 39.7461H33.7889C33.8908 39.7461 33.9884 39.7865 34.0604 39.8586C34.1324 39.9306 34.1729 40.0282 34.1729 40.1301V48.393C34.1691 51.8948 27.3153 54.6363 18.5724 54.6363ZM3.74364 40.514V48.393C3.74364 51.361 10.536 53.8683 18.5724 53.8683C26.6088 53.8683 33.405 51.361 33.405 48.393V40.514H3.74364Z" fill="#093F68"/>
<path d="M18.5685 45.9894C26.9703 45.9894 33.7812 43.3661 33.7812 40.1301C33.7812 36.8941 26.9703 34.2708 18.5685 34.2708C10.1668 34.2708 3.35583 36.8941 3.35583 40.1301C3.35583 43.3661 10.1668 45.9894 18.5685 45.9894Z" fill="#093F68"/>
<path d="M18.5724 46.3734C9.82565 46.3734 2.97571 43.6319 2.97571 40.1301C2.97571 36.6284 9.82565 33.8868 18.5724 33.8868C27.3191 33.8868 34.1729 36.6284 34.1729 40.1301C34.1729 43.6319 27.3153 46.3734 18.5724 46.3734ZM18.5724 34.6548C10.536 34.6548 3.74364 37.1621 3.74364 40.1301C3.74364 43.0982 10.536 45.6055 18.5724 45.6055C26.6088 45.6055 33.405 43.0982 33.405 40.1301C33.405 37.1621 26.6088 34.6548 18.5724 34.6548Z" fill="#093F68"/>
<path d="M0.384033 30.3774V38.6403C0.384033 41.8771 7.19558 44.4996 15.6006 44.4996C24.0056 44.4996 30.8133 41.8771 30.8133 38.6403V30.3774H0.384033Z" fill="#68E1FD"/>
<path d="M15.6005 44.8836C6.85378 44.8836 0 42.1421 0 38.6403V30.3774C0 30.2755 0.0404531 30.1779 0.112461 30.1059C0.184468 30.0339 0.282131 29.9934 0.383965 29.9934H30.8132C30.9151 29.9934 31.0127 30.0339 31.0847 30.1059C31.1567 30.1779 31.1972 30.2755 31.1972 30.3774V38.6403C31.1972 42.1421 24.3319 44.8836 15.6005 44.8836ZM0.767931 30.7613V38.6403C0.767931 41.6084 7.56028 44.1157 15.6005 44.1157C23.6407 44.1157 30.4293 41.6084 30.4293 38.6403V30.7613H0.767931Z" fill="#093F68"/>
<path d="M15.6005 36.2367C24.0023 36.2367 30.8132 33.6134 30.8132 30.3774C30.8132 27.1414 24.0023 24.5181 15.6005 24.5181C7.19878 24.5181 0.387817 27.1414 0.387817 30.3774C0.387817 33.6134 7.19878 36.2367 15.6005 36.2367Z" fill="#68E1FD"/>
<path d="M15.6005 36.6207C6.85378 36.6207 0 33.8792 0 30.3774C0 26.8756 6.85378 24.1495 15.6005 24.1495C24.3472 24.1495 31.1972 26.891 31.1972 30.3927C31.1972 33.8945 24.3319 36.6207 15.6005 36.6207ZM15.6005 24.902C7.56028 24.902 0.767931 27.4093 0.767931 30.3774C0.767931 33.3454 7.56028 35.8527 15.6005 35.8527C23.6407 35.8527 30.4293 33.3454 30.4293 30.3774C30.4293 27.4093 23.6369 24.9174 15.6005 24.9174V24.902Z" fill="#093F68"/>
<path d="M0.384033 22.1605V30.4235C0.384033 33.6603 7.19558 36.2828 15.6006 36.2828C24.0056 36.2828 30.8133 33.6603 30.8133 30.4235V22.1605H0.384033Z" fill="#68E1FD"/>
<path d="M15.6005 36.6667C6.85378 36.6667 0 33.9252 0 30.4234V22.1605C0 22.0587 0.0404531 21.961 0.112461 21.889C0.184468 21.817 0.282131 21.7766 0.383965 21.7766H30.8132C30.9151 21.7766 31.0127 21.817 31.0847 21.889C31.1567 21.961 31.1972 22.0587 31.1972 22.1605V30.4234C31.1972 33.9252 24.3319 36.6667 15.6005 36.6667ZM0.767931 22.5445V30.4234C0.767931 33.3915 7.56028 35.8988 15.6005 35.8988C23.6407 35.8988 30.4293 33.3915 30.4293 30.4234V22.5445H0.767931Z" fill="#093F68"/>
<path d="M15.6005 28.0198C24.0023 28.0198 30.8132 25.3965 30.8132 22.1605C30.8132 18.9245 24.0023 16.3012 15.6005 16.3012C7.19878 16.3012 0.387817 18.9245 0.387817 22.1605C0.387817 25.3965 7.19878 28.0198 15.6005 28.0198Z" fill="#68E1FD"/>
<path d="M15.6005 28.4038C6.85378 28.4038 0 25.6623 0 22.1605C0 18.6588 6.85378 15.9172 15.6005 15.9172C24.3472 15.9172 31.1972 18.6626 31.1972 22.1605C31.1972 25.6584 24.3319 28.4038 15.6005 28.4038ZM15.6005 16.6852C7.56028 16.6852 0.767931 19.1925 0.767931 22.1605C0.767931 25.1286 7.56028 27.6359 15.6005 27.6359C23.6407 27.6359 30.4293 25.1286 30.4293 22.1605C30.4293 19.1925 23.6369 16.6852 15.6005 16.6852Z" fill="#093F68"/>
<path d="M36.9221 45.9894V54.2524C36.9221 57.4854 43.7337 60.1078 52.1348 60.1078C60.536 60.1078 67.336 57.4854 67.336 54.2524V45.9894H36.9221Z" fill="#68E1FD"/>
<path d="M52.1349 60.4918C43.3882 60.4918 36.5382 57.7503 36.5382 54.2524V45.9894C36.5382 45.8876 36.5787 45.7899 36.6507 45.7179C36.7227 45.6459 36.8203 45.6055 36.9222 45.6055H67.3361C67.4379 45.6055 67.5356 45.6459 67.6076 45.7179C67.6796 45.7899 67.72 45.8876 67.72 45.9894V54.2524C67.72 57.7503 60.8816 60.4918 52.1349 60.4918ZM37.3061 46.3734V54.2524C37.3061 57.2166 44.0985 59.7239 52.1349 59.7239C60.1713 59.7239 66.9521 57.2166 66.9521 54.2524V46.3734H37.3061Z" fill="#093F68"/>
<path d="M52.1348 51.8488C60.5366 51.8488 67.3475 49.2254 67.3475 45.9894C67.3475 42.7534 60.5366 40.1301 52.1348 40.1301C43.7331 40.1301 36.9221 42.7534 36.9221 45.9894C36.9221 49.2254 43.7331 51.8488 52.1348 51.8488Z" fill="#68E1FD"/>
<path d="M52.1349 52.2327C43.3882 52.2327 36.5382 49.4874 36.5382 45.9894C36.5382 42.4915 43.3882 39.7462 52.1349 39.7462C60.8816 39.7462 67.72 42.4877 67.72 45.9894C67.72 49.4912 60.8816 52.2327 52.1349 52.2327ZM52.1349 40.5141C44.0985 40.5141 37.3061 43.0214 37.3061 45.9894C37.3061 48.9575 44.0985 51.4648 52.1349 51.4648C60.1713 51.4648 66.9521 48.9575 66.9521 45.9894C66.9521 43.0214 60.1751 40.5141 52.1349 40.5141Z" fill="#093F68"/>
<path d="M36.9221 37.7726V46.0355C36.9221 49.2685 43.7337 51.8948 52.1348 51.8948C60.536 51.8948 67.336 49.2685 67.336 46.0355V37.7726H36.9221Z" fill="#68E1FD"/>
<path d="M52.1349 52.2788C43.3882 52.2788 36.5382 49.5335 36.5382 46.0356V37.7726C36.5382 37.6708 36.5787 37.5731 36.6507 37.5011C36.7227 37.4291 36.8203 37.3887 36.9222 37.3887H67.3361C67.4379 37.3887 67.5356 37.4291 67.6076 37.5011C67.6796 37.5731 67.72 37.6708 67.72 37.7726V46.0356C67.72 49.5335 60.8816 52.2788 52.1349 52.2788ZM37.3061 38.1566V46.0356C37.3061 49.0036 44.0985 51.5109 52.1349 51.5109C60.1713 51.5109 66.9521 49.0036 66.9521 46.0356V38.1566H37.3061Z" fill="#093F68"/>
<path d="M52.1348 43.6318C60.5366 43.6318 67.3475 41.0085 67.3475 37.7725C67.3475 34.5365 60.5366 31.9132 52.1348 31.9132C43.7331 31.9132 36.9221 34.5365 36.9221 37.7725C36.9221 41.0085 43.7331 43.6318 52.1348 43.6318Z" fill="#68E1FD"/>
<path d="M52.1349 44.0159C43.3882 44.0159 36.5382 41.2743 36.5382 37.7726C36.5382 34.2708 43.3882 31.5293 52.1349 31.5293C60.8816 31.5293 67.72 34.2708 67.72 37.7726C67.72 41.2743 60.8816 44.0159 52.1349 44.0159ZM52.1349 32.2972C44.0985 32.2972 37.3061 34.8045 37.3061 37.7726C37.3061 40.7406 44.0985 43.2479 52.1349 43.2479C60.1713 43.2479 66.9521 40.7406 66.9521 37.7726C66.9521 34.8045 60.1751 32.2972 52.1349 32.2972Z" fill="#093F68"/>
<path d="M36.9221 29.5557V37.8187C36.9221 41.0555 43.7337 43.678 52.1348 43.678C60.536 43.678 67.336 41.044 67.336 37.8187V29.5557H36.9221Z" fill="#68E1FD"/>
<path d="M52.1349 44.062C43.3882 44.062 36.5382 41.3205 36.5382 37.8187V29.5558C36.5382 29.4539 36.5787 29.3563 36.6507 29.2843C36.7227 29.2123 36.8203 29.1718 36.9222 29.1718H67.3361C67.4379 29.1718 67.5356 29.2123 67.6076 29.2843C67.6796 29.3563 67.72 29.4539 67.72 29.5558V37.8187C67.72 41.3205 60.8816 44.062 52.1349 44.062ZM37.3061 29.9397V37.8187C37.3061 40.7868 44.0985 43.2941 52.1349 43.2941C60.1713 43.2941 66.9521 40.7868 66.9521 37.8187V29.9397H37.3061Z" fill="#093F68"/>
<path d="M52.1348 35.4151C60.5366 35.4151 67.3475 32.7918 67.3475 29.5558C67.3475 26.3198 60.5366 23.6965 52.1348 23.6965C43.7331 23.6965 36.9221 26.3198 36.9221 29.5558C36.9221 32.7918 43.7331 35.4151 52.1348 35.4151Z" fill="#093F68"/>
<path d="M52.1349 35.7991C43.3882 35.7991 36.5382 33.0575 36.5382 29.5558C36.5382 26.054 43.3882 23.3125 52.1349 23.3125C60.8816 23.3125 67.72 26.0694 67.72 29.5558C67.72 33.0422 60.8816 35.7991 52.1349 35.7991ZM52.1349 24.0804C44.0985 24.0804 37.3061 26.5877 37.3061 29.5558C37.3061 32.5238 44.0985 35.0311 52.1349 35.0311C60.1713 35.0311 66.9521 32.5238 66.9521 29.5558C66.9521 26.5877 60.1751 24.0804 52.1349 24.0804Z" fill="#093F68"/>
<path d="M32.9059 20.1601V28.423C32.9059 31.6599 39.7174 34.2823 48.1186 34.2823C56.5198 34.2823 63.3351 31.6599 63.3351 28.423V20.1601H32.9059Z" fill="#68E1FD"/>
<path d="M48.1377 34.6663C39.391 34.6663 32.541 31.9248 32.541 28.423V20.1601C32.541 20.0583 32.5815 19.9606 32.6535 19.8886C32.7255 19.8166 32.8231 19.7761 32.925 19.7761H63.3542C63.4561 19.7761 63.5537 19.8166 63.6257 19.8886C63.6977 19.9606 63.7382 20.0583 63.7382 20.1601V28.423C63.719 31.9248 56.8652 34.6663 48.1377 34.6663ZM33.3089 20.5441V28.423C33.3089 31.3911 40.1013 33.8984 48.1377 33.8984C56.1741 33.8984 62.9703 31.3911 62.9703 28.423V20.5441H33.3089Z" fill="#093F68"/>
<path d="M48.1186 26.0194C56.5203 26.0194 63.3313 23.3961 63.3313 20.1601C63.3313 16.9241 56.5203 14.3008 48.1186 14.3008C39.7168 14.3008 32.9059 16.9241 32.9059 20.1601C32.9059 23.3961 39.7168 26.0194 48.1186 26.0194Z" fill="#093F68"/>
<path d="M48.1377 26.4034C39.391 26.4034 32.541 23.6619 32.541 20.1601C32.541 16.6583 39.3718 13.9168 48.1377 13.9168C56.9036 13.9168 63.7382 16.6622 63.7382 20.1601C63.7382 23.658 56.8652 26.4034 48.1377 26.4034ZM48.1377 14.6847C40.1013 14.6847 33.3089 17.192 33.3089 20.1601C33.3089 23.1281 40.0744 25.6354 48.1377 25.6354C56.201 25.6354 62.9703 23.1281 62.9703 20.1601C62.9703 17.192 56.1587 14.6847 48.1377 14.6847Z" fill="#093F68"/>
<path d="M35.8508 11.5094V19.7723C35.8508 23.0092 42.6624 25.6316 51.0635 25.6316C59.4647 25.6316 66.2762 23.0092 66.2762 19.7723V11.5094H35.8508Z" fill="#68E1FD"/>
<path d="M51.0559 26.0156C42.3092 26.0156 35.4592 23.2741 35.4592 19.7723V11.5094C35.4592 11.4076 35.4997 11.3099 35.5717 11.2379C35.6437 11.1659 35.7414 11.1254 35.8432 11.1254H66.2686C66.3704 11.1254 66.4681 11.1659 66.5401 11.2379C66.6121 11.3099 66.6526 11.4076 66.6526 11.5094V19.7723C66.6526 23.2741 59.8026 26.0156 51.0559 26.0156ZM36.2348 11.8934V19.7723C36.2348 22.7404 43.0272 25.2477 51.0636 25.2477C59.1 25.2477 65.8923 22.7404 65.8923 19.7723V11.8934H36.2348Z" fill="#093F68"/>
<path d="M51.0559 17.3686C59.4576 17.3686 66.2686 14.7453 66.2686 11.5093C66.2686 8.27333 59.4576 5.65002 51.0559 5.65002C42.6541 5.65002 35.8431 8.27333 35.8431 11.5093C35.8431 14.7453 42.6541 17.3686 51.0559 17.3686Z" fill="#68E1FD"/>
<path d="M51.0559 17.7527C42.3092 17.7527 35.4592 15.0112 35.4592 11.5094C35.4592 8.00763 42.3092 5.26611 51.0559 5.26611C59.8026 5.26611 66.6526 8.02299 66.6526 11.5094C66.6526 14.9958 59.8026 17.7527 51.0559 17.7527ZM51.0559 6.03404C43.0195 6.03404 36.2272 8.54134 36.2272 11.5094C36.2272 14.4774 43.0195 16.9847 51.0559 16.9847C59.0923 16.9847 65.8846 14.4774 65.8846 11.5094C65.8846 8.54134 59.0961 6.03404 51.0559 6.03404Z" fill="#093F68"/>
<path d="M38.4503 68.7624C47.1277 68.7624 54.1621 61.728 54.1621 53.0505C54.1621 44.3731 47.1277 37.3387 38.4503 37.3387C29.7728 37.3387 22.7384 44.3731 22.7384 53.0505C22.7384 61.728 29.7728 68.7624 38.4503 68.7624Z" fill="#68E1FD"/>
<path d="M38.4502 69.1464C35.2668 69.1464 32.1548 68.2024 29.5078 66.4337C26.8609 64.6651 24.7979 62.1513 23.5796 59.2102C22.3613 56.269 22.0426 53.0327 22.6637 49.9104C23.2847 46.7881 24.8177 43.9201 27.0687 41.6691C29.3198 39.418 32.1878 37.8851 35.3101 37.264C38.4323 36.6429 41.6687 36.9617 44.6098 38.1799C47.5509 39.3982 50.0648 41.4612 51.8334 44.1082C53.602 46.7551 54.546 49.8671 54.546 53.0505C54.5379 57.3169 52.8395 61.4063 49.8227 64.4231C46.8059 67.4398 42.7166 69.1383 38.4502 69.1464ZM38.4502 37.7227C35.4186 37.7227 32.4551 38.6216 29.9345 40.3059C27.4138 41.9901 25.4492 44.384 24.2891 47.1848C23.1289 49.9856 22.8254 53.0675 23.4168 56.0409C24.0083 59.0142 25.4681 61.7454 27.6117 63.889C29.7554 66.0327 32.4866 67.4925 35.4599 68.0839C38.4332 68.6754 41.5151 68.3718 44.3159 67.2117C47.1167 66.0515 49.5106 64.0869 51.1949 61.5663C52.8791 59.0456 53.7781 56.0821 53.7781 53.0505C53.77 48.9878 52.1525 45.0938 49.2797 42.2211C46.4069 39.3483 42.5129 37.7308 38.4502 37.7227Z" fill="#093F68"/>
<path d="M38.4503 66.3511C35.8186 66.3519 33.2458 65.5721 31.0574 64.1105C28.8689 62.6489 27.163 60.5711 26.1556 58.1399C25.1481 55.7086 24.8843 53.0333 25.3975 50.4521C25.9108 47.8709 27.178 45.5 29.0389 43.6391C30.8998 41.7782 33.2707 40.511 35.8519 39.9978C38.433 39.4845 41.1084 39.7483 43.5396 40.7558C45.9709 41.7632 48.0487 43.4691 49.5103 45.6576C50.9719 47.8461 51.7517 50.4189 51.7509 53.0506C51.7468 56.5768 50.3442 59.9575 47.8508 62.451C45.3573 64.9444 41.9766 66.3471 38.4503 66.3511ZM38.4503 40.5141C35.9707 40.5133 33.5465 41.2479 31.4844 42.625C29.4223 44.0021 27.8149 45.9597 26.8654 48.2504C25.916 50.5411 25.6672 53.0619 26.1504 55.4939C26.6337 57.926 27.8274 60.1602 29.5805 61.9138C31.3336 63.6675 33.5674 64.8618 35.9993 65.3459C38.4313 65.8299 40.9521 65.5819 43.2431 64.6331C45.5341 63.6844 47.4922 62.0775 48.8699 60.0158C50.2476 57.9541 50.983 55.5302 50.983 53.0506C50.9789 49.7276 49.6573 46.5418 47.308 44.1918C44.9587 41.8417 41.7733 40.5192 38.4503 40.5141Z" fill="#093F68"/>
<path d="M37.0027 62.9761V61.3941C36.4305 61.2367 35.8738 61.1177 35.3401 60.9334C34.2944 60.6023 33.3926 59.9253 32.7829 59.0136C32.277 58.2186 32.0203 57.2907 32.0457 56.3488H35.1174C35.2594 57.5007 35.8124 58.3071 36.995 58.6257V54.4828C36.3806 54.3023 35.7663 54.1334 35.1596 53.9414C34.4914 53.7526 33.8788 53.4048 33.3742 52.9277C32.851 52.4074 32.5044 51.7358 32.3835 51.0079C32.1977 50.1114 32.2642 49.181 32.5755 48.3201C32.798 47.7018 33.1542 47.1403 33.6189 46.6757C34.0835 46.2111 34.645 45.8548 35.2633 45.6324C35.7675 45.4753 36.2803 45.3471 36.7991 45.2484L36.9835 45.21V43.1289H39.8555V43.3324V45.1178C39.8555 45.2638 39.9016 45.3098 40.0437 45.3406C41.0291 45.5275 41.9527 45.9563 42.7314 46.5884C43.5564 47.265 44.1032 48.2219 44.2673 49.2762C44.3172 49.5603 44.3402 49.8483 44.3748 50.1516H41.2532C41.2461 49.7254 41.1144 49.3107 40.8742 48.9585C40.634 48.6064 40.2958 48.3324 39.9016 48.1704V52.0561C40.0053 52.083 40.1204 52.1137 40.2395 52.1367C41.0814 52.2984 41.9021 52.556 42.6853 52.9047C43.2731 53.1596 43.7806 53.5692 44.1539 54.0899C44.5271 54.6105 44.7521 55.2227 44.8048 55.8612C44.9893 57.0521 44.6998 58.2678 43.9985 59.2478C43.4269 60.0447 42.6219 60.6444 41.6947 60.9641C41.1188 61.1638 40.5198 61.2943 39.8977 61.4633V62.9991L37.0027 62.9761ZM39.8862 55.0741V58.7064C40.351 58.6358 40.7885 58.4422 41.1533 58.1458C41.8214 57.5967 42.0556 56.226 41.0804 55.6385C40.6972 55.4255 40.3009 55.237 39.8939 55.0741H39.8862ZM37.0027 51.3688V47.8709C36.6271 48.036 36.2617 48.2232 35.9083 48.4315C35.1135 48.9613 34.9868 50.4358 36.0043 50.9503C36.3115 51.1115 36.6494 51.2229 37.0027 51.3688Z" fill="#093F68"/>
<path d="M4.02783 8.73328C4.02783 8.73328 4.17758 11.3634 0.910034 12.2466C0.910034 12.2466 3.38277 12.2082 4.13534 15.7752C4.13534 15.7752 4.41564 12.3195 7.36065 11.9701C7.34913 11.9663 4.58842 12.212 4.02783 8.73328Z" fill="#FFBC0E"/>
<path d="M4.12387 16.1553C4.03458 16.1573 3.94739 16.1281 3.87731 16.0727C3.80723 16.0174 3.75864 15.9393 3.7399 15.852C3.0718 12.6305 0.948474 12.6305 0.910078 12.6305C0.816907 12.6314 0.726583 12.5984 0.655939 12.5377C0.585295 12.4769 0.539153 12.3925 0.526113 12.3003C0.512548 12.2072 0.533592 12.1125 0.585255 12.0339C0.636917 11.9554 0.715609 11.8985 0.806409 11.8741C3.72838 11.1062 3.65543 8.85228 3.65159 8.75629C3.6463 8.70587 3.65099 8.65489 3.66539 8.60628C3.6798 8.55767 3.70363 8.51237 3.73554 8.47298C3.76746 8.43358 3.80681 8.40085 3.85137 8.37666C3.89593 8.35247 3.94482 8.3373 3.99524 8.33201C4.04566 8.32671 4.09663 8.3314 4.14525 8.34581C4.19386 8.36021 4.23915 8.38405 4.27855 8.41596C4.31795 8.44787 4.35068 8.48723 4.37487 8.53179C4.39905 8.57635 4.41423 8.62523 4.41952 8.67565C4.91868 11.7474 7.23783 11.5976 7.33382 11.59C7.43565 11.5798 7.53736 11.6105 7.61657 11.6753C7.69578 11.7401 7.746 11.8337 7.75618 11.9355C7.76636 12.0374 7.73568 12.1391 7.67087 12.2183C7.60606 12.2975 7.51245 12.3477 7.41061 12.3579C4.81885 12.6612 4.53471 15.683 4.52319 15.8136C4.51504 15.9055 4.47407 15.9913 4.4078 16.0555C4.34152 16.1196 4.25436 16.1578 4.16227 16.163L4.12387 16.1553ZM2.13109 12.1889C3.02057 12.6479 3.71255 13.4149 4.07779 14.3468C4.38933 13.3948 5.02177 12.5805 5.86707 12.043C5.05963 11.6872 4.41739 11.038 4.07011 10.2269C3.67404 11.0882 2.98765 11.7827 2.13109 12.1889Z" fill="#093F68"/>
<path d="M69.7972 31.3643C69.7972 31.3643 69.97 34.3937 66.1995 35.3997C66.1995 35.3997 69.0446 35.3575 69.9086 39.4659C69.9086 39.4659 70.2311 35.4804 73.6215 35.0849C73.6215 35.0849 70.4461 35.3652 69.7972 31.3643Z" fill="#FFBC0E"/>
<path d="M69.9086 39.846C69.8193 39.848 69.7321 39.8188 69.662 39.7634C69.5919 39.7081 69.5434 39.63 69.5246 39.5427C68.7337 35.7836 66.2302 35.776 66.1956 35.7836C66.0938 35.7974 65.9907 35.7701 65.909 35.7078C65.8272 35.6455 65.7736 35.5533 65.7598 35.4515C65.7461 35.3497 65.7734 35.2466 65.8356 35.1648C65.8979 35.0831 65.9901 35.0295 66.092 35.0157C69.5016 34.1019 69.4094 31.4794 69.4056 31.3719C69.3944 31.27 69.4241 31.1679 69.4882 31.088C69.5523 31.0081 69.6455 30.9569 69.7473 30.9457C69.8491 30.9345 69.9513 30.9642 70.0312 31.0283C70.1111 31.0924 70.1623 31.1856 70.1735 31.2874C70.7572 34.8967 73.4679 34.697 73.5831 34.6893C73.6832 34.6807 73.7827 34.7117 73.8602 34.7756C73.9377 34.8395 73.9871 34.9312 73.9978 35.0311C74.0086 35.1318 73.9792 35.2327 73.9159 35.3118C73.8526 35.391 73.7606 35.4419 73.6599 35.4534C70.6304 35.8067 70.3002 39.3315 70.2887 39.4812C70.2806 39.5731 70.2396 39.659 70.1733 39.7231C70.107 39.7873 70.0199 39.8255 69.9278 39.8306L69.9086 39.846ZM67.4819 35.3421C68.5879 35.872 69.4414 36.8152 69.8587 37.9684C69.9405 37.7256 70.0379 37.4883 70.1505 37.2581C70.5436 36.3792 71.2085 35.6497 72.0473 35.177C71.5481 34.9754 71.0954 34.6739 70.717 34.2909C70.3386 33.9079 70.0426 33.4516 69.8472 32.95C69.3884 34.0169 68.5436 34.8713 67.4819 35.3421Z" fill="#093F68"/>
<path d="M54.047 10.4727C54.047 10.4727 54.2236 13.4983 50.4492 14.5081C50.4492 14.5081 53.2944 14.4621 54.1622 18.5705C54.1622 18.5705 54.4847 14.5888 57.8713 14.1933C57.8713 14.1933 54.6959 14.4736 54.047 10.4727Z" fill="#FFBC0E"/>
<path d="M54.1622 18.9544C54.0729 18.9564 53.9857 18.9272 53.9156 18.8719C53.8455 18.8165 53.7969 18.7384 53.7782 18.6511C53.0103 14.9305 50.5606 14.8998 50.4454 14.8921C50.395 14.8989 50.3437 14.8957 50.2945 14.8827C50.2453 14.8697 50.1992 14.8471 50.1587 14.8163C50.077 14.754 50.0233 14.6618 50.0096 14.56C49.9958 14.4581 50.0231 14.355 50.0854 14.2733C50.1477 14.1915 50.2399 14.1379 50.3417 14.1242C53.7513 13.2142 53.663 10.5917 53.6592 10.4803C53.6586 10.3854 53.6932 10.2936 53.7563 10.2227C53.8194 10.1518 53.9066 10.1068 54.0009 10.0964C54.0981 10.0862 54.1956 10.1136 54.2733 10.1728C54.3511 10.232 54.4033 10.3186 54.4194 10.4151C54.9992 13.9975 57.7177 13.8208 57.8329 13.8132C57.9347 13.803 58.0364 13.8337 58.1156 13.8985C58.1948 13.9633 58.2451 14.0569 58.2552 14.1587C58.2654 14.2606 58.2347 14.3623 58.1699 14.4415C58.1051 14.5207 58.0115 14.5709 57.9097 14.5811C54.8802 14.9343 54.55 18.4591 54.5346 18.6089C54.5275 18.7008 54.4874 18.7871 54.4219 18.852C54.3563 18.9169 54.2696 18.9559 54.1775 18.9621L54.1622 18.9544ZM51.7355 14.4467C52.8403 14.979 53.6922 15.9233 54.1084 17.0769C54.1902 16.8328 54.2876 16.5942 54.4002 16.3627C54.7947 15.4857 55.4594 14.7578 56.297 14.2854C55.7992 14.0816 55.3477 13.7792 54.9696 13.3965C54.5916 13.0138 54.2947 12.5587 54.0969 12.0584C53.6422 13.1259 52.7977 13.9799 51.7355 14.4467Z" fill="#093F68"/>
<path d="M27.876 1.17303C27.876 1.17303 28.0526 4.19868 24.2782 5.20851C24.2782 5.20851 27.1272 5.16243 27.9911 9.27086C27.9911 9.27086 28.3137 5.28914 31.7002 4.89366C31.7002 4.89366 28.5249 5.17395 27.876 1.17303Z" fill="#FFBC0E"/>
<path d="M27.991 9.6548C27.9017 9.65678 27.8146 9.62758 27.7445 9.57222C27.6744 9.51685 27.6258 9.43879 27.6071 9.35146C26.8391 5.64236 24.3971 5.59244 24.2781 5.59244C24.1843 5.59324 24.0935 5.55971 24.0228 5.49817C23.9521 5.43664 23.9063 5.35135 23.8941 5.2584C23.8826 5.16657 23.9045 5.07365 23.9561 4.99675C24.0076 4.91985 24.0851 4.86414 24.1744 4.83987C27.584 3.92603 27.4957 1.30355 27.4919 1.1922C27.4812 1.09037 27.5114 0.988455 27.5758 0.908887C27.6403 0.829319 27.7337 0.778613 27.8355 0.76792C27.9374 0.757228 28.0393 0.787425 28.1188 0.851872C28.1984 0.916318 28.2491 1.00973 28.2598 1.11157C28.8473 4.717 31.5581 4.52118 31.6733 4.50966C31.7751 4.49948 31.8768 4.53016 31.956 4.59497C32.0352 4.65978 32.0854 4.7534 32.0956 4.85523C32.1058 4.95706 32.0751 5.05877 32.0103 5.13798C31.9455 5.21719 31.8519 5.26741 31.7501 5.27759C28.7206 5.63468 28.3904 9.15948 28.375 9.30923C28.367 9.40049 28.3265 9.48587 28.2611 9.54995C28.1956 9.61403 28.1093 9.65258 28.0179 9.65864L27.991 9.6548ZM25.5644 5.15088C26.6699 5.68029 27.5224 6.62383 27.9373 7.77721C28.0179 7.55067 28.1139 7.30877 28.2291 7.06303C28.6258 6.1875 29.2899 5.46025 30.1259 4.98578C29.6283 4.78224 29.1772 4.47997 28.7997 4.0972C28.4222 3.71444 28.1262 3.25913 27.9296 2.75878C27.4708 3.82575 26.6261 4.68011 25.5644 5.15088Z" fill="#093F68"/>
</svg>
