<svg width="92" height="66" viewBox="0 0 92 66" fill="none" xmlns="http://www.w3.org/2000/svg">
<path d="M84.9306 4.23438V45.6293C84.9306 46.6484 84.5258 47.6257 83.8053 48.3463C83.0847 49.0668 82.1074 49.4717 81.0883 49.4717H11.076C10.057 49.4717 9.07969 49.0668 8.35912 48.3463C7.63855 47.6257 7.23373 46.6484 7.23373 45.6293V4.23438C7.23477 3.21602 7.64004 2.23972 8.3605 1.52C9.08096 0.800274 10.0577 0.395998 11.076 0.395998H81.0883C81.5927 0.395483 82.0923 0.494386 82.5584 0.687052C83.0246 0.879718 83.4482 1.16237 83.805 1.51885C84.1619 1.87533 84.445 2.29864 84.6381 2.76459C84.8312 3.23054 84.9306 3.72999 84.9306 4.23438Z" fill="white"/>
<path d="M81.0883 49.8637H11.076C9.95332 49.8627 8.87689 49.4162 8.08301 48.6223C7.28914 47.8285 6.84268 46.752 6.84164 45.6293V4.23436C6.84268 3.11202 7.28927 2.03599 8.08325 1.24274C8.87724 0.44949 9.95368 0.00390577 11.076 0.00390625H81.0883C82.2107 0.00390577 83.2871 0.44949 84.0811 1.24274C84.8751 2.03599 85.3217 3.11202 85.3227 4.23436V45.6293C85.3217 46.752 84.8752 47.8285 84.0813 48.6223C83.2875 49.4162 82.211 49.8627 81.0883 49.8637ZM11.076 0.78805C10.1616 0.78805 9.28466 1.15102 8.63772 1.79722C7.99079 2.44341 7.62683 3.31998 7.62579 4.23436V45.6293C7.62683 46.5441 7.99066 47.421 8.63748 48.0679C9.2843 48.7147 10.1613 49.0785 11.076 49.0796H81.0883C82.0031 49.0785 82.88 48.7147 83.5269 48.0679C84.1737 47.421 84.5375 46.5441 84.5386 45.6293V4.23436C84.5375 3.31998 84.1736 2.44341 83.5266 1.79722C82.8797 1.15102 82.0027 0.78805 81.0883 0.78805H11.076Z" fill="#093F68"/>
<path d="M79.1084 26.1042V27.8293C79.1074 28.7135 78.7554 29.5612 78.1298 30.186C77.5042 30.8109 76.6561 31.1619 75.7719 31.1619H16.3926C15.5083 31.1619 14.6603 30.8109 14.0347 30.186C13.4091 29.5612 13.0571 28.7135 13.056 27.8293V26.1042C13.056 25.6662 13.1424 25.2325 13.3101 24.8279C13.4778 24.4233 13.7236 24.0558 14.0335 23.7463C14.3434 23.4367 14.7112 23.1913 15.116 23.0241C15.5208 22.8569 15.9546 22.771 16.3926 22.7715H75.7719C76.2099 22.771 76.6436 22.8569 77.0484 23.0241C77.4532 23.1913 77.8211 23.4367 78.1309 23.7463C78.4408 24.0558 78.6866 24.4233 78.8544 24.8279C79.0221 25.2325 79.1084 25.6662 79.1084 26.1042Z" fill="white"/>
<path d="M75.7719 31.5539H16.3925C15.4047 31.5529 14.4575 31.1603 13.7586 30.4621C13.0596 29.7639 12.666 28.8171 12.6639 27.8293V26.1041C12.666 25.1163 13.0596 24.1695 13.7586 23.4713C14.4575 22.7731 15.4047 22.3805 16.3925 22.3795H75.7719C76.7597 22.3805 77.7069 22.7731 78.4058 23.4713C79.1048 24.1695 79.4984 25.1163 79.5005 26.1041V27.8293C79.4984 28.8171 79.1048 29.7639 78.4058 30.4621C77.7069 31.1603 76.7597 31.5529 75.7719 31.5539ZM16.3925 23.1675C15.6126 23.1686 14.8649 23.4786 14.313 24.0297C13.7612 24.5808 13.4502 25.3281 13.4481 26.1081V27.8332C13.4491 28.6134 13.7598 29.3613 14.3119 29.9127C14.864 30.464 15.6123 30.7737 16.3925 30.7737H75.7719C76.5521 30.7737 77.3004 30.464 77.8525 29.9127C78.4046 29.3613 78.7153 28.6134 78.7163 27.8332V26.1081C78.7142 25.3281 78.4032 24.5808 77.8514 24.0297C77.2995 23.4786 76.5518 23.1686 75.7719 23.1675H16.3925Z" fill="#093F68"/>
<path d="M84.9306 4.2344V7.87675H7.23373V4.23047C7.23477 3.21211 7.64004 2.23581 8.3605 1.51609C9.08096 0.796365 10.0577 0.392091 11.076 0.392092H81.0883C81.5931 0.391576 82.0929 0.490605 82.5593 0.683517C83.0257 0.876428 83.4495 1.15943 83.8064 1.51633C84.1633 1.87322 84.4463 2.297 84.6392 2.7634C84.8321 3.2298 84.9312 3.72967 84.9306 4.2344Z" fill="#71B7EA"/>
<path d="M84.9306 8.2688H7.23372C7.12973 8.2688 7.03001 8.22749 6.95648 8.15396C6.88295 8.08044 6.84164 7.98071 6.84164 7.87673V4.23045C6.84268 3.10811 7.28927 2.03208 8.08325 1.23883C8.87724 0.44558 9.95368 -4.81116e-07 11.076 0H81.0883C82.2107 -4.81116e-07 83.2871 0.44558 84.0811 1.23883C84.8751 2.03208 85.3217 3.10811 85.3227 4.23045V7.87673C85.3227 7.98071 85.2814 8.08044 85.2079 8.15396C85.1343 8.22749 85.0346 8.2688 84.9306 8.2688ZM7.62579 7.48465H84.5386V4.23045C84.5375 3.31608 84.1736 2.4395 83.5266 1.79331C82.8797 1.14711 82.0027 0.784144 81.0883 0.784144H11.076C10.1616 0.784144 9.28466 1.14711 8.63772 1.79331C7.99079 2.4395 7.62683 3.31608 7.62579 4.23045V7.48465Z" fill="#093F68"/>
<path d="M11.9817 4.80678C12.5035 4.80678 12.9266 4.38374 12.9266 3.86189C12.9266 3.34004 12.5035 2.91699 11.9817 2.91699C11.4598 2.91699 11.0368 3.34004 11.0368 3.86189C11.0368 4.38374 11.4598 4.80678 11.9817 4.80678Z" fill="#D33807"/>
<path d="M15.4084 4.80678C15.9302 4.80678 16.3533 4.38374 16.3533 3.86189C16.3533 3.34004 15.9302 2.91699 15.4084 2.91699C14.8865 2.91699 14.4635 3.34004 14.4635 3.86189C14.4635 4.38374 14.8865 4.80678 15.4084 4.80678Z" fill="#093F68"/>
<path d="M18.839 4.80678C19.3609 4.80678 19.7839 4.38374 19.7839 3.86189C19.7839 3.34004 19.3609 2.91699 18.839 2.91699C18.3172 2.91699 17.8941 3.34004 17.8941 3.86189C17.8941 4.38374 18.3172 4.80678 18.839 4.80678Z" fill="#093F68"/>
<path d="M79.1084 26.1041V27.8293C79.1074 28.7135 78.7554 29.5611 78.1298 30.186C77.5042 30.8109 76.6561 31.1619 75.7719 31.1619H69.3027V22.7755H75.7719C76.2095 22.7749 76.643 22.8606 77.0475 23.0276C77.452 23.1946 77.8197 23.4397 78.1295 23.7488C78.4393 24.0579 78.6853 24.425 78.8532 24.8291C79.0212 25.2332 79.1079 25.6665 79.1084 26.1041Z" fill="#37FECE"/>
<path d="M75.7718 31.554H69.3027C69.1987 31.554 69.0989 31.5127 69.0254 31.4392C68.9519 31.3656 68.9106 31.2659 68.9106 31.1619V22.7755C68.9106 22.6715 68.9519 22.5718 69.0254 22.4983C69.0989 22.4247 69.1987 22.3834 69.3027 22.3834H75.7718C76.7597 22.3845 77.7069 22.7771 78.4058 23.4753C79.1048 24.1734 79.4984 25.1202 79.5005 26.1081V27.8332C79.4973 28.8204 79.1033 29.7662 78.4045 30.4635C77.7057 31.1609 76.7591 31.553 75.7718 31.554ZM69.6947 30.7698H75.7718C76.5521 30.7698 77.3004 30.4602 77.8525 29.9088C78.4046 29.3575 78.7153 28.6095 78.7163 27.8293V26.1042C78.7142 25.3243 78.4032 24.5769 77.8514 24.0258C77.2995 23.4747 76.5518 23.1647 75.7718 23.1636H69.6947V30.7698Z" fill="#093F68"/>
<path d="M73.1489 28.7742C72.72 28.7745 72.2977 28.669 71.9193 28.467C71.5409 28.265 71.2183 27.9728 70.9798 27.6163C70.7414 27.2598 70.5946 26.8499 70.5525 26.4231C70.5103 25.9963 70.5741 25.5657 70.7382 25.1694C70.9023 24.7731 71.1616 24.4235 71.4932 24.1514C71.8247 23.8793 72.2183 23.6932 72.639 23.6096C73.0596 23.526 73.4944 23.5475 73.9048 23.6722C74.3152 23.7968 74.6885 24.0207 74.9917 24.3242C75.3559 24.6888 75.604 25.1532 75.7044 25.6587C75.8049 26.1643 75.7532 26.6882 75.556 27.1644C75.3589 27.6406 75.0249 28.0477 74.5965 28.3342C74.1681 28.6207 73.6643 28.7738 73.1489 28.7742ZM73.1489 24.3438C72.7271 24.3441 72.3185 24.4907 71.9927 24.7585C71.6669 25.0264 71.444 25.3989 71.3621 25.8126C71.2801 26.2264 71.3441 26.6557 71.5432 27.0275C71.7423 27.3994 72.0642 27.6906 72.454 27.8518C72.8437 28.0129 73.2773 28.0339 73.6809 27.9112C74.0844 27.7885 74.4329 27.5296 74.667 27.1788C74.9011 26.8279 75.0063 26.4068 74.9647 25.9871C74.9231 25.5674 74.7372 25.1751 74.4388 24.877C74.2696 24.7074 74.0686 24.573 73.8472 24.4815C73.6258 24.3899 73.3885 24.3431 73.1489 24.3438Z" fill="#093F68"/>
<path d="M76.458 29.868C76.3551 29.8676 76.2565 29.8268 76.1835 29.7543L74.4388 28.0135C74.365 27.9397 74.3235 27.8396 74.3235 27.7352C74.3235 27.6308 74.365 27.5306 74.4388 27.4568C74.5126 27.383 74.6128 27.3415 74.7172 27.3415C74.8216 27.3415 74.9217 27.383 74.9955 27.4568L76.7363 29.1976C76.7731 29.234 76.8023 29.2774 76.8222 29.3252C76.8421 29.373 76.8523 29.4242 76.8523 29.476C76.8523 29.5277 76.8421 29.579 76.8222 29.6268C76.8023 29.6745 76.7731 29.7179 76.7363 29.7543C76.6997 29.7907 76.6563 29.8194 76.6085 29.8389C76.5607 29.8585 76.5096 29.8683 76.458 29.868Z" fill="#093F68"/>
<path d="M33.3296 40.929L37.0986 43.5917L32.2347 50.4765L28.4657 47.8138L33.3296 40.929Z" fill="#093F68"/>
<path d="M32.244 50.8714C32.1633 50.8719 32.0847 50.8457 32.0205 50.7969L28.2488 48.1347C28.1643 48.0755 28.1065 47.9853 28.0881 47.8838C28.0723 47.7808 28.0961 47.6758 28.1547 47.5897L33.0203 40.7049C33.0795 40.6204 33.1697 40.5626 33.2712 40.5442C33.3742 40.5284 33.4792 40.5522 33.5653 40.6108L37.3331 43.273C37.3754 43.3028 37.4114 43.3406 37.439 43.3844C37.4665 43.4281 37.4852 43.4769 37.4939 43.5278C37.5038 43.5782 37.503 43.63 37.4915 43.68C37.48 43.73 37.4581 43.777 37.4272 43.818L32.5655 50.7028C32.5295 50.7547 32.4814 50.7972 32.4255 50.8265C32.3695 50.8559 32.3072 50.8713 32.244 50.8714ZM29.0212 47.7348L32.1578 49.9421L36.5686 43.7004L33.432 41.4891L29.0212 47.7348Z" fill="#093F68"/>
<path d="M36.1274 34.8335L41.9138 38.9214L37.0499 45.8062L31.2635 41.7183L36.1274 34.8335Z" fill="#71B7EA"/>
<path d="M37.0783 46.1939C36.997 46.1945 36.9175 46.1699 36.8509 46.1234L31.0678 42.038C31.0254 42.0083 30.9893 41.9704 30.9616 41.9267C30.9339 41.883 30.9151 41.8342 30.9064 41.7831C30.8976 41.7321 30.8991 41.6798 30.9107 41.6294C30.9222 41.5789 30.9436 41.5312 30.9737 41.4891L35.8354 34.6043C35.897 34.5204 35.9881 34.463 36.0903 34.4435C36.192 34.4267 36.2962 34.4507 36.3804 34.5102L42.1674 38.5995C42.2519 38.6595 42.3093 38.7504 42.3269 38.8526C42.3445 38.9547 42.321 39.0596 42.2615 39.1445L37.3998 46.0293C37.37 46.0715 37.3322 46.1075 37.2884 46.1351C37.2447 46.1627 37.1959 46.1813 37.1449 46.19L37.0783 46.1939ZM31.8402 41.6224L36.9842 45.2569L41.3911 39.0112L36.2471 35.3767L31.8402 41.6224Z" fill="#093F68"/>
<path d="M32.6959 49.3581L29.3752 47.0121C28.6943 46.5311 27.7524 46.6931 27.2714 47.374L17.8717 60.6792C17.3907 61.3601 17.5527 62.302 18.2336 62.7831L21.5543 65.129C22.2351 65.6101 23.1771 65.448 23.6581 64.7672L33.0578 51.4619C33.5388 50.7811 33.3768 49.8391 32.6959 49.3581Z" fill="#71B7EA"/>
<path d="M22.4305 65.7936C22.0384 65.7938 21.6561 65.6719 21.3366 65.4447L18.0157 63.0923C17.604 62.8011 17.3247 62.3583 17.2394 61.8612C17.1541 61.3642 17.2698 60.8536 17.5609 60.4418L26.9707 47.1349C27.1158 46.9309 27.2998 46.7575 27.512 46.6247C27.7243 46.4919 27.9608 46.4024 28.2078 46.3612C28.4547 46.32 28.7074 46.3281 28.9513 46.3848C29.1952 46.4415 29.4255 46.5459 29.6289 46.6919L32.9498 49.0443C33.3607 49.3361 33.6392 49.7789 33.7245 50.2756C33.8097 50.7723 33.6947 51.2826 33.4046 51.6947L23.9948 65.0016C23.8168 65.2495 23.5817 65.4509 23.3094 65.5887C23.0371 65.7266 22.7356 65.7968 22.4305 65.7936ZM21.7875 64.8056C21.9076 64.892 22.0437 64.9538 22.1879 64.9872C22.3321 65.0206 22.4815 65.025 22.6274 65.0002C22.7733 64.9754 22.9128 64.9218 23.0378 64.8427C23.1629 64.7635 23.2709 64.6603 23.3558 64.539L32.7655 51.2321C32.8517 51.1117 32.9132 50.9754 32.9463 50.8311C32.9794 50.6867 32.9835 50.5373 32.9583 50.3913C32.9331 50.2454 32.8792 50.106 32.7997 49.9811C32.7201 49.8562 32.6165 49.7483 32.495 49.6638L29.1741 47.3114C29.0537 47.2251 28.9174 47.1637 28.7731 47.1306C28.6288 47.0975 28.4793 47.0934 28.3334 47.1185C28.1875 47.1437 28.048 47.1976 27.9231 47.2772C27.7982 47.3567 27.6903 47.4603 27.6058 47.5819L18.1961 60.8888C18.1109 61.0078 18.0504 61.1427 18.018 61.2854C17.9857 61.4281 17.9823 61.5759 18.0079 61.72C18.0323 61.8649 18.085 62.0035 18.1631 62.128C18.2411 62.2524 18.3429 62.3603 18.4627 62.4453L21.7836 64.7978L21.7875 64.8056Z" fill="#093F68"/>
<path d="M55.1645 14.0283C52.475 12.1292 49.2827 11.0702 45.9914 10.9853C42.7 10.9004 39.4574 11.7933 36.6735 13.5513C33.8896 15.3092 31.6895 17.8532 30.3515 20.8615C29.0134 23.8698 28.5974 27.2073 29.1561 30.452C29.7148 33.6967 31.2231 36.7029 33.4902 39.0904C35.7574 41.4779 38.6816 43.1396 41.8931 43.8652C45.1047 44.5908 48.4592 44.3478 51.5326 43.167C54.606 41.9861 57.2603 39.9205 59.1597 37.2311C60.4211 35.4453 61.3182 33.4286 61.8001 31.296C62.2819 29.1634 62.339 26.9569 61.968 24.8022C61.597 22.6476 60.8052 20.5872 59.6379 18.7386C58.4705 16.89 56.9505 15.2894 55.1645 14.0283ZM39.1484 36.7058C37.3526 35.4375 35.9733 33.6653 35.1848 31.6131C34.3964 29.5609 34.2341 27.321 34.7187 25.1766C35.2033 23.0323 36.3128 21.0797 37.9071 19.566C39.5014 18.0522 41.5087 17.0452 43.6753 16.6724C45.8419 16.2995 48.0704 16.5774 50.079 17.4711C52.0876 18.3648 53.7861 19.834 54.9596 21.693C56.1332 23.552 56.7291 25.7173 56.6721 27.9149C56.6151 30.1126 55.9076 32.2441 54.6392 34.0397C52.9384 36.4473 50.3509 38.0808 47.4459 38.5807C44.5409 39.0807 41.5562 38.4063 39.1484 36.7058Z" fill="#71B7EA"/>
<path d="M45.5235 44.6727C42.8463 44.665 40.2085 44.0267 37.824 42.8095C35.4394 41.5923 33.3751 39.8305 31.7984 37.6668C30.2217 35.5031 29.1769 32.9984 28.7486 30.3556C28.3204 27.7129 28.5207 25.0064 29.3335 22.4555C30.1462 19.9046 31.5485 17.581 33.4266 15.6731C35.3047 13.7652 37.6059 12.3265 40.1437 11.4737C42.6815 10.621 45.3845 10.378 48.0337 10.7646C50.6829 11.1512 53.2037 12.1565 55.392 13.699C58.1471 15.6433 60.2635 18.3612 61.4735 21.5088C62.6834 24.6563 62.9325 28.0921 62.1891 31.3812C61.4457 34.6704 59.7433 37.6651 57.2974 39.9864C54.8514 42.3077 51.7719 43.8513 48.4484 44.4217C47.4823 44.5885 46.5038 44.6725 45.5235 44.6727ZM45.5823 11.3779C41.7058 11.3766 37.9567 12.7619 35.0125 15.2837C32.0683 17.8054 30.1233 21.2972 29.529 25.1279C28.9347 28.9585 29.7303 32.8755 31.772 36.1707C33.8137 39.466 36.9668 41.9222 40.6615 43.0955C44.3562 44.2688 48.3488 44.0817 51.9176 42.568C55.4864 41.0544 58.396 38.3141 60.1206 34.8423C61.8452 31.3706 62.271 27.3964 61.3211 23.6381C60.3712 19.8797 58.1082 16.5852 54.9411 14.3498C52.2027 12.4177 48.9338 11.3796 45.5823 11.3779ZM45.5431 39.1288C42.9663 39.1249 40.4654 38.2559 38.4413 36.6612C36.4173 35.0665 34.9873 32.8383 34.3805 30.334C33.7738 27.8296 34.0255 25.194 35.0952 22.8498C36.165 20.5055 37.9909 18.5883 40.2802 17.4055C42.5695 16.2227 45.1897 15.8428 47.7206 16.3266C50.2516 16.8105 52.5468 18.1302 54.2384 20.0741C55.9299 22.018 56.9198 24.4735 57.0493 27.0471C57.1789 29.6206 56.4406 32.1631 54.9528 34.2671C53.8909 35.7744 52.4812 37.0034 50.8431 37.8497C49.205 38.6961 47.3869 39.1348 45.5431 39.1288ZM45.5745 16.9101C43.0165 16.9084 40.5423 17.8219 38.5991 19.4855C36.6559 21.149 35.3719 23.4529 34.9793 25.9806C34.5866 28.5082 35.1112 31.093 36.4581 33.2677C37.8051 35.4423 39.8855 37.0634 42.3235 37.8378C44.7614 38.6123 47.396 38.489 49.751 37.4903C52.106 36.4916 54.0261 34.6834 55.1641 32.3925C56.3021 30.1016 56.583 27.4791 55.9561 24.9992C55.3292 22.5192 53.8357 20.3453 51.7457 18.8704C49.9421 17.5902 47.7863 16.8999 45.5745 16.8944V16.9101Z" fill="#093F68"/>
<path d="M45.5588 38.7446C51.6976 38.7446 56.6741 33.7681 56.6741 27.6293C56.6741 21.4906 51.6976 16.5141 45.5588 16.5141C39.42 16.5141 34.4436 21.4906 34.4436 27.6293C34.4436 33.7681 39.42 38.7446 45.5588 38.7446Z" fill="white"/>
<path d="M45.5431 39.1288C42.9684 39.124 40.4698 38.255 38.4479 36.661C36.4259 35.0671 34.9975 32.8404 34.3917 30.338C33.7859 27.8356 34.0378 25.2022 35.1069 22.86C36.176 20.5177 38.0004 18.6022 40.2879 17.4203C42.5753 16.2385 45.1933 15.8588 47.7222 16.342C50.2512 16.8253 52.5447 18.1436 54.2352 20.0856C55.9257 22.0276 56.9153 24.4809 57.0454 27.0523C57.1755 29.6237 56.4387 32.1644 54.9528 34.2671C53.891 35.7744 52.4812 37.0034 50.8431 37.8498C49.205 38.6961 47.3869 39.1349 45.5431 39.1288ZM45.5745 16.9101C43.0165 16.9084 40.5423 17.8219 38.5991 19.4855C36.6559 21.1491 35.3719 23.4529 34.9793 25.9806C34.5866 28.5083 35.1112 31.093 36.4581 33.2677C37.8051 35.4423 39.8855 37.0634 42.3235 37.8378C44.7615 38.6123 47.396 38.489 49.751 37.4903C52.106 36.4917 54.0261 34.6834 55.1641 32.3925C56.3021 30.1016 56.5831 27.4792 55.9561 24.9992C55.3292 22.5192 53.8357 20.3453 51.7457 18.8704C49.9421 17.5902 47.7863 16.8999 45.5745 16.8944V16.9101Z" fill="#093F68"/>
<path d="M38.9602 26.5237C38.8977 26.4499 38.8165 26.3943 38.725 26.3629C38.6358 26.33 38.5417 26.3127 38.4466 26.3119C38.3933 26.3045 38.3392 26.3045 38.2859 26.3119C38.2328 26.3237 38.1814 26.3421 38.133 26.3668C38.087 26.3921 38.0469 26.4268 38.0154 26.4688C37.9934 26.4985 37.9776 26.5323 37.9689 26.5683C37.9602 26.6042 37.9587 26.6415 37.9645 26.678C37.9704 26.7145 37.9834 26.7494 38.0029 26.7808C38.0224 26.8122 38.048 26.8394 38.0781 26.8608C38.1626 26.9184 38.2551 26.9633 38.3525 26.9941L38.7093 27.1039C38.8346 27.1386 38.9546 27.19 39.0661 27.2568C39.1758 27.3248 39.2695 27.4157 39.3406 27.5234C39.4205 27.6598 39.4586 27.8165 39.4503 27.9743C39.4536 28.1357 39.4187 28.2956 39.3484 28.4409C39.2841 28.5707 39.1917 28.6845 39.0779 28.7742C38.9606 28.8635 38.8276 28.93 38.6858 28.9702C38.5309 29.011 38.3715 29.0321 38.2114 29.0329C38.0127 29.0348 37.8152 29.003 37.6272 28.9388C37.4428 28.8687 37.2737 28.7635 37.1293 28.6291L37.6311 28.0723C37.7041 28.1696 37.7996 28.2477 37.9095 28.2997C38.0158 28.3512 38.1324 28.3781 38.2506 28.3782C38.3099 28.3774 38.369 28.3709 38.427 28.3586C38.4819 28.3449 38.5347 28.3238 38.5839 28.2958C38.6286 28.2704 38.6674 28.2356 38.6976 28.1939C38.7265 28.1482 38.7415 28.0951 38.7407 28.041C38.7426 27.997 38.7336 27.9531 38.7144 27.9135C38.6953 27.8738 38.6666 27.8395 38.6309 27.8136C38.5456 27.752 38.4518 27.7032 38.3525 27.6685L37.9879 27.5509C37.8606 27.5132 37.7382 27.4606 37.6233 27.3941C37.5134 27.3266 37.4186 27.2372 37.3449 27.1314C37.2659 27.0019 37.2277 26.8516 37.2351 26.7001C37.2299 26.5423 37.265 26.3858 37.3371 26.2453C37.4014 26.1166 37.4939 26.0041 37.6076 25.9159C37.7249 25.8266 37.8579 25.7601 37.9997 25.7199C38.1487 25.6761 38.3031 25.6537 38.4584 25.6533C38.6377 25.6535 38.816 25.6799 38.9877 25.7317C39.1577 25.7834 39.3143 25.8717 39.4464 25.9904L38.9602 26.5237Z" fill="#093F68"/>
<path d="M41.9792 28.5742C41.8695 28.7126 41.7284 28.8228 41.5675 28.8957C41.4037 28.97 41.226 29.0087 41.0461 29.0094C40.883 29.0101 40.7212 28.9822 40.5677 28.9271C40.4226 28.8758 40.2892 28.7958 40.1757 28.6918C40.0622 28.5912 39.9724 28.4667 39.913 28.3272C39.7877 28.022 39.7877 27.6797 39.913 27.3745C39.9734 27.2355 40.063 27.1112 40.1757 27.0098C40.2892 26.9059 40.4226 26.8258 40.5677 26.7746C40.7212 26.7194 40.883 26.6916 41.0461 26.6923C41.1939 26.6901 41.3407 26.7181 41.4774 26.7746C41.6029 26.8262 41.7144 26.9068 41.8028 27.0098C41.896 27.116 41.9667 27.2401 42.0106 27.3745C42.0609 27.5289 42.0861 27.6904 42.0851 27.8528V28.0645H40.5168C40.5397 28.1854 40.6033 28.2947 40.6971 28.3742C40.7895 28.4539 40.9085 28.4959 41.0304 28.4919C41.1311 28.4959 41.2307 28.4699 41.3166 28.4174C41.3941 28.3657 41.4619 28.3007 41.5166 28.2253L41.9792 28.5742ZM41.3911 27.6019C41.3935 27.5476 41.3847 27.4935 41.3651 27.4429C41.3455 27.3923 41.3157 27.3463 41.2774 27.3078C41.2386 27.2659 41.1912 27.2329 41.1384 27.2113C41.0855 27.1896 41.0286 27.1797 40.9716 27.1823C40.9029 27.1805 40.8346 27.1939 40.7716 27.2216C40.7188 27.2437 40.6698 27.2741 40.6266 27.3117C40.5848 27.3487 40.5514 27.3941 40.5285 27.445C40.5077 27.4951 40.4945 27.5479 40.4893 27.6019H41.3911Z" fill="#093F68"/>
<path d="M43.8807 28.6761C43.8108 28.792 43.7047 28.8815 43.5788 28.931C43.3584 29.0217 43.1134 29.0342 42.8849 28.9663C42.7921 28.9408 42.7054 28.8968 42.63 28.8369C42.5581 28.7779 42.4993 28.7044 42.4575 28.6213C42.4137 28.5246 42.391 28.4196 42.391 28.3135C42.391 28.2073 42.4137 28.1024 42.4575 28.0057C42.5039 27.9188 42.5696 27.8436 42.6496 27.7861C42.7337 27.7278 42.8263 27.6829 42.9241 27.6528C43.0292 27.6206 43.1367 27.597 43.2456 27.5823C43.3548 27.5673 43.4647 27.5581 43.5749 27.5548H43.8807C43.883 27.5003 43.8725 27.446 43.8501 27.3963C43.8276 27.3466 43.7938 27.3029 43.7514 27.2686C43.6666 27.1953 43.5576 27.1561 43.4455 27.1588C43.3394 27.1575 43.2345 27.1817 43.1397 27.2294C43.045 27.2773 42.9609 27.344 42.8927 27.4254L42.5281 27.053C42.6558 26.9326 42.8084 26.8416 42.975 26.7864C43.1439 26.727 43.3215 26.6965 43.5004 26.6962C43.6682 26.6923 43.8353 26.7175 43.9944 26.7707C44.1141 26.8153 44.2197 26.8911 44.3003 26.9902C44.3813 27.0953 44.4376 27.2172 44.4649 27.347C44.4948 27.5086 44.5093 27.6728 44.5081 27.8371V28.9584H43.8807V28.6761ZM43.7121 27.9861H43.52C43.4442 27.9896 43.3691 28.0028 43.2966 28.0253C43.2302 28.043 43.1687 28.0752 43.1162 28.1194C43.091 28.1411 43.0712 28.1683 43.0583 28.1989C43.0454 28.2295 43.0397 28.2627 43.0417 28.2958C43.0398 28.3335 43.0487 28.3709 43.0675 28.4036C43.0863 28.4362 43.1141 28.4628 43.1476 28.4801C43.2129 28.5187 43.2874 28.539 43.3632 28.5389C43.4283 28.54 43.4931 28.5307 43.5553 28.5115C43.6152 28.4942 43.6721 28.4677 43.7239 28.4331C43.7743 28.3991 43.8151 28.3528 43.8425 28.2986C43.87 28.2443 43.8831 28.184 43.8807 28.1233V27.9783L43.7121 27.9861Z" fill="#093F68"/>
<path d="M44.9197 26.7472H45.6019V27.1C45.6647 26.9803 45.753 26.8759 45.8607 26.7942C45.9778 26.7209 46.1147 26.6853 46.2528 26.6923H46.3704L46.4802 26.7119V27.3353C46.4341 27.3198 46.3869 27.308 46.339 27.3C46.2894 27.2959 46.2396 27.2959 46.19 27.3C46.0841 27.2964 45.9785 27.3151 45.8803 27.3549C45.8088 27.3874 45.7487 27.4407 45.7078 27.5078C45.6619 27.5785 45.6336 27.6591 45.6254 27.743C45.6191 27.8422 45.6191 27.9418 45.6254 28.041V28.9624H44.9197V26.7472Z" fill="#093F68"/>
<path d="M48.1975 27.4803C48.1588 27.4274 48.108 27.3845 48.0494 27.3552C47.9907 27.3259 47.9259 27.311 47.8603 27.3118C47.788 27.3093 47.716 27.3216 47.6486 27.3479C47.5812 27.3742 47.5198 27.4139 47.4683 27.4647C47.377 27.5802 47.3273 27.7232 47.3273 27.8705C47.3273 28.0177 47.377 28.1607 47.4683 28.2763C47.5198 28.327 47.5812 28.3667 47.6486 28.393C47.716 28.4193 47.788 28.4316 47.8603 28.4292C47.9292 28.4315 47.9973 28.4138 48.0564 28.3782C48.1101 28.3478 48.1579 28.3079 48.1975 28.2606L48.6445 28.735C48.5409 28.8403 48.413 28.9184 48.272 28.9624C48.1387 29.0043 48.0001 29.0268 47.8603 29.029C47.6973 29.0301 47.5353 29.0023 47.382 28.9467C47.2372 28.8947 47.104 28.8148 46.9899 28.7115C46.8788 28.6096 46.7906 28.4854 46.7312 28.3468C46.6348 28.1271 46.6079 27.8831 46.6541 27.6476C46.7004 27.4121 46.8176 27.1964 46.9899 27.0295C47.104 26.9262 47.2372 26.8462 47.382 26.7942C47.5353 26.7387 47.6973 26.7108 47.8603 26.7119C48.0001 26.7142 48.1387 26.7366 48.272 26.7785C48.413 26.8226 48.5409 26.9007 48.6445 27.0059L48.1975 27.4803Z" fill="#093F68"/>
<path d="M49.5736 25.52V27.049C49.5911 27.0012 49.6177 26.9573 49.652 26.9197C49.6895 26.8758 49.7331 26.8376 49.7814 26.806C49.8395 26.7717 49.9013 26.7441 49.9656 26.7236C50.0383 26.7028 50.1135 26.6923 50.1891 26.6923C50.3335 26.6863 50.4772 26.7145 50.6086 26.7746C50.7104 26.8225 50.7962 26.8987 50.8557 26.9941C50.9181 27.0945 50.9595 27.2066 50.9772 27.3235C50.9982 27.461 51.0087 27.6 51.0086 27.7391V28.9545H50.3264V27.8724C50.3302 27.8071 50.3302 27.7416 50.3264 27.6764C50.3236 27.6119 50.3103 27.5484 50.2872 27.4882C50.2657 27.4322 50.229 27.3833 50.1813 27.347C50.1223 27.3077 50.0522 27.2884 49.9813 27.2921C49.9066 27.2892 49.8324 27.3054 49.7657 27.3392C49.7138 27.37 49.6717 27.4149 49.6442 27.4686C49.6118 27.5223 49.5918 27.5826 49.5853 27.645C49.5812 27.7155 49.5812 27.7862 49.5853 27.8567V28.9545H48.9031V25.52H49.5736Z" fill="#093F68"/>
<path d="M51.5105 28.5624C51.511 28.5074 51.5217 28.4529 51.5418 28.4017C51.5624 28.3515 51.5931 28.3061 51.632 28.2684C51.6697 28.2294 51.7151 28.1987 51.7653 28.1782C51.8178 28.1576 51.8736 28.147 51.93 28.1469C51.985 28.1474 52.0395 28.158 52.0907 28.1782C52.1427 28.1975 52.1897 28.2283 52.228 28.2684C52.2655 28.3065 52.2949 28.3518 52.3142 28.4017C52.3359 28.4525 52.3466 28.5073 52.3456 28.5624C52.3471 28.619 52.3364 28.6751 52.3142 28.7271C52.2949 28.777 52.2655 28.8223 52.228 28.8604C52.1886 28.8992 52.142 28.9299 52.0907 28.9506C52.0395 28.9708 51.985 28.9814 51.93 28.982C51.8736 28.9818 51.8178 28.9712 51.7653 28.9506C51.7158 28.9289 51.6706 28.8984 51.632 28.8604C51.5931 28.8227 51.5624 28.7773 51.5418 28.7271C51.5213 28.6746 51.5106 28.6188 51.5105 28.5624Z" fill="#093F68"/>
<path d="M52.8552 28.5624C52.8558 28.5074 52.8664 28.4529 52.8866 28.4017C52.9071 28.3515 52.9378 28.3061 52.9768 28.2684C53.0136 28.2284 53.0592 28.1975 53.1101 28.1782C53.1625 28.1576 53.2184 28.147 53.2747 28.1469C53.3298 28.1474 53.3843 28.158 53.4355 28.1782C53.536 28.2211 53.6161 28.3012 53.659 28.4017C53.6791 28.4529 53.6898 28.5074 53.6903 28.5624C53.6902 28.6188 53.6795 28.6746 53.659 28.7271C53.6397 28.778 53.6088 28.8236 53.5688 28.8604C53.5311 28.8994 53.4857 28.9301 53.4355 28.9506C53.3843 28.9708 53.3298 28.9814 53.2747 28.982C53.2184 28.9818 53.1625 28.9712 53.1101 28.9506C53.0095 28.9077 52.9295 28.8277 52.8866 28.7271C52.866 28.6746 52.8554 28.6188 52.8552 28.5624Z" fill="#093F68"/>
<path d="M54.2 28.5624C54.2006 28.5074 54.2112 28.4529 54.2314 28.4017C54.2743 28.3012 54.3543 28.2211 54.4549 28.1782C54.5061 28.158 54.5606 28.1474 54.6156 28.1469C54.672 28.147 54.7278 28.1576 54.7803 28.1782C54.8809 28.2211 54.9609 28.3012 55.0038 28.4017C55.024 28.4529 55.0346 28.5074 55.0352 28.5624C55.035 28.6188 55.0244 28.6746 55.0038 28.7271C54.9845 28.778 54.9537 28.8236 54.9136 28.8604C54.8759 28.8994 54.8305 28.9301 54.7803 28.9506C54.7278 28.9712 54.672 28.9818 54.6156 28.982C54.5606 28.9814 54.5061 28.9708 54.4549 28.9506C54.4047 28.9301 54.3593 28.8994 54.3216 28.8604C54.2815 28.8236 54.2507 28.778 54.2314 28.7271C54.2108 28.6746 54.2002 28.6188 54.2 28.5624Z" fill="#093F68"/>
<path d="M17.3649 37.2664H2.32893C1.25924 37.2664 0.39209 38.1336 0.39209 39.2032V50.8556C0.39209 51.9253 1.25924 52.7925 2.32893 52.7925H17.3649C18.4346 52.7925 19.3017 51.9253 19.3017 50.8556V39.2032C19.3017 38.1336 18.4346 37.2664 17.3649 37.2664Z" fill="#D33807"/>
<path d="M17.3649 53.1846H2.32499C1.708 53.1835 1.11664 52.9377 0.680736 52.5011C0.244828 52.0644 -8.74322e-07 51.4727 0 50.8557V39.1994C0.00516419 38.5858 0.252272 37.999 0.687622 37.5666C1.12297 37.1342 1.71138 36.8911 2.32499 36.8901H17.3649C17.98 36.8962 18.5682 37.143 19.0035 37.5776C19.4389 38.0122 19.6866 38.6 19.6938 39.2151V50.8714C19.6836 51.4844 19.4345 52.0692 18.9995 52.5013C18.5645 52.9334 17.978 53.1785 17.3649 53.1846ZM2.32499 37.6742C2.12264 37.6742 1.92228 37.7141 1.73533 37.7915C1.54839 37.8689 1.37853 37.9824 1.23545 38.1255C1.09237 38.2686 0.978869 38.4385 0.901435 38.6254C0.824 38.8124 0.784144 39.0127 0.784144 39.2151V50.8714C0.783628 51.074 0.823103 51.2748 0.900307 51.4622C0.977511 51.6496 1.09093 51.8199 1.23406 51.9634C1.37719 52.1069 1.54723 52.2208 1.73443 52.2985C1.92163 52.3761 2.12231 52.4161 2.32499 52.4161H17.3649C17.7746 52.4161 18.1675 52.2534 18.4572 51.9637C18.7469 51.674 18.9096 51.2811 18.9096 50.8714V39.1994C18.9086 38.7904 18.7454 38.3985 18.4558 38.1096C18.1662 37.8207 17.7739 37.6585 17.3649 37.6585L2.32499 37.6742Z" fill="#093F68"/>
<path d="M6.72403 49.4599V40.5991L14.4635 45.0295L6.72403 49.4599Z" fill="white"/>
<path d="M6.72401 49.852C6.65533 49.8524 6.58773 49.8349 6.52798 49.801C6.46815 49.7665 6.4185 49.7167 6.38408 49.6568C6.34965 49.5969 6.33167 49.529 6.33194 49.4599V40.5991C6.33167 40.53 6.34965 40.4621 6.38408 40.4022C6.4185 40.3423 6.46815 40.2925 6.52798 40.258C6.58758 40.2236 6.65519 40.2054 6.72401 40.2054C6.79284 40.2054 6.86045 40.2236 6.92005 40.258L14.6596 44.6884C14.7199 44.7226 14.7701 44.7722 14.805 44.8321C14.8399 44.892 14.8583 44.9601 14.8583 45.0295C14.8583 45.0988 14.8399 45.167 14.805 45.2269C14.7701 45.2868 14.7199 45.3364 14.6596 45.3706L6.92005 49.801C6.8603 49.8349 6.7927 49.8524 6.72401 49.852ZM7.11609 41.2734V48.7855L13.6755 45.0295L7.11609 41.2734Z" fill="#093F68"/>
<path d="M89.659 2.93268H71.8236C71.0744 2.93268 70.4671 3.54003 70.4671 4.28925V16.6826C70.4671 17.4319 71.0744 18.0392 71.8236 18.0392H89.659C90.4082 18.0392 91.0156 17.4319 91.0156 16.6826V4.28925C91.0156 3.54003 90.4082 2.93268 89.659 2.93268Z" fill="#F8DC95"/>
<path d="M89.659 18.4313H71.8237C71.3599 18.4313 70.9151 18.247 70.5872 17.9191C70.2593 17.5912 70.075 17.1464 70.075 16.6826V4.28923C70.075 3.82546 70.2593 3.38069 70.5872 3.05275C70.9151 2.72482 71.3599 2.54059 71.8237 2.54059H89.659C90.1228 2.54059 90.5676 2.72482 90.8955 3.05275C91.2235 3.38069 91.4077 3.82546 91.4077 4.28923V16.6826C91.4077 17.1464 91.2235 17.5912 90.8955 17.9191C90.5676 18.247 90.1228 18.4313 89.659 18.4313ZM71.8237 3.32473C71.5679 3.32473 71.3226 3.42635 71.1417 3.60723C70.9608 3.78811 70.8592 4.03343 70.8592 4.28923V16.6826C70.8602 16.9381 70.9622 17.1828 71.1428 17.3635C71.3235 17.5441 71.5682 17.6461 71.8237 17.6471H89.659C89.9148 17.6471 90.1602 17.5455 90.341 17.3646C90.5219 17.1838 90.6235 16.9384 90.6235 16.6826V4.28923C90.6235 4.03343 90.5219 3.78811 90.341 3.60723C90.1602 3.42635 89.9148 3.32473 89.659 3.32473H71.8237Z" fill="#093F68"/>
<path d="M70.4671 16.4318C70.3718 16.4316 70.2798 16.3968 70.2083 16.3337C70.1694 16.2994 70.1378 16.2577 70.1151 16.2111C70.0925 16.1644 70.0793 16.1137 70.0764 16.0619C70.0735 16.0101 70.0809 15.9583 70.0981 15.9094C70.1154 15.8605 70.1422 15.8155 70.177 15.777L76.6775 8.4727C76.7487 8.39772 76.845 8.35165 76.948 8.34332C77.0001 8.34042 77.0523 8.34793 77.1014 8.36544C77.1506 8.38294 77.1957 8.41008 77.2342 8.44526L83.9583 14.4792C84.0296 14.55 84.071 14.6453 84.0741 14.7457C84.0772 14.8461 84.0416 14.9438 83.9747 15.0187C83.9078 15.0937 83.8148 15.1401 83.7147 15.1484C83.6146 15.1567 83.5151 15.1263 83.4368 15.0634L77.0186 9.28821L70.7454 16.3024C70.7101 16.3416 70.6673 16.3732 70.6195 16.3954C70.5716 16.4177 70.5198 16.43 70.4671 16.4318Z" fill="#093F68"/>
<path d="M82.3783 13.9656C82.3239 13.966 82.27 13.955 82.22 13.9334C82.1701 13.9118 82.1252 13.88 82.0882 13.8401C82.0529 13.8022 82.0255 13.7576 82.0076 13.7089C81.9897 13.6603 81.9816 13.6086 81.9838 13.5569C81.986 13.5051 81.9984 13.4543 82.0204 13.4073C82.0423 13.3604 82.0734 13.3183 82.1117 13.2834L85.9854 9.71554C86.0498 9.65601 86.1323 9.61979 86.2197 9.61268C86.3072 9.60557 86.3944 9.62798 86.4676 9.67633L91.2352 12.8678C91.322 12.9266 91.382 13.0174 91.4018 13.1203C91.4217 13.2233 91.3998 13.3299 91.3411 13.4167C91.2823 13.5035 91.1915 13.5635 91.0885 13.5833C90.9856 13.6032 90.879 13.5813 90.7922 13.5226L86.2794 10.5036L82.6371 13.8597C82.5668 13.9256 82.4746 13.9633 82.3783 13.9656Z" fill="#093F68"/>
<path d="M82.3783 8.73537C83.2379 8.73537 83.9348 8.03849 83.9348 7.17884C83.9348 6.3192 83.2379 5.62231 82.3783 5.62231C81.5187 5.62231 80.8218 6.3192 80.8218 7.17884C80.8218 8.03849 81.5187 8.73537 82.3783 8.73537Z" fill="white"/>
<path d="M82.3783 9.12745C81.9906 9.12745 81.6116 9.01248 81.2892 8.79707C80.9668 8.58166 80.7155 8.27549 80.5672 7.91728C80.4188 7.55908 80.38 7.16491 80.4556 6.78464C80.5312 6.40437 80.7179 6.05506 80.9921 5.7809C81.2663 5.50674 81.6156 5.32004 81.9959 5.24439C82.3761 5.16875 82.7703 5.20758 83.1285 5.35595C83.4867 5.50433 83.7929 5.75559 84.0083 6.07797C84.2237 6.40035 84.3387 6.77937 84.3387 7.16709C84.3387 7.68701 84.1321 8.18563 83.7645 8.55327C83.3968 8.92091 82.8982 9.12745 82.3783 9.12745ZM82.3783 6.0144C82.1457 6.0144 81.9183 6.08338 81.7248 6.21262C81.5314 6.34187 81.3806 6.52557 81.2916 6.74049C81.2026 6.95542 81.1793 7.19192 81.2247 7.42008C81.2701 7.64825 81.3821 7.85783 81.5466 8.02232C81.7111 8.18682 81.9207 8.29884 82.1488 8.34423C82.377 8.38961 82.6135 8.36632 82.8284 8.27729C83.0433 8.18827 83.227 8.03751 83.3563 7.84408C83.4855 7.65065 83.5545 7.42325 83.5545 7.19061C83.5545 6.87866 83.4306 6.57948 83.21 6.3589C82.9894 6.13832 82.6903 6.0144 82.3783 6.0144Z" fill="#093F68"/>
<path d="M89.8159 52.5024H76.6462V40.3717L79.4103 37.6899H89.8159V52.5024Z" fill="white"/>
<path d="M89.8159 52.8944H76.6462C76.5422 52.8944 76.4424 52.8531 76.3689 52.7796C76.2954 52.7061 76.2541 52.6063 76.2541 52.5023V40.3716C76.2543 40.3188 76.2652 40.2666 76.286 40.2181C76.3069 40.1696 76.3374 40.1258 76.3756 40.0893L79.1201 37.4115C79.1932 37.3391 79.2917 37.2982 79.3946 37.2978H89.8002C89.9042 37.2978 90.0039 37.3391 90.0774 37.4126C90.1509 37.4862 90.1922 37.5859 90.1922 37.6899V52.5023C90.1923 52.6037 90.1532 52.7011 90.083 52.7742C90.0128 52.8473 89.9171 52.8904 89.8159 52.8944ZM77.0382 52.1103H89.4238V38.0663H79.5671L77.0382 40.5206V52.1103Z" fill="#093F68"/>
<path d="M76.6462 40.3717H79.3828V37.6899L76.6462 40.3717Z" fill="white"/>
<path d="M79.3828 40.7637H76.6383C76.5599 40.7642 76.4832 40.7412 76.4181 40.6977C76.3529 40.6541 76.3023 40.5921 76.2728 40.5195C76.2432 40.4469 76.2361 40.3671 76.2523 40.2905C76.2686 40.2138 76.3074 40.1438 76.3638 40.0894L79.1083 37.4115C79.1631 37.3579 79.2325 37.3215 79.3077 37.3069C79.383 37.2923 79.4609 37.3 79.5318 37.3292C79.6034 37.3586 79.6647 37.4086 79.7079 37.4727C79.7512 37.5369 79.7745 37.6125 79.7749 37.6899V40.3717C79.7749 40.4757 79.7336 40.5754 79.66 40.6489C79.5865 40.7224 79.4868 40.7637 79.3828 40.7637ZM77.6067 39.9796H78.9907V38.623L77.6067 39.9796Z" fill="#093F68"/>
<path d="M87.3693 43.0025H79.0966C78.9926 43.0025 78.8929 42.9612 78.8194 42.8876C78.7459 42.8141 78.7046 42.7144 78.7046 42.6104C78.7046 42.5064 78.7459 42.4067 78.8194 42.3332C78.8929 42.2596 78.9926 42.2183 79.0966 42.2183H87.3693C87.4733 42.2183 87.5731 42.2596 87.6466 42.3332C87.7201 42.4067 87.7614 42.5064 87.7614 42.6104C87.7614 42.7144 87.7201 42.8141 87.6466 42.8876C87.5731 42.9612 87.4733 43.0025 87.3693 43.0025Z" fill="#DFEAEF"/>
<path d="M87.3693 46.0214H79.0966C78.9926 46.0214 78.8929 45.9801 78.8194 45.9066C78.7459 45.833 78.7046 45.7333 78.7046 45.6293C78.7046 45.5253 78.7459 45.4256 78.8194 45.3521C78.8929 45.2786 78.9926 45.2372 79.0966 45.2372H87.3693C87.4733 45.2372 87.5731 45.2786 87.6466 45.3521C87.7201 45.4256 87.7614 45.5253 87.7614 45.6293C87.7614 45.7333 87.7201 45.833 87.6466 45.9066C87.5731 45.9801 87.4733 46.0214 87.3693 46.0214Z" fill="#DFEAEF"/>
<path d="M85.3776 49.0443H79.1045C79.0005 49.0443 78.9008 49.003 78.8272 48.9294C78.7537 48.8559 78.7124 48.7562 78.7124 48.6522C78.7124 48.5482 78.7537 48.4485 78.8272 48.375C78.9008 48.3014 79.0005 48.2601 79.1045 48.2601H85.3776C85.4816 48.2601 85.5813 48.3014 85.6549 48.375C85.7284 48.4485 85.7697 48.5482 85.7697 48.6522C85.7697 48.7562 85.7284 48.8559 85.6549 48.9294C85.5813 49.003 85.4816 49.0443 85.3776 49.0443Z" fill="#DFEAEF"/>
</svg>
