<svg width="84" height="84" viewBox="0 0 84 84" fill="none" xmlns="http://www.w3.org/2000/svg">
<g filter="url(#filter0_d_5_2542)">
<path d="M0 0H49C65.5685 0 79 13.4315 79 30V79H0V0Z" fill="#71B7EA"/>
<path d="M14.1409 30.0165V16.7165H20.6959C22.1779 16.7165 23.4825 16.9889 24.6099 17.5335C25.7372 18.0655 26.6175 18.8255 27.2509 19.8135C27.8842 20.8015 28.2009 21.9795 28.2009 23.3475C28.2009 24.7282 27.8842 25.9189 27.2509 26.9195C26.6175 27.9075 25.7372 28.6739 24.6099 29.2185C23.4825 29.7505 22.1779 30.0165 20.6959 30.0165H14.1409ZM18.6249 26.5205H20.5059C21.1392 26.5205 21.6902 26.4002 22.1589 26.1595C22.6402 25.9189 23.0139 25.5642 23.2799 25.0955C23.5459 24.6142 23.6789 24.0315 23.6789 23.3475C23.6789 22.6762 23.5459 22.1062 23.2799 21.6375C23.0139 21.1689 22.6402 20.8142 22.1589 20.5735C21.6902 20.3329 21.1392 20.2125 20.5059 20.2125H18.6249V26.5205ZM35.5381 30.3205C33.4988 30.3205 31.9091 29.7695 30.7691 28.6675C29.6291 27.5655 29.0591 26.0202 29.0591 24.0315V16.7165H33.5431V23.8985C33.5431 24.9119 33.7268 25.6339 34.0941 26.0645C34.4615 26.4825 34.9555 26.6915 35.5761 26.6915C36.2095 26.6915 36.7035 26.4825 37.0581 26.0645C37.4255 25.6339 37.6091 24.9119 37.6091 23.8985V16.7165H42.0171V24.0315C42.0171 26.0202 41.4471 27.5655 40.3071 28.6675C39.1671 29.7695 37.5775 30.3205 35.5381 30.3205ZM22.7669 32.7165H27.2509V46.0165H22.7669V32.7165ZM18.6249 46.0165H14.1409V32.7165H18.6249V46.0165ZM23.0709 41.1145H18.3209V37.4285H23.0709V41.1145ZM35.7384 46.3205C34.649 46.3205 33.642 46.1495 32.7174 45.8075C31.8054 45.4655 31.0137 44.9842 30.3424 44.3635C29.671 43.7302 29.1454 42.9892 28.7654 42.1405C28.398 41.2919 28.2144 40.3672 28.2144 39.3665C28.2144 38.3532 28.398 37.4285 28.7654 36.5925C29.1454 35.7439 29.671 35.0092 30.3424 34.3885C31.0137 33.7552 31.8054 33.2675 32.7174 32.9255C33.642 32.5835 34.6427 32.4125 35.7194 32.4125C36.8087 32.4125 37.8094 32.5835 38.7214 32.9255C39.6334 33.2675 40.425 33.7552 41.0964 34.3885C41.7677 35.0092 42.287 35.7439 42.6544 36.5925C43.0344 37.4285 43.2244 38.3532 43.2244 39.3665C43.2244 40.3672 43.0344 41.2919 42.6544 42.1405C42.287 42.9892 41.7677 43.7302 41.0964 44.3635C40.425 44.9842 39.6334 45.4655 38.7214 45.8075C37.8094 46.1495 36.815 46.3205 35.7384 46.3205ZM35.7194 42.6915C36.1374 42.6915 36.5237 42.6155 36.8784 42.4635C37.2457 42.3115 37.5624 42.0962 37.8284 41.8175C38.107 41.5262 38.3224 41.1779 38.4744 40.7725C38.6264 40.3545 38.7024 39.8859 38.7024 39.3665C38.7024 38.8472 38.6264 38.3849 38.4744 37.9795C38.3224 37.5615 38.107 37.2132 37.8284 36.9345C37.5624 36.6432 37.2457 36.4215 36.8784 36.2695C36.5237 36.1175 36.1374 36.0415 35.7194 36.0415C35.3014 36.0415 34.9087 36.1175 34.5414 36.2695C34.1867 36.4215 33.87 36.6432 33.5914 36.9345C33.3254 37.2132 33.1164 37.5615 32.9644 37.9795C32.8124 38.3849 32.7364 38.8472 32.7364 39.3665C32.7364 39.8859 32.8124 40.3545 32.9644 40.7725C33.1164 41.1779 33.3254 41.5262 33.5914 41.8175C33.87 42.0962 34.1867 42.3115 34.5414 42.4635C34.9087 42.6155 35.3014 42.6915 35.7194 42.6915ZM51.0648 46.3205C50.0008 46.3205 49.0128 46.1559 48.1008 45.8265C47.2015 45.4845 46.4162 45.0032 45.7448 44.3825C45.0862 43.7619 44.5732 43.0272 44.2058 42.1785C43.8385 41.3299 43.6548 40.3925 43.6548 39.3665C43.6548 38.3405 43.8385 37.4032 44.2058 36.5545C44.5732 35.7059 45.0862 34.9712 45.7448 34.3505C46.4162 33.7299 47.2015 33.2549 48.1008 32.9255C49.0128 32.5835 50.0008 32.4125 51.0648 32.4125C52.3695 32.4125 53.5222 32.6405 54.5228 33.0965C55.5362 33.5525 56.3722 34.2112 57.0308 35.0725L54.1998 37.5995C53.8072 37.1055 53.3702 36.7255 52.8888 36.4595C52.4202 36.1809 51.8882 36.0415 51.2928 36.0415C50.8242 36.0415 50.3998 36.1175 50.0198 36.2695C49.6398 36.4215 49.3105 36.6432 49.0318 36.9345C48.7658 37.2259 48.5568 37.5805 48.4048 37.9985C48.2528 38.4039 48.1768 38.8599 48.1768 39.3665C48.1768 39.8732 48.2528 40.3355 48.4048 40.7535C48.5568 41.1589 48.7658 41.5072 49.0318 41.7985C49.3105 42.0899 49.6398 42.3115 50.0198 42.4635C50.3998 42.6155 50.8242 42.6915 51.2928 42.6915C51.8882 42.6915 52.4202 42.5585 52.8888 42.2925C53.3702 42.0139 53.8072 41.6275 54.1998 41.1335L57.0308 43.6605C56.3722 44.5092 55.5362 45.1679 54.5228 45.6365C53.5222 46.0925 52.3695 46.3205 51.0648 46.3205ZM14.1409 62.0165V48.7165H20.6959C22.1779 48.7165 23.4825 48.9889 24.6099 49.5335C25.7372 50.0655 26.6175 50.8255 27.2509 51.8135C27.8842 52.8015 28.2009 53.9795 28.2009 55.3475C28.2009 56.7282 27.8842 57.9189 27.2509 58.9195C26.6175 59.9075 25.7372 60.6739 24.6099 61.2185C23.4825 61.7505 22.1779 62.0165 20.6959 62.0165H14.1409ZM18.6249 58.5205H20.5059C21.1392 58.5205 21.6902 58.4002 22.1589 58.1595C22.6402 57.9189 23.0139 57.5642 23.2799 57.0955C23.5459 56.6142 23.6789 56.0315 23.6789 55.3475C23.6789 54.6762 23.5459 54.1062 23.2799 53.6375C23.0139 53.1689 22.6402 52.8142 22.1589 52.5735C21.6902 52.3329 21.1392 52.2125 20.5059 52.2125H18.6249V58.5205ZM29.0401 62.0165V51.6235H33.3341V62.0165H29.0401ZM31.1871 50.7875C30.4018 50.7875 29.7748 50.5785 29.3061 50.1605C28.8375 49.7425 28.6031 49.2232 28.6031 48.6025C28.6031 47.9819 28.8375 47.4625 29.3061 47.0445C29.7748 46.6265 30.4018 46.4175 31.1871 46.4175C31.9725 46.4175 32.5995 46.6139 33.0681 47.0065C33.5368 47.3992 33.7711 47.9059 33.7711 48.5265C33.7711 49.1852 33.5368 49.7299 33.0681 50.1605C32.5995 50.5785 31.9725 50.7875 31.1871 50.7875ZM34.8944 62.0765C34.7184 62.0765 34.5664 62.0125 34.4384 61.8845C34.3184 61.7565 34.2584 61.6005 34.2584 61.4165C34.2584 61.2245 34.3184 61.0685 34.4384 60.9485C34.5664 60.8285 34.7184 60.7685 34.8944 60.7685C35.0704 60.7685 35.2184 60.8285 35.3384 60.9485C35.4664 61.0685 35.5304 61.2245 35.5304 61.4165C35.5304 61.6005 35.4664 61.7565 35.3384 61.8845C35.2184 62.0125 35.0704 62.0765 34.8944 62.0765ZM39.3736 62.0765C38.7496 62.0765 38.1896 61.9405 37.6936 61.6685C37.2056 61.3885 36.8216 61.0085 36.5416 60.5285C36.2616 60.0405 36.1216 59.4845 36.1216 58.8605C36.1216 58.2285 36.2616 57.6725 36.5416 57.1925C36.8216 56.7125 37.2056 56.3365 37.6936 56.0645C38.1896 55.7925 38.7496 55.6565 39.3736 55.6565C39.9096 55.6565 40.3936 55.7605 40.8256 55.9685C41.2576 56.1765 41.5976 56.4885 41.8456 56.9045L41.2096 57.3365C40.9936 57.0165 40.7256 56.7805 40.4056 56.6285C40.0856 56.4765 39.7376 56.4005 39.3616 56.4005C38.9136 56.4005 38.5096 56.5045 38.1496 56.7125C37.7896 56.9125 37.5056 57.1965 37.2976 57.5645C37.0896 57.9325 36.9856 58.3645 36.9856 58.8605C36.9856 59.3565 37.0896 59.7885 37.2976 60.1565C37.5056 60.5245 37.7896 60.8125 38.1496 61.0205C38.5096 61.2205 38.9136 61.3205 39.3616 61.3205C39.7376 61.3205 40.0856 61.2445 40.4056 61.0925C40.7256 60.9405 40.9936 60.7085 41.2096 60.3965L41.8456 60.8285C41.5976 61.2365 41.2576 61.5485 40.8256 61.7645C40.3936 61.9725 39.9096 62.0765 39.3736 62.0765ZM45.5618 62.0765C44.9538 62.0765 44.4058 61.9405 43.9178 61.6685C43.4378 61.3885 43.0578 61.0085 42.7778 60.5285C42.4978 60.0405 42.3578 59.4845 42.3578 58.8605C42.3578 58.2285 42.4978 57.6725 42.7778 57.1925C43.0578 56.7125 43.4378 56.3365 43.9178 56.0645C44.3978 55.7925 44.9458 55.6565 45.5618 55.6565C46.1858 55.6565 46.7378 55.7925 47.2178 56.0645C47.7058 56.3365 48.0858 56.7125 48.3578 57.1925C48.6378 57.6725 48.7778 58.2285 48.7778 58.8605C48.7778 59.4845 48.6378 60.0405 48.3578 60.5285C48.0858 61.0085 47.7058 61.3885 47.2178 61.6685C46.7298 61.9405 46.1778 62.0765 45.5618 62.0765ZM45.5618 61.3205C46.0178 61.3205 46.4218 61.2205 46.7738 61.0205C47.1258 60.8125 47.4018 60.5245 47.6018 60.1565C47.8098 59.7805 47.9138 59.3485 47.9138 58.8605C47.9138 58.3645 47.8098 57.9325 47.6018 57.5645C47.4018 57.1965 47.1258 56.9125 46.7738 56.7125C46.4218 56.5045 46.0218 56.4005 45.5738 56.4005C45.1258 56.4005 44.7258 56.5045 44.3738 56.7125C44.0218 56.9125 43.7418 57.1965 43.5338 57.5645C43.3258 57.9325 43.2218 58.3645 43.2218 58.8605C43.2218 59.3485 43.3258 59.7805 43.5338 60.1565C43.7418 60.5245 44.0218 60.8125 44.3738 61.0205C44.7258 61.2205 45.1218 61.3205 45.5618 61.3205ZM57.9693 55.6565C58.4813 55.6565 58.9253 55.7565 59.3013 55.9565C59.6853 56.1485 59.9813 56.4445 60.1893 56.8445C60.4053 57.2445 60.5133 57.7485 60.5133 58.3565V62.0165H59.6613V58.4405C59.6613 57.7765 59.5013 57.2765 59.1813 56.9405C58.8693 56.5965 58.4253 56.4245 57.8493 56.4245C57.4173 56.4245 57.0413 56.5165 56.7213 56.7005C56.4093 56.8765 56.1653 57.1365 55.9893 57.4805C55.8213 57.8165 55.7373 58.2245 55.7373 58.7045V62.0165H54.8853V58.4405C54.8853 57.7765 54.7253 57.2765 54.4053 56.9405C54.0853 56.5965 53.6373 56.4245 53.0613 56.4245C52.6373 56.4245 52.2653 56.5165 51.9453 56.7005C51.6253 56.8765 51.3773 57.1365 51.2013 57.4805C51.0333 57.8165 50.9493 58.2245 50.9493 58.7045V62.0165H50.0973V55.7165H50.9133V57.4205L50.7813 57.1205C50.9733 56.6645 51.2813 56.3085 51.7053 56.0525C52.1373 55.7885 52.6453 55.6565 53.2293 55.6565C53.8453 55.6565 54.3693 55.8125 54.8013 56.1245C55.2333 56.4285 55.5133 56.8885 55.6413 57.5045L55.3053 57.3725C55.4893 56.8605 55.8133 56.4485 56.2773 56.1365C56.7493 55.8165 57.3133 55.6565 57.9693 55.6565Z" fill="#FFF0CE"/>
</g>
<defs>
<filter id="filter0_d_5_2542" x="0" y="0" width="84" height="84" filterUnits="userSpaceOnUse" color-interpolation-filters="sRGB">
<feFlood flood-opacity="0" result="BackgroundImageFix"/>
<feColorMatrix in="SourceAlpha" type="matrix" values="0 0 0 0 0 0 0 0 0 0 0 0 0 0 0 0 0 0 127 0" result="hardAlpha"/>
<feOffset dx="5" dy="5"/>
<feComposite in2="hardAlpha" operator="out"/>
<feColorMatrix type="matrix" values="0 0 0 0 0.943415 0 0 0 0 0.872075 0 0 0 0 0.71037 0 0 0 1 0"/>
<feBlend mode="normal" in2="BackgroundImageFix" result="effect1_dropShadow_5_2542"/>
<feBlend mode="normal" in="SourceGraphic" in2="effect1_dropShadow_5_2542" result="shape"/>
</filter>
</defs>
</svg>
